<svg width="98" height="19" viewBox="0 0 98 19" fill="none" xmlns="http://www.w3.org/2000/svg">
<g clip-path="url(#clip0_149_4881)">
<path d="M4.18308 0V6.52471C4.72736 5.95664 5.37894 5.50388 6.09931 5.1931C6.79178 4.90483 7.53085 4.74689 8.27991 4.72708C9.94064 4.71287 11.5281 5.41573 12.6409 6.6579C13.8463 8.032 14.4847 9.81861 14.425 11.6514C14.4801 13.4758 13.8148 15.2478 12.5749 16.5784C11.4709 17.841 9.88374 18.568 8.21381 18.5758C7.49028 18.5785 6.77276 18.4429 6.09931 18.1762C5.37894 17.8656 4.72736 17.4129 4.18308 16.8446V18.2428H0.945312V0H4.18308ZM7.61898 7.78989C6.64612 7.74485 5.70323 8.13469 5.04198 8.85511C4.36726 9.62425 4.01238 10.6256 4.0509 11.6514C4.00129 12.699 4.35664 13.725 5.04198 14.5144C5.70307 15.2348 6.64612 15.6245 7.61898 15.5796C8.57947 15.5881 9.49589 15.1749 10.1299 14.4478C10.8244 13.6862 11.2027 12.6856 11.1871 11.6514C11.2341 10.6143 10.8786 9.59934 10.196 8.82174C9.51238 8.13852 8.58169 7.76577 7.61898 7.78989Z" fill="white"/>
<path d="M26.054 5.12662H29.3579V18.3094H26.054V16.9112C25.4977 17.4649 24.8491 17.9156 24.1378 18.2428C23.4661 18.5156 22.7475 18.6513 22.0235 18.6424C20.3475 18.6622 18.7496 17.9303 17.6624 16.645C16.4124 15.3207 15.7452 13.5443 15.8123 11.7179C15.7296 9.88149 16.3708 8.08642 17.5963 6.72446C18.6909 5.45689 20.2905 4.74876 21.9574 4.79364C22.7104 4.77399 23.4575 4.9337 24.1378 5.25965C24.8582 5.57044 25.5098 6.0232 26.054 6.59127V5.12662ZM22.6181 7.78985C21.6668 7.75743 20.7491 8.14678 20.1072 8.85507C19.4325 9.62421 19.0776 10.6256 19.1162 11.6513C19.0776 12.6771 19.4327 13.6785 20.1072 14.4478C21.4285 15.8809 23.6528 15.9635 25.0752 14.6321C25.116 14.5937 25.156 14.5546 25.195 14.5143C25.8803 13.7251 26.2357 12.699 26.1861 11.6513C26.2246 10.6256 25.8695 9.62421 25.195 8.85507C24.5171 8.15956 23.5856 7.77452 22.6181 7.78985Z" fill="white"/>
<path d="M31.7368 5.12663H34.578V6.82444C34.8473 6.24408 35.2561 5.74053 35.7674 5.35964C36.251 5.01611 36.8276 4.83022 37.4192 4.82703C37.877 4.85034 38.3258 4.96341 38.7408 5.15985L37.7497 8.0227C37.4644 7.86667 37.1487 7.7758 36.8246 7.75648C36.2627 7.7972 35.7742 8.15989 35.5691 8.68851C35.2388 9.28772 35.0405 10.5527 35.0405 12.417V18.4092H31.8028V5.12663H31.7368Z" fill="white"/>
<path d="M52.0882 7.78985L49.379 9.32109C48.9576 8.8399 48.4396 8.45405 47.8594 8.18926C47.2913 7.96424 46.6857 7.85133 46.0753 7.85644C44.9724 7.80821 43.8977 8.21721 43.1019 8.98826C42.3499 9.74446 41.943 10.7814 41.9787 11.8513C41.9432 12.8822 42.3529 13.8778 43.1019 14.5811C44.9982 16.1649 47.7971 15.9593 49.4453 14.1149L52.0223 15.9127C50.6347 17.7769 48.6523 18.6425 46.0753 18.6425C43.7627 18.6425 41.9787 17.9767 40.6571 16.5785C39.3892 15.3105 38.6756 13.5849 38.6748 11.7847C38.6756 10.5478 38.9943 9.33194 39.5998 8.25602C40.2398 7.18903 41.1526 6.3153 42.2429 5.72599C43.4234 5.09867 44.7408 4.77814 46.0753 4.79396C47.2893 4.77431 48.4902 5.0482 49.5775 5.59295C50.6118 6.05801 51.4858 6.82284 52.0882 7.78985Z" fill="white"/>
<path d="M53.7402 0H56.978V6.45811C57.5527 5.9453 58.1981 5.51906 58.8944 5.1931C59.5235 4.93262 60.1966 4.79703 60.8767 4.79368C62.11 4.77595 63.2995 5.25522 64.1806 6.12529C64.9734 6.92429 65.3038 8.05611 65.3038 9.58736V18.3093H62.0661V12.5168C62.1001 11.4696 62.0337 10.4218 61.8678 9.38757C61.7809 8.91133 61.5219 8.48428 61.1409 8.18915C60.7578 7.90951 60.2922 7.76865 59.8194 7.78973C59.1805 7.76577 58.5598 8.00629 58.1014 8.45554C57.6194 8.95621 57.2776 9.57634 57.1102 10.2532C57.0046 11.159 56.9604 12.0711 56.978 12.983V18.3094H53.7402V0Z" fill="white"/>
<path d="M77.1315 5.12662H80.4353V18.3094H77.1315V16.9112C76.5752 17.4649 75.9264 17.9156 75.2153 18.2428C74.5435 18.5156 73.8249 18.6513 73.1007 18.6424C71.4248 18.6622 69.8268 17.9303 68.7397 16.645C67.4895 15.3207 66.8224 13.5443 66.8894 11.7179C66.8068 9.88149 67.448 8.08642 68.6736 6.72446C69.7682 5.45689 71.3677 4.74876 73.0347 4.79364C73.7878 4.77399 74.5348 4.9337 75.2153 5.25965C75.9356 5.57044 76.587 6.0232 77.1315 6.59127V5.12662ZM73.6954 7.78985C72.744 7.75743 71.8263 8.14678 71.1845 8.85507C70.5098 9.62421 70.1549 10.6256 70.1933 11.6513C70.1549 12.6771 70.5098 13.6785 71.1845 14.4478C72.5059 15.8809 74.7301 15.9635 76.1524 14.6321C76.1935 14.5937 76.2334 14.5546 76.2724 14.5143C76.9578 13.7251 77.313 12.699 77.2637 11.6513C77.302 10.6256 76.9471 9.62421 76.2724 8.85507C75.5801 8.18112 74.658 7.80007 73.6954 7.78985Z" fill="white"/>
<path d="M82.8799 5.12663H85.7213V6.82444C85.9904 6.24408 86.3993 5.74053 86.9106 5.35964C87.3942 5.01611 87.9706 4.83022 88.5625 4.82703C89.0204 4.85034 89.4692 4.96341 89.884 5.15985L88.8929 8.0227C88.6076 7.86667 88.2919 7.7758 87.9678 7.75648C87.4059 7.7972 86.9174 8.15989 86.7123 8.68851C86.382 9.28772 86.1838 10.5527 86.1838 12.417V18.4092H82.946V5.12663H82.8799Z" fill="white"/>
<path d="M92.7252 0.266357H96.0291V5.12663H97.9453V7.98949H96.0291V18.3094H92.7252V7.92305H91.0732V5.12663H92.7252V0.266357Z" fill="white"/>
</g>
<defs>
<clipPath id="clip0_149_4881">
<rect width="97" height="19" fill="white" transform="translate(0.945312)"/>
</clipPath>
</defs>
</svg>
