<svg width="98" height="20" viewBox="0 0 98 20" fill="none" xmlns="http://www.w3.org/2000/svg">
<g clip-path="url(#clip0_149_4856)">
<path d="M5.91864 8.40417L9.73125 4.5203L13.5459 8.40622L15.7643 6.14623L9.73125 0L3.7002 6.14417L5.91864 8.40417Z" fill="white"/>
<path d="M4.35219 9.9997L2.13379 7.73975L-0.0847236 9.99981L2.13368 12.2598L4.35219 9.9997Z" fill="white"/>
<path d="M5.91896 11.5959L9.73158 15.4798L13.546 11.594L15.7657 13.8527L15.7646 13.854L9.73158 20.0001L3.70037 13.856L3.69727 13.8529L5.91896 11.5959Z" fill="white"/>
<path d="M17.3293 12.2608L19.5479 10.0007L17.3294 7.74078L15.1109 10.0008L17.3293 12.2608Z" fill="white"/>
<path d="M11.9815 9.99877H11.9824L9.73125 7.70544L8.06761 9.40024H8.06746L7.87642 9.59501L7.48211 9.99671L7.479 9.99987L7.48211 10.0032L9.73125 12.2945L11.9824 10.0011L11.9835 9.99987L11.9815 9.99877Z" fill="white"/>
<path d="M23.0063 4.84619H27.8313C29.0289 4.84619 29.9344 5.15928 30.5481 5.78545C31.0231 6.2704 31.2605 6.87145 31.2605 7.58845V7.61878C31.2605 7.92175 31.2237 8.1895 31.1498 8.42171C31.076 8.65423 30.9774 8.86354 30.8541 9.05041C30.7311 9.23744 30.5882 9.40156 30.4257 9.54278C30.263 9.68432 30.0882 9.80563 29.9011 9.90641C30.503 10.1389 30.9769 10.4544 31.3224 10.8534C31.6677 11.2526 31.8406 11.8056 31.8406 12.5125V12.5427C31.8406 13.0276 31.7491 13.4518 31.566 13.8156C31.3828 14.179 31.1205 14.4822 30.7789 14.7246C30.4373 14.9671 30.0265 15.1488 29.5465 15.2701C29.0664 15.3912 28.5344 15.4517 27.9506 15.4517H23.0063V4.84619ZM27.349 9.13381C27.8548 9.13381 28.2564 9.04567 28.5536 8.86875C28.851 8.69199 28.9997 8.40655 28.9997 8.01274V7.98241C28.9997 7.62905 28.8707 7.35893 28.613 7.1719C28.3551 6.98503 27.9833 6.89151 27.4977 6.89151H25.237V9.13381H27.349ZM27.9588 13.4066C28.4645 13.4066 28.8608 13.3134 29.1486 13.1264C29.4361 12.9395 29.58 12.649 29.58 12.255V12.2249C29.58 11.8713 29.446 11.5911 29.1784 11.3839C28.9106 11.1771 28.4793 11.0735 27.8844 11.0735H25.237V13.4067L27.9588 13.4066Z" fill="white"/>
<path d="M34.7139 4.84619H37.0044V15.4521H34.7139V4.84619Z" fill="white"/>
<path d="M40.4736 4.84619H42.5852L47.4636 11.3764V4.84619H49.7242V15.4521H47.776L42.7341 8.70984V15.4521H40.4736V4.84619Z" fill="white"/>
<path d="M56.6584 4.77051H58.7702L63.2322 15.452H60.8376L59.8857 13.0734H55.4834L54.5316 15.452H52.1963L56.6584 4.77051ZM59.0678 11.0126L57.6845 7.57342L56.3017 11.0126H59.0678Z" fill="white"/>
<path d="M65.7046 4.84619H67.8167L72.6947 11.3764V4.84619H74.9553V15.4521H73.0071L67.9652 8.70984V15.4521H65.7046V4.84619Z" fill="white"/>
<path d="M83.1982 15.6337C82.4344 15.6337 81.7258 15.4921 81.0713 15.2095C80.4168 14.9269 79.8517 14.5404 79.3758 14.0504C78.8998 13.5605 78.5278 12.9822 78.2605 12.3156C77.9927 11.6488 77.8589 10.9367 77.8589 10.1792V10.149C77.8589 9.39138 77.9927 8.68197 78.2605 8.02025C78.528 7.3587 78.8998 6.77787 79.3758 6.27791C79.8516 5.77795 80.4219 5.38383 81.086 5.09602C81.7501 4.80821 82.4843 4.66431 83.2874 4.66431C83.7729 4.66431 84.2165 4.7049 84.6181 4.78547C85.0197 4.8665 85.3839 4.97739 85.7114 5.11877C86.0388 5.26031 86.3408 5.43201 86.6188 5.63389C86.8959 5.83608 87.154 6.05818 87.392 6.30066L85.9347 8.01267C85.5277 7.63909 85.114 7.34591 84.6927 7.13392C84.2711 6.92193 83.7978 6.81578 83.2723 6.81578C82.836 6.81578 82.4319 6.90171 82.0604 7.07342C81.6886 7.24512 81.3687 7.48239 81.1009 7.78536C80.8334 8.08834 80.6252 8.43949 80.4761 8.83835C80.3278 9.23753 80.2535 9.66419 80.2535 10.1187V10.1488C80.2535 10.6033 80.3278 11.0328 80.4761 11.4365C80.6252 11.8408 80.8305 12.1941 81.0936 12.4971C81.3561 12.8001 81.6735 13.0402 82.0452 13.217C82.4173 13.3939 82.8262 13.482 83.2723 13.482C83.8675 13.482 84.3702 13.371 84.7817 13.1487C85.1932 12.9268 85.6024 12.6236 86.0088 12.2396L87.4664 13.7397C87.1986 14.0327 86.9206 14.2954 86.6336 14.5274C86.3459 14.76 86.0312 14.9593 85.6889 15.1261C85.347 15.2926 84.9724 15.4191 84.5663 15.5048C84.1594 15.5905 83.7036 15.6337 83.1982 15.6337Z" fill="white"/>
<path d="M90.1621 4.84619H97.9999V6.922H92.4229V9.07347H97.3308V11.1491H92.4229V13.3764H98.0747V15.4521H90.1621V4.84619Z" fill="white"/>
</g>
<defs>
<clipPath id="clip0_149_4856">
<rect width="98" height="20" fill="white"/>
</clipPath>
</defs>
</svg>
