<svg width="228" height="40" viewBox="0 0 228 40" fill="none" xmlns="http://www.w3.org/2000/svg">
<mask id="mask0_1_9965" style="mask-type:luminance" maskUnits="userSpaceOnUse" x="0" y="0" width="228" height="40">
<path d="M0.527344 0.0195312H227.164V39.9795H0.527344V0.0195312Z" fill="white"/>
</mask>
<g mask="url(#mask0_1_9965)">
<path fill-rule="evenodd" clip-rule="evenodd" d="M57.8595 32.9185C55.7574 32.9185 53.9182 32.5552 52.3415 31.8283C50.7878 31.0787 49.4854 30.0907 48.4344 28.8639C47.3833 27.6147 46.595 26.2177 46.0696 24.673C45.544 23.1285 45.2812 21.5497 45.2812 19.9369C45.2812 18.3469 45.544 16.7795 46.0696 15.2349C46.595 13.6903 47.3833 12.3047 48.4344 11.0781C49.4854 9.82875 50.7878 8.84066 52.3415 8.11376C53.9182 7.38688 55.7574 7.02344 57.8595 7.02344C59.619 7.02344 61.1156 7.25059 62.3493 7.7049C63.6061 8.13648 64.6456 8.70436 65.4683 9.40854C66.3135 10.09 66.9878 10.8282 67.4903 11.6232C68.016 12.3956 68.4043 13.1338 68.6557 13.838C68.9069 14.5194 69.0669 15.0873 69.1354 15.5416C69.2268 15.9732 69.2726 16.1889 69.2726 16.1889H64.0287C64.0287 16.1889 63.983 16.0413 63.8916 15.7461C63.8232 15.428 63.6746 15.0532 63.446 14.6217C63.2176 14.1673 62.8749 13.7244 62.4179 13.2928C61.9838 12.8612 61.3897 12.4978 60.6357 12.2025C59.9046 11.8845 58.9906 11.7255 57.8938 11.7255C56.3173 11.7255 54.9919 12.1343 53.9182 12.9521C52.867 13.7471 52.0674 14.7693 51.5189 16.0186C50.9935 17.2679 50.7307 18.574 50.7307 19.9369C50.7307 21.2999 50.9935 22.6174 51.5189 23.8894C52.0674 25.1386 52.867 26.1722 53.9182 26.99C54.9919 27.7852 56.3173 28.1824 57.8938 28.1824C58.9906 28.1824 59.9046 28.035 60.6357 27.7396C61.3897 27.4443 61.9838 27.0808 62.4179 26.6492C62.8749 26.1949 63.2176 25.7521 63.446 25.3205C63.6746 24.8662 63.8232 24.4914 63.8916 24.1961C63.983 23.9009 64.0287 23.7531 64.0287 23.7531H69.2726C69.2726 23.7531 69.2268 23.9803 69.1354 24.4346C69.0669 24.8662 68.9069 25.4339 68.6557 26.1382C68.4043 26.8197 68.016 27.5579 67.4903 28.353C66.9878 29.1252 66.3135 29.8635 65.4683 30.5677C64.6456 31.2492 63.6061 31.817 62.3493 32.2713C61.1156 32.7029 59.619 32.9185 57.8595 32.9185Z" fill="#050B0C"/>
<path fill-rule="evenodd" clip-rule="evenodd" d="M81.3287 32.3542C79.2952 32.3542 77.57 31.9226 76.1535 31.0594C74.7368 30.1735 73.6514 29.0265 72.8974 27.6181C72.1663 26.1871 71.8008 24.6424 71.8008 22.9842C71.8008 21.326 72.1663 19.7927 72.8974 18.3845C73.6514 16.9533 74.7368 15.8062 76.1535 14.9431C77.57 14.0572 79.2952 13.6143 81.3287 13.6143C83.3623 13.6143 85.0873 14.0572 86.504 14.9431C87.9207 15.8062 88.9945 16.9533 89.7258 18.3845C90.4797 19.7927 90.8567 21.326 90.8567 22.9842C90.8567 24.6424 90.4797 26.1871 89.7258 27.6181C88.9945 29.0265 87.9207 30.1735 86.504 31.0594C85.0873 31.9226 83.3623 32.3542 81.3287 32.3542ZM81.3286 28.1292C82.2426 28.1292 83.008 27.8906 83.625 27.4136C84.2648 26.9367 84.7561 26.312 85.0987 25.5396C85.4415 24.7446 85.6129 23.8928 85.6129 22.9842C85.6129 22.0528 85.4415 21.2011 85.0987 20.4287C84.7561 19.6564 84.2648 19.0317 83.625 18.5548C83.008 18.0778 82.2426 17.8391 81.3286 17.8391C80.4147 17.8391 79.6379 18.0778 78.9981 18.5548C78.3583 19.0317 77.867 19.6564 77.5244 20.4287C77.2045 21.2011 77.0445 22.0528 77.0445 22.9842C77.0445 23.8928 77.2045 24.7446 77.5244 25.5396C77.867 26.312 78.3583 26.9367 78.9981 27.4136C79.6379 27.8906 80.4147 28.1292 81.3286 28.1292Z" fill="#050B0C"/>
<path fill-rule="evenodd" clip-rule="evenodd" d="M100.663 32.0134C99.3834 32.0134 98.3209 31.7409 97.4754 31.1958C96.6529 30.6505 96.036 29.9236 95.6247 29.015C95.2133 28.0838 95.0078 27.0389 95.0078 25.8803V13.6143H100.183V24.8582C100.183 25.7213 100.412 26.4256 100.869 26.9707C101.326 27.4932 101.999 27.7544 102.891 27.7544C103.645 27.7544 104.239 27.5727 104.673 27.2092C105.13 26.8458 105.461 26.3801 105.667 25.8123C105.872 25.2445 105.975 24.6425 105.975 24.0064V13.6143H111.185V31.6729H105.975V29.1173H105.77C105.381 29.8215 104.776 30.4802 103.953 31.0934C103.153 31.7067 102.057 32.0134 100.663 32.0134Z" fill="#050B0C"/>
<path fill-rule="evenodd" clip-rule="evenodd" d="M113.24 32.0136V13.955H118.45V16.5445H118.621C118.827 16.181 119.124 15.7721 119.512 15.3179C119.923 14.8636 120.46 14.4661 121.123 14.1253C121.809 13.7846 122.677 13.6143 123.728 13.6143C125.144 13.6143 126.298 13.9436 127.189 14.6024C128.08 15.2384 128.732 16.0674 129.143 17.0896C129.554 18.0892 129.76 19.1454 129.76 20.2584V32.0136H124.55V21.1443C124.55 20.2811 124.31 19.5201 123.831 18.8615C123.374 18.2027 122.631 17.8733 121.603 17.8733C120.826 17.8733 120.209 18.0551 119.752 18.4186C119.295 18.7819 118.964 19.2476 118.758 19.8154C118.552 20.3833 118.45 20.9852 118.45 21.6213V32.0136H113.24Z" fill="#050B0C"/>
<path fill-rule="evenodd" clip-rule="evenodd" d="M140.932 31.5335C139.515 31.5335 138.384 31.3293 137.539 30.9202C136.694 30.4886 136.054 29.9549 135.62 29.3189C135.186 28.6603 134.9 27.9674 134.763 27.2405C134.626 26.5136 134.557 25.8435 134.557 25.2301V17.2572H131.473V13.1344H134.557V8.6709H139.767V13.1344H143.64V17.2572H139.767V25.0939C139.767 25.8435 139.961 26.4226 140.349 26.8316C140.761 27.2405 141.435 27.445 142.372 27.445C142.783 27.445 143.16 27.4108 143.503 27.3427C143.845 27.2747 144.017 27.2405 144.017 27.2405V31.2268C144.017 31.2268 143.708 31.2724 143.091 31.3633C142.474 31.477 141.755 31.5335 140.932 31.5335Z" fill="#050B0C"/>
<path fill-rule="evenodd" clip-rule="evenodd" d="M152.697 32.2372L146.391 7.02344H151.669L156.159 25.3205L160.854 7.02344H166.235L170.93 25.2863L175.385 7.02344H180.698L174.358 32.2372H167.64L163.527 16.189L159.449 32.2372H152.697Z" fill="#050B0C"/>
<path fill-rule="evenodd" clip-rule="evenodd" d="M185.942 11.3036C185.029 11.3036 184.286 11.0197 183.714 10.4518C183.144 9.86123 182.857 9.16844 182.857 8.3734C182.857 7.53295 183.144 6.82877 183.714 6.26089C184.286 5.67031 185.029 5.375 185.942 5.375C186.811 5.375 187.542 5.67031 188.137 6.26089C188.73 6.82877 189.027 7.53295 189.027 8.3734C189.027 9.16844 188.73 9.86123 188.137 10.4518C187.542 11.0197 186.811 11.3036 185.942 11.3036ZM183.338 31.8155V13.757H188.548V31.8155H183.338Z" fill="#050B0C"/>
<path fill-rule="evenodd" clip-rule="evenodd" d="M192.35 31.946V28.9734L201.189 18.0776V17.9489H192.655V13.9697H207.219V17.2116L198.92 27.8383V27.967H207.525V31.946H192.35Z" fill="#050B0C"/>
<path fill-rule="evenodd" clip-rule="evenodd" d="M218.767 31.943C217.168 31.943 215.785 31.6819 214.62 31.1594C213.455 30.6141 212.495 29.8987 211.741 29.0128C210.987 28.1042 210.415 27.0934 210.027 25.9803C209.661 24.8674 209.479 23.7201 209.479 22.539C209.479 21.4033 209.651 20.2902 209.992 19.2C210.359 18.0869 210.907 17.0761 211.638 16.1675C212.392 15.2589 213.341 14.5433 214.483 14.0209C215.648 13.4757 217.019 13.2031 218.595 13.2031C220.264 13.2031 221.738 13.5666 223.017 14.2934C224.318 15.0203 225.336 16.0992 226.067 17.5304C226.798 18.9386 227.165 20.6537 227.165 22.6753V23.936H214.723C214.791 25.0264 215.169 25.9689 215.853 26.764C216.561 27.5591 217.532 27.9566 218.767 27.9566C219.475 27.9566 220.047 27.8544 220.481 27.6499C220.937 27.4228 221.292 27.1729 221.544 26.9003C221.794 26.605 221.966 26.3438 222.058 26.1166C222.149 25.8895 222.194 25.776 222.194 25.776H226.992C226.992 25.776 226.936 25.9917 226.821 26.4233C226.73 26.8321 226.525 27.3432 226.205 27.9566C225.885 28.5699 225.416 29.1832 224.799 29.7965C224.204 30.4098 223.417 30.9209 222.434 31.3297C221.451 31.7386 220.229 31.943 218.767 31.943ZM214.723 20.8012H222.16C222.091 19.5518 221.714 18.6204 221.028 18.0073C220.344 17.3939 219.498 17.0873 218.492 17.0873C217.488 17.0873 216.631 17.4165 215.921 18.0753C215.214 18.7114 214.814 19.62 214.723 20.8012Z" fill="#050B0C"/>
<path fill-rule="evenodd" clip-rule="evenodd" d="M16.2741 3.72754C7.57737 3.72754 0.527344 10.7363 0.527344 19.3819C0.527344 28.0277 7.57737 35.0363 16.2741 35.0363C24.9707 35.0363 36.9932 19.3819 36.9932 19.3819C36.9932 19.3819 24.9707 3.72754 16.2741 3.72754ZM34.36 19.3819C32.6424 17.2718 30.6762 15.1579 28.4619 13.0403C23.4051 8.20497 19.3426 5.7873 16.2741 5.7873C12.4964 5.7873 9.2721 7.11494 6.60121 9.77018C3.93117 12.4246 2.59616 15.6285 2.59616 19.3819C2.59616 23.1354 3.93117 26.3394 6.60121 28.9938C9.27208 31.6489 12.4964 32.9766 16.2741 32.9766C19.3426 32.9766 23.4051 30.5589 28.4619 25.7237C30.6762 23.6059 32.6424 21.4921 34.36 19.3819Z" fill="#050B0C"/>
<path fill-rule="evenodd" clip-rule="evenodd" d="M23.7326 17.9399H8.81445V22.9864C8.81445 24.1809 9.81632 25.1492 11.0522 25.1492H21.4949C22.7307 25.1492 23.7326 24.1809 23.7326 22.9864V17.9399ZM15.2187 20.8238L15.3082 20.7366C15.5911 20.4539 15.5874 20.0043 15.2999 19.726C15.0124 19.4477 14.5472 19.4435 14.2543 19.7165L12.89 21.0351C12.5988 21.3166 12.5988 21.773 12.89 22.0545L14.2543 23.3723C14.4416 23.5597 14.7189 23.6349 14.9797 23.5689C15.2405 23.503 15.4441 23.3061 15.5124 23.054C15.5807 22.802 15.5029 22.534 15.309 22.3529L15.2187 22.2657H18.5112C18.9231 22.2657 19.2571 21.9429 19.2571 21.5448C19.2571 21.1466 18.9231 20.8238 18.5112 20.8238H15.2187ZM11.0522 13.6143C9.81632 13.6143 8.81445 14.5826 8.81445 15.777V16.498H23.7326V15.777C23.7326 14.5826 22.7307 13.6143 21.4949 13.6143H11.0522Z" fill="#050B0C"/>
</g>
</svg>
