<svg width="231" height="41" viewBox="0 0 231 41" fill="none" xmlns="http://www.w3.org/2000/svg">
<mask id="mask0_1_10124" style="mask-type:luminance" maskUnits="userSpaceOnUse" x="0" y="0" width="231" height="41">
<path d="M0 0H231V40.9078H0V0Z" fill="white"/>
</mask>
<g mask="url(#mask0_1_10124)">
<path fill-rule="evenodd" clip-rule="evenodd" d="M58.4356 33.6792C56.2931 33.6792 54.4184 33.3073 52.8114 32.5631C51.2278 31.7958 49.9003 30.7843 48.8291 29.5284C47.7578 28.2496 46.9543 26.8194 46.4187 25.2381C45.883 23.657 45.6152 22.0407 45.6152 20.3897C45.6152 18.762 45.883 17.1574 46.4187 15.5762C46.9543 13.9949 47.7578 12.5765 48.8291 11.3207C49.9003 10.0418 51.2278 9.03024 52.8114 8.28611C54.4184 7.54199 56.2931 7.16992 58.4356 7.16992C60.229 7.16992 61.7544 7.40246 63.0118 7.86755C64.2928 8.30937 65.3523 8.89072 66.1909 9.61159C67.0523 10.3092 67.7396 11.065 68.2518 11.8788C68.7876 12.6695 69.1834 13.4252 69.4396 14.1461C69.6958 14.8437 69.8588 15.425 69.9286 15.8901C70.0218 16.332 70.0684 16.5528 70.0684 16.5528H64.7236C64.7236 16.5528 64.677 16.4017 64.5839 16.0994C64.5141 15.7738 64.3627 15.3901 64.1297 14.9484C63.8969 14.4833 63.5476 14.0298 63.0818 13.588C62.6393 13.1462 62.0338 12.7741 61.2653 12.4718C60.5201 12.1462 59.5885 11.9835 58.4706 11.9835C56.8638 11.9835 55.5129 12.402 54.4184 13.2392C53.347 14.0531 52.532 15.0995 51.973 16.3784C51.4374 17.6574 51.1696 18.9945 51.1696 20.3897C51.1696 21.785 51.4374 23.1337 51.973 24.4359C52.532 25.7148 53.347 26.7729 54.4184 27.61C55.5129 28.4241 56.8638 28.8308 58.4706 28.8308C59.5885 28.8308 60.5201 28.6799 61.2653 28.3774C62.0338 28.0751 62.6393 27.703 63.0818 27.2612C63.5476 26.7961 63.8969 26.3428 64.1297 25.9009C64.3627 25.4359 64.5141 25.0522 64.5839 24.7499C64.677 24.4476 64.7236 24.2964 64.7236 24.2964H70.0684C70.0684 24.2964 70.0218 24.529 69.9286 24.994C69.8588 25.4359 69.6958 26.0171 69.4396 26.7381C69.1834 27.4357 68.7876 28.1914 68.2518 29.0054C67.7396 29.7959 67.0523 30.5517 66.1909 31.2726C65.3523 31.9702 64.2928 32.5516 63.0118 33.0167C61.7544 33.4585 60.229 33.6792 58.4356 33.6792Z" fill="url(#paint0_linear_1_10124)"/>
<path fill-rule="evenodd" clip-rule="evenodd" d="M82.3578 33.1014C80.2852 33.1014 78.5268 32.6596 77.083 31.7759C75.639 30.869 74.5328 29.6948 73.7642 28.253C73.019 26.7881 72.6465 25.2067 72.6465 23.5092C72.6465 21.8116 73.019 20.242 73.7642 18.8003C74.5328 17.3352 75.639 16.161 77.083 15.2773C78.5268 14.3704 80.2852 13.917 82.3578 13.917C84.4306 13.917 86.1888 14.3704 87.6327 15.2773C89.0767 16.161 90.1712 17.3352 90.9166 18.8003C91.685 20.242 92.0693 21.8116 92.0693 23.5092C92.0693 25.2067 91.685 26.7881 90.9166 28.253C90.1712 29.6948 89.0767 30.869 87.6327 31.7759C86.1888 32.6596 84.4306 33.1014 82.3578 33.1014ZM82.3578 28.7762C83.2893 28.7762 84.0695 28.532 84.6983 28.0436C85.3504 27.5554 85.8512 26.9159 86.2004 26.1252C86.5498 25.3113 86.7245 24.4393 86.7245 23.5092C86.7245 22.5557 86.5498 21.6837 86.2004 20.8931C85.8512 20.1024 85.3504 19.4629 84.6983 18.9747C84.0695 18.4864 83.2893 18.2421 82.3578 18.2421C81.4262 18.2421 80.6345 18.4864 79.9824 18.9747C79.3303 19.4629 78.8295 20.1024 78.4803 20.8931C78.1542 21.6837 77.9912 22.5557 77.9912 23.5092C77.9912 24.4393 78.1542 25.3113 78.4803 26.1252C78.8295 26.9159 79.3303 27.5554 79.9824 28.0436C80.6345 28.532 81.4262 28.7762 82.3578 28.7762Z" fill="url(#paint1_linear_1_10124)"/>
<path fill-rule="evenodd" clip-rule="evenodd" d="M102.063 32.7526C100.759 32.7526 99.6757 32.4735 98.8139 31.9156C97.9756 31.3573 97.3468 30.6132 96.9276 29.6831C96.5083 28.7298 96.2988 27.6601 96.2988 26.474V13.917H101.574V25.4276C101.574 26.3112 101.807 27.0322 102.272 27.5903C102.738 28.1252 103.425 28.3925 104.333 28.3925C105.102 28.3925 105.707 28.2065 106.15 27.8343C106.616 27.4624 106.953 26.9857 107.163 26.4043C107.372 25.823 107.477 25.2068 107.477 24.5557V13.917H112.787V32.4039H107.477V29.7878H107.268C106.872 30.5086 106.255 31.183 105.416 31.8107C104.601 32.4386 103.483 32.7526 102.063 32.7526Z" fill="url(#paint2_linear_1_10124)"/>
<path fill-rule="evenodd" clip-rule="evenodd" d="M114.883 32.7527V14.2658H120.193V16.9167H120.367C120.577 16.5446 120.88 16.1261 121.276 15.661C121.695 15.1959 122.242 14.789 122.917 14.4402C123.616 14.0914 124.501 13.917 125.572 13.917C127.016 13.917 128.192 14.2542 129.101 14.9285C130.009 15.5796 130.673 16.4283 131.092 17.4747C131.511 18.498 131.721 19.5793 131.721 20.7187V32.7527H126.411V21.6256C126.411 20.742 126.166 19.963 125.677 19.2887C125.211 18.6143 124.454 18.277 123.406 18.277C122.615 18.277 121.986 18.4631 121.52 18.8352C121.054 19.2072 120.717 19.6839 120.507 20.2653C120.297 20.8466 120.193 21.4628 120.193 22.1139V32.7527H114.883Z" fill="url(#paint3_linear_1_10124)"/>
<path fill-rule="evenodd" clip-rule="evenodd" d="M143.108 32.2623C141.664 32.2623 140.512 32.0532 139.65 31.6345C138.788 31.1927 138.136 30.6463 137.694 29.9952C137.251 29.3209 136.96 28.6116 136.82 27.8675C136.681 27.1234 136.611 26.4373 136.611 25.8094V17.6474H133.467V13.4268H136.611V8.85742H141.921V13.4268H145.868V17.6474H141.921V25.6699C141.921 26.4373 142.119 27.0302 142.514 27.4489C142.934 27.8675 143.621 28.0768 144.576 28.0768C144.995 28.0768 145.379 28.0418 145.728 27.9721C146.078 27.9024 146.252 27.8675 146.252 27.8675V31.9483C146.252 31.9483 145.938 31.995 145.309 32.088C144.68 32.2044 143.947 32.2623 143.108 32.2623Z" fill="url(#paint4_linear_1_10124)"/>
<path fill-rule="evenodd" clip-rule="evenodd" d="M155.1 32.9817L148.672 7.16992H154.051L158.628 25.9009L163.414 7.16992H168.898L173.683 25.866L178.225 7.16992H183.639L177.177 32.9817H170.33L166.138 16.5529L161.981 32.9817H155.1Z" fill="url(#paint5_linear_1_10124)"/>
<path fill-rule="evenodd" clip-rule="evenodd" d="M188.984 11.5517C188.053 11.5517 187.296 11.261 186.713 10.6797C186.132 10.0751 185.84 9.36584 185.84 8.55193C185.84 7.69155 186.132 6.97067 186.713 6.38933C187.296 5.78473 188.053 5.48242 188.984 5.48242C189.869 5.48242 190.614 5.78473 191.221 6.38933C191.826 6.97067 192.128 7.69155 192.128 8.55193C192.128 9.36584 191.826 10.0751 191.221 10.6797C190.614 11.261 189.869 11.5517 188.984 11.5517ZM186.33 32.5501V14.0632H191.64V32.5501H186.33Z" fill="url(#paint6_linear_1_10124)"/>
<path fill-rule="evenodd" clip-rule="evenodd" d="M195.514 32.6839V29.6408L204.523 18.4865V18.3548H195.825V14.2812H210.67V17.6L202.211 28.4787V28.6105H210.981V32.6839H195.514Z" fill="white"/>
<path fill-rule="evenodd" clip-rule="evenodd" d="M222.442 32.6805C220.812 32.6805 219.403 32.4131 218.215 31.8783C217.028 31.3201 216.049 30.5876 215.281 29.6807C214.512 28.7506 213.929 27.7159 213.534 26.5763C213.16 25.437 212.975 24.2626 212.975 23.0534C212.975 21.8908 213.15 20.7512 213.498 19.6352C213.872 18.4957 214.431 17.4609 215.176 16.5307C215.945 15.6006 216.911 14.8681 218.075 14.3332C219.263 13.7751 220.66 13.4961 222.267 13.4961C223.968 13.4961 225.47 13.8681 226.774 14.6123C228.1 15.3564 229.138 16.4609 229.883 17.926C230.628 19.3676 231.001 21.1234 231.001 23.1929V24.4835H218.32C218.389 25.5998 218.774 26.5647 219.472 27.3786C220.194 28.1926 221.184 28.5995 222.442 28.5995C223.164 28.5995 223.747 28.4949 224.189 28.2855C224.654 28.0531 225.015 27.7972 225.272 27.5182C225.527 27.2158 225.703 26.9485 225.796 26.7159C225.889 26.4834 225.934 26.3672 225.934 26.3672H230.825C230.825 26.3672 230.768 26.588 230.651 27.0298C230.558 27.4483 230.349 27.9716 230.023 28.5995C229.697 29.2273 229.219 29.8552 228.59 30.4831C227.984 31.1109 227.181 31.6341 226.179 32.0526C225.178 32.4712 223.932 32.6805 222.442 32.6805ZM218.32 21.2744H225.901C225.83 19.9953 225.446 19.0419 224.747 18.4142C224.049 17.7863 223.187 17.4724 222.162 17.4724C221.138 17.4724 220.265 17.8094 219.542 18.4838C218.82 19.135 218.413 20.0652 218.32 21.2744Z" fill="url(#paint7_linear_1_10124)"/>
<path fill-rule="evenodd" clip-rule="evenodd" d="M16.0499 3.7959C7.18575 3.7959 0 10.9709 0 19.8216C0 28.6724 7.18575 35.8473 16.0499 35.8473C24.914 35.8473 37.1679 19.8216 37.1679 19.8216C37.1679 19.8216 24.914 3.7959 16.0499 3.7959ZM34.484 19.8216C32.7333 17.6614 30.7293 15.4974 28.4723 13.3296C23.3182 8.37952 19.1775 5.90451 16.0499 5.90451C12.1994 5.90451 8.9131 7.26364 6.1908 9.98186C3.46936 12.6992 2.10864 15.9791 2.10864 19.8216C2.10864 23.6641 3.46936 26.9441 6.1908 29.6614C8.91309 32.3795 12.1994 33.7387 16.0499 33.7387C19.1775 33.7387 23.3182 31.2636 28.4723 26.3138C30.7293 24.1458 32.7333 21.9818 34.484 19.8216Z" fill="url(#paint8_linear_1_10124)"/>
<path fill-rule="evenodd" clip-rule="evenodd" d="M23.6526 18.3452H8.44727V23.5114C8.44727 24.7342 9.46842 25.7255 10.7281 25.7255H21.3718C22.6315 25.7255 23.6526 24.7342 23.6526 23.5114V18.3452ZM14.9749 21.2976L15.0661 21.2083C15.3544 20.9189 15.3506 20.4586 15.0576 20.1737C14.7645 19.8888 14.2903 19.8845 13.9918 20.164L12.6013 21.5138C12.3045 21.802 12.3045 22.2692 12.6013 22.5574L13.9918 23.9065C14.1827 24.0984 14.4654 24.1753 14.7312 24.1078C14.997 24.0402 15.2046 23.8387 15.2742 23.5807C15.3437 23.3226 15.2645 23.0482 15.0668 22.8629L14.9749 22.7736H18.3306C18.7505 22.7736 19.0909 22.4432 19.0909 22.0356C19.0909 21.628 18.7505 21.2976 18.3306 21.2976H14.9749ZM10.7281 13.917C9.46842 13.917 8.44727 14.9083 8.44727 16.1311V16.8691H23.6526V16.1311C23.6526 14.9083 22.6315 13.917 21.3718 13.917H10.7281Z" fill="url(#paint9_linear_1_10124)"/>
</g>
<defs>
<linearGradient id="paint0_linear_1_10124" x1="92.7027" y1="-0.906399" x2="92.7027" y2="26.5098" gradientUnits="userSpaceOnUse">
<stop stop-color="white"/>
<stop offset="1" stop-color="white" stop-opacity="0.8"/>
</linearGradient>
<linearGradient id="paint1_linear_1_10124" x1="65.7596" y1="-8.23209" x2="65.7596" y2="19.1842" gradientUnits="userSpaceOnUse">
<stop stop-color="white"/>
<stop offset="1" stop-color="white" stop-opacity="0.8"/>
</linearGradient>
<linearGradient id="paint2_linear_1_10124" x1="43.2208" y1="-8.58083" x2="43.2208" y2="18.8354" gradientUnits="userSpaceOnUse">
<stop stop-color="white"/>
<stop offset="1" stop-color="white" stop-opacity="0.8"/>
</linearGradient>
<linearGradient id="paint3_linear_1_10124" x1="23.3825" y1="-8.23212" x2="23.3825" y2="19.1842" gradientUnits="userSpaceOnUse">
<stop stop-color="white"/>
<stop offset="1" stop-color="white" stop-opacity="0.8"/>
</linearGradient>
<linearGradient id="paint4_linear_1_10124" x1="4.48945" y1="-4.01017" x2="4.48945" y2="23.406" gradientUnits="userSpaceOnUse">
<stop stop-color="white"/>
<stop offset="1" stop-color="white" stop-opacity="0.8"/>
</linearGradient>
<linearGradient id="paint5_linear_1_10124" x1="-10.0946" y1="-1.25519" x2="-10.0946" y2="26.1611" gradientUnits="userSpaceOnUse">
<stop stop-color="white"/>
<stop offset="1" stop-color="white" stop-opacity="0.8"/>
</linearGradient>
<linearGradient id="paint6_linear_1_10124" x1="-47.3546" y1="-6.27224e-05" x2="-47.3546" y2="27.4162" gradientUnits="userSpaceOnUse">
<stop stop-color="white"/>
<stop offset="1" stop-color="white" stop-opacity="0.8"/>
</linearGradient>
<linearGradient id="paint7_linear_1_10124" x1="-74.6764" y1="-8.23126" x2="-74.6764" y2="19.185" gradientUnits="userSpaceOnUse">
<stop stop-color="white"/>
<stop offset="1" stop-color="white" stop-opacity="0.8"/>
</linearGradient>
<linearGradient id="paint8_linear_1_10124" x1="-2.05222" y1="2.19333" x2="40.3224" y2="6.7942" gradientUnits="userSpaceOnUse">
<stop stop-color="#A3DCAD"/>
<stop offset="0.504808" stop-color="#D2FFDA"/>
<stop offset="1" stop-color="#A3DCAD"/>
</linearGradient>
<linearGradient id="paint9_linear_1_10124" x1="7.60771" y1="13.3266" x2="24.8962" y2="15.4109" gradientUnits="userSpaceOnUse">
<stop stop-color="#A3DCAD"/>
<stop offset="0.504808" stop-color="#D2FFDA"/>
<stop offset="1" stop-color="#A3DCAD"/>
</linearGradient>
</defs>
</svg>
