<svg width="40" height="40" viewBox="0 0 40 40" fill="none" xmlns="http://www.w3.org/2000/svg">
<path d="M17.9375 28.375L17.875 28.3125C17.6875 28.125 17.4375 28.0625 17.1875 28.0625C16.875 28.0625 16.5 28.1875 16.3125 28.5L15.9375 29C15.75 29.25 15.6875 29.5625 15.6875 29.8125C15.6875 30.125 15.875 30.375 16.125 30.5625L16.1875 30.625C16.375 30.8125 16.625 30.875 16.875 30.875C17.25 30.875 17.5625 30.6875 17.75 30.4375L18.125 30C18.3125 29.75 18.375 29.5 18.375 29.1875C18.3125 28.8125 18.1875 28.5625 17.9375 28.375Z" fill="url(#paint0_linear_1_8286)"/>
<path d="M16.4999 24.875L16.4374 24.8125C16.2499 24.625 15.9999 24.5625 15.7499 24.5625C15.3749 24.5625 15.0624 24.6875 14.8749 25L12.9374 27.4375C12.5624 27.9375 12.6249 28.625 13.1249 29L13.1874 29.0625C13.3749 29.25 13.6249 29.3125 13.8749 29.3125C14.2499 29.3125 14.5624 29.125 14.7499 28.875L16.6874 26.4375C17.1249 26 16.9999 25.3125 16.4999 24.875Z" fill="url(#paint1_linear_1_8286)"/>
<path d="M13.0625 24.0625L13 24C12.75 23.8125 12.5 23.75 12.25 23.75C11.9375 23.75 11.5625 23.875 11.375 24.1875L10.8125 24.875L10.75 24.9375L10.5625 25.1875L10.3125 25.5C10.125 25.75 10.0625 26 10.0625 26.3125C10.125 26.625 10.25 26.875 10.5 27.0625L10.5625 27.125C10.75 27.3125 11 27.375 11.25 27.375C11.625 27.375 11.9375 27.1875 12.125 26.9375L13.1875 25.5625C13.625 25.125 13.5625 24.4375 13.0625 24.0625Z" fill="url(#paint2_linear_1_8286)"/>
<path d="M10.3125 23.5625C10.25 23.25 10.125 22.9375 9.875 22.8125C9.625 22.5625 9.375 22.5 9.125 22.5C8.75 22.5 8.4375 22.6875 8.1875 22.9375L7.9375 23.1875C7.75 23.4375 7.6875 23.75 7.6875 24.0625C7.75 24.375 7.875 24.6875 8.125 24.8125C8.3125 25 8.5625 25.0625 8.875 25.0625C9.25 25.0625 9.5625 24.875 9.8125 24.625L10.0625 24.3125C10.25 24.0625 10.3125 23.8125 10.3125 23.5625Z" fill="url(#paint3_linear_1_8286)"/>
<path d="M6.8125 9.125L0 16.9375L4.5 20L10.5 11.5625L6.8125 9.125Z" fill="url(#paint4_linear_1_8286)"/>
<path d="M32.6875 23.6875L25.4375 18.75L22.4375 18.6875C22.375 18.6875 22.3125 18.6875 22.25 18.625C21.1875 18.0625 20.4375 16.8125 20.0625 16.1875L20 16.0625H17.3125L17.25 16.1875C16.6875 18.5 14.8125 19.0625 14.0625 19.1875C14 19.1875 14 19.1875 13.9375 19.1875C13.75 19.1875 13.5625 19.125 13.4375 19C13.25 18.875 13.125 18.625 13.125 18.375V15C13.125 14.5 13.375 14.0625 13.75 13.75L15.375 12.5H14.9375C14.25 12.4375 13.5625 12.375 12.8125 12.375C12.3125 12.375 11.75 12.375 11.3125 12.4375H11.25L6.125 19.625L6.1875 19.75C6.75 20.625 7.375 21.375 7.9375 21.8125L8.0625 21.875L8.1875 21.8125C8.5 21.625 8.8125 21.5625 9.1875 21.5625C9.6875 21.5625 10.125 21.6875 10.5 22C10.8125 22.25 11 22.5625 11.1875 22.875L11.25 23.0625L11.4375 22.9375C11.625 22.8125 11.875 22.75 12.125 22.75H12.375C12.8125 22.75 13.3125 22.875 13.625 23.1875L13.6875 23.25C13.9375 23.4375 14.125 23.6875 14.25 24L14.375 24.25L14.5625 24.125C14.9375 23.8125 15.375 23.6875 15.875 23.6875C16.3125 23.6875 16.75 23.8125 17.125 24.125L17.1875 24.1875C18 24.875 18.1875 26.0625 17.5625 26.9375L17.375 27.1875L17.6875 27.25C18 27.3125 18.25 27.4375 18.5 27.625L18.5625 27.6875C19 28 19.25 28.5 19.3125 29.0625C19.3125 29.3125 19.3125 29.5625 19.25 29.8125L19.1875 29.9375L19.75 30.375C20 30.5625 20.3125 30.5625 20.4375 30.5625C20.8125 30.5625 21.1875 30.375 21.4375 30.0625C21.8125 29.5 21.6875 28.75 21.1875 28.375L20 27.625C19.875 27.5 19.75 27.3125 19.8125 27.125C19.8125 27.0625 19.875 27 19.875 26.9375C19.9375 26.8125 20.125 26.75 20.25 26.75C20.375 26.75 20.4375 26.75 20.5 26.8125L23.9375 29.25C24.125 29.375 24.4375 29.5 24.6875 29.5H24.9375C25.25 29.4375 25.5625 29.25 25.75 28.9375C25.9375 28.6875 26 28.3125 25.9375 28C25.875 27.6875 25.6875 27.375 25.4375 27.1875L25.375 27.125L22.1875 24.875C22.0625 24.8125 22 24.6875 22 24.5625C22 24.4375 22 24.3125 22.0625 24.25C22.125 24.125 22.3125 24.0625 22.4375 24.0625C22.5625 24.0625 22.625 24.0625 22.6875 24.125L27.5 27.5625C27.6875 27.6875 28 27.8125 28.25 27.8125H28.5C28.8125 27.75 29.125 27.5625 29.3125 27.25C29.6875 26.6875 29.5625 25.875 29 25.5L24 22C23.875 21.9375 23.8125 21.8125 23.8125 21.6875C23.8125 21.5625 23.8125 21.4375 23.875 21.375C23.9375 21.25 24.125 21.1875 24.25 21.1875H24.375C24.4375 21.1875 24.5 21.25 24.5625 21.25L29.5625 24.8125L31.125 25.9375C31.375 26.0625 31.625 26.1875 31.875 26.1875C32.3125 26.1875 32.6875 26 32.9375 25.625C33.0625 25.375 33.1875 25.125 33.1875 24.875C33.25 24.3125 33.0625 23.9375 32.6875 23.6875Z" fill="url(#paint5_linear_1_8286)"/>
<path d="M28.75 12.5C26.5625 12.25 24.5 12.125 22.5 12.125C20.625 12.125 18.75 12.25 17 12.4375H16.9375L14.375 14.5625C14.1875 14.6875 14.0625 14.875 14.0625 15.0625V18.3125L14.3125 18.25C15.1875 18 16.25 17.3125 16.5 15.5625C16.5625 15.3125 16.75 15.1875 16.9375 15.1875H20.3125C20.5 15.1875 20.6875 15.3125 20.75 15.4375C20.75 15.4375 21.5 17.0625 22.5625 17.75L22.625 17.8125L25.875 17.875L27.1875 18.8125L31.875 22.0625L32 22C32.5625 21.5 33.1875 20.8125 33.8125 19.8125L33.875 19.6875L28.8125 12.5H28.75Z" fill="url(#paint6_linear_1_8286)"/>
<path d="M33.125 9.125L29.4375 11.5625L34.875 19.1875L35.4375 20L39.9375 16.9375L33.125 9.125Z" fill="url(#paint7_linear_1_8286)"/>
<defs>
<linearGradient id="paint0_linear_1_8286" x1="15.5391" y1="27.9219" x2="18.6146" y2="28.197" gradientUnits="userSpaceOnUse">
<stop stop-color="#A3DCAD"/>
<stop offset="0.504808" stop-color="#D2FFDA"/>
<stop offset="1" stop-color="#A3DCAD"/>
</linearGradient>
<linearGradient id="paint1_linear_1_8286" x1="12.4612" y1="24.325" x2="17.3391" y2="24.7345" gradientUnits="userSpaceOnUse">
<stop stop-color="#A3DCAD"/>
<stop offset="0.504808" stop-color="#D2FFDA"/>
<stop offset="1" stop-color="#A3DCAD"/>
</linearGradient>
<linearGradient id="paint2_linear_1_8286" x1="9.8738" y1="23.5687" x2="13.7856" y2="23.914" gradientUnits="userSpaceOnUse">
<stop stop-color="#A3DCAD"/>
<stop offset="0.504808" stop-color="#D2FFDA"/>
<stop offset="1" stop-color="#A3DCAD"/>
</linearGradient>
<linearGradient id="paint3_linear_1_8286" x1="7.54256" y1="22.3719" x2="10.543" y2="22.6597" gradientUnits="userSpaceOnUse">
<stop stop-color="#A3DCAD"/>
<stop offset="0.504808" stop-color="#D2FFDA"/>
<stop offset="1" stop-color="#A3DCAD"/>
</linearGradient>
<linearGradient id="paint4_linear_1_8286" x1="-0.579755" y1="8.58125" x2="11.4341" y2="9.66731" gradientUnits="userSpaceOnUse">
<stop stop-color="#A3DCAD"/>
<stop offset="0.504808" stop-color="#D2FFDA"/>
<stop offset="1" stop-color="#A3DCAD"/>
</linearGradient>
<linearGradient id="paint5_linear_1_8286" x1="4.6301" y1="11.4656" x2="35.2659" y2="15.7356" gradientUnits="userSpaceOnUse">
<stop stop-color="#A3DCAD"/>
<stop offset="0.504808" stop-color="#D2FFDA"/>
<stop offset="1" stop-color="#A3DCAD"/>
</linearGradient>
<linearGradient id="paint6_linear_1_8286" x1="12.9686" y1="11.6281" x2="35.0532" y2="15.7507" gradientUnits="userSpaceOnUse">
<stop stop-color="#A3DCAD"/>
<stop offset="0.504808" stop-color="#D2FFDA"/>
<stop offset="1" stop-color="#A3DCAD"/>
</linearGradient>
<linearGradient id="paint7_linear_1_8286" x1="28.8577" y1="8.58125" x2="40.8716" y2="9.66731" gradientUnits="userSpaceOnUse">
<stop stop-color="#A3DCAD"/>
<stop offset="0.504808" stop-color="#D2FFDA"/>
<stop offset="1" stop-color="#A3DCAD"/>
</linearGradient>
</defs>
</svg>
