<?xml version="1.0" encoding="utf-8"?>
<svg width="18" height="24" viewBox="0 0 18 24" fill="none" stroke="none" version="1.1" xmlns:xlink="http://www.w3.org/1999/xlink" xmlns="http://www.w3.org/2000/svg">
  <path id="Фигура" d="M15 8C15 8 15 6 15 6C15 2.68629 12.3137 0 9 0C5.68628 0 3 2.68629 3 6C3 6 3 8 3 8C1.34521 8.00494 0.00494385 9.3452 0 11C0 11 0 18 0 18C0 21.3137 2.68628 24 6 24C6 24 12 24 12 24C15.3137 24 18 21.3137 18 18C18 18 18 11 18 11C17.995 9.34512 16.6547 8.00491 14.9999 8C14.9999 8 15 8 15 8ZM5 6C5 3.79086 6.79083 2 9 2C11.2092 2 13 3.79086 13 6C13 6 13 8 13 8L5 8C5 8 5 6 5 6ZM10 18C10 18.5523 9.55231 19 9 19C8.44769 19 8 18.5523 8 18C8 18 8 14 8 14C8 13.4477 8.44769 13 9 13C9.55231 13 10 13.4477 10 14C10 14 10 18 10 18Z" style="fill:#6b9071;mix-blend-mode:normal;" />
</svg>