<?xml version="1.0" encoding="utf-8"?>
<svg width="19" height="16" viewBox="0 0 19 16" fill="none" stroke="none" version="1.1" xmlns:xlink="http://www.w3.org/1999/xlink" xmlns="http://www.w3.org/2000/svg">
  <path id="Фигура" d="M16 0C17.1046 0 18 0.895431 18 2C18 2 18 3 18 3C18 3 12 3 12 3C9.23858 3 7 5.23858 7 8C7 10.7614 9.23858 13 12 13C12 13 18 13 18 13C18 13 18 14 18 14C18 15.1046 17.1046 16 16 16C16 16 2 16 2 16C0.89543 16 0 15.1046 0 14C0 14 0 2 0 2C0 0.895431 0.895431 0 2 0C2 0 16 0 16 0ZM17 5C18.1046 5 19 5.89543 19 7C19 7 19 9 19 9C19 10.1046 18.1046 11 17 11C17 11 12 11 12 11C10.3431 11 9 9.65685 9 8C9 6.34315 10.3431 5 12 5C12 5 17 5 17 5ZM12 7C11.4477 7 11 7.44772 11 8C11 8.55229 11.4477 9 12 9C12.5523 9 13 8.55229 13 8C13 7.44771 12.5523 7 12 7C12 7 12 7 12 7Z" style="fill:#6b9071;mix-blend-mode:normal;" />
</svg>