<?xml version="1.0" encoding="utf-8"?>
<svg width="20" height="18.988" viewBox="0 0 20 18.988" fill="none" stroke="none" version="1.1" xmlns:xlink="http://www.w3.org/1999/xlink" xmlns="http://www.w3.org/2000/svg">
  <path id="Фигура" d="M19 0C19.5523 0 20 0.447715 20 1C20 1.55228 19.5523 2 19 2C19 2 19 13 19 13C19 14.1046 18.1046 15 17 15C17 15 11.945 15 11.945 15C11.945 15 14.238 17.293 14.238 17.293C14.617 17.6854 14.6115 18.3091 14.2258 18.6948C13.8401 19.0805 13.2164 19.086 12.824 18.707C12.824 18.707 9.996 15.879 9.996 15.879C9.996 15.879 7.167 18.707 7.167 18.707C6.77462 19.086 6.15092 19.0805 5.76519 18.6948C5.37946 18.3091 5.37403 17.6854 5.753 17.293C5.753 17.293 8.046 15 8.046 15C8.046 15 3 15 3 15C1.89543 15 1 14.1046 1 13C1 13 1 2 1 2C0.447715 2 0 1.55228 0 1C0 0.447715 0.447715 0 1 0C1 0 19 0 19 0ZM14 4C13.493 4.00007 13.0663 4.37951 13.007 4.883C13.007 4.883 13 5 13 5C13 5 13 10 13 10C13.0006 10.5291 13.4132 10.9662 13.9414 10.9972C14.4696 11.0282 14.9305 10.6424 14.993 10.117C14.993 10.117 15 10 15 10C15 10 15 5 15 5C15 4.44772 14.5523 4 14 4C14 4 14 4 14 4ZM10 6C9.44771 6 9 6.44772 9 7C9 7 9 10 9 10C9 10.5523 9.44771 11 10 11C10.5523 11 11 10.5523 11 10C11 10 11 7 11 7C11 6.44771 10.5523 6 10 6C10 6 10 6 10 6ZM6 8C5.44772 8 5 8.44772 5 9C5 9 5 10 5 10C5 10.5523 5.44772 11 6 11C6.55228 11 7 10.5523 7 10C7 10 7 9 7 9C7 8.44771 6.55228 8 6 8C6 8 6 8 6 8Z" style="fill:#6b9071;mix-blend-mode:normal;" />
</svg>