<svg width="40" height="40" viewBox="0 0 40 40" fill="none" xmlns="http://www.w3.org/2000/svg">
<path d="M25.3372 22.0249L29.5935 18.2999C29.7656 18.1435 29.8888 17.9407 29.9484 17.7159C30.008 17.4912 30.0015 17.254 29.9295 17.0328C29.8576 16.8117 29.7233 16.6161 29.5428 16.4694C29.3624 16.3228 29.1434 16.2313 28.9122 16.2061L23.3247 15.7249L21.0997 10.5311C21.0046 10.319 20.8502 10.1388 20.655 10.0125C20.4598 9.88609 20.2323 9.81885 19.9997 9.81885C19.7672 9.81885 19.5397 9.88609 19.3445 10.0125C19.1493 10.1388 18.9949 10.319 18.8997 10.5311L16.7185 15.6936L11.0873 16.2061C10.8561 16.2313 10.6371 16.3227 10.4567 16.4694C10.2762 16.6161 10.1419 16.8117 10.07 17.0328C9.99804 17.254 9.99148 17.4912 10.0511 17.7159C10.1107 17.9407 10.234 18.1435 10.406 18.2999L14.6498 21.9686L13.3935 27.4811C13.3419 27.709 13.3581 27.947 13.4402 28.1657C13.5223 28.3844 13.6666 28.5743 13.8554 28.7119C14.0442 28.8495 14.2692 28.9288 14.5026 28.94C14.7359 28.9512 14.9674 28.8938 15.1685 28.7749L19.9997 25.8936L24.8309 28.7748C25.0325 28.8901 25.263 28.9446 25.4948 28.9319C25.7266 28.9191 25.9498 28.8395 26.1374 28.7028C26.325 28.566 26.4691 28.3779 26.5522 28.1612C26.6354 27.9444 26.654 27.7083 26.606 27.4811L25.3372 22.0249Z" fill="url(#paint0_linear_1_8047)"/>
<path d="M20 8.125C20.1658 8.125 20.3247 8.05915 20.4419 7.94194C20.5592 7.82473 20.625 7.66576 20.625 7.5V3.125C20.625 2.95924 20.5592 2.80027 20.4419 2.68306C20.3247 2.56585 20.1658 2.5 20 2.5C19.8342 2.5 19.6753 2.56585 19.5581 2.68306C19.4408 2.80027 19.375 2.95924 19.375 3.125V7.5C19.375 7.66576 19.4408 7.82473 19.5581 7.94194C19.6753 8.05915 19.8342 8.125 20 8.125Z" fill="url(#paint1_linear_1_8047)"/>
<path d="M14.6416 8.68967C14.673 8.76549 14.7191 8.83438 14.7772 8.89239C14.8353 8.9504 14.9042 8.99641 14.9801 9.02778C15.0559 9.05915 15.1372 9.07527 15.2193 9.07522C15.3014 9.07518 15.3827 9.05896 15.4585 9.0275C15.5343 8.99604 15.6032 8.94995 15.6612 8.89187C15.7193 8.83379 15.7653 8.76485 15.7966 8.68899C15.828 8.61313 15.8441 8.53183 15.8441 8.44974C15.844 8.36765 15.8278 8.28637 15.7964 8.21054L14.8399 5.90433C14.8086 5.82827 14.7626 5.75914 14.7046 5.70089C14.6465 5.64264 14.5775 5.59642 14.5016 5.56488C14.4256 5.53334 14.3442 5.5171 14.2619 5.51709C14.1797 5.51708 14.0982 5.5333 14.0223 5.56482C13.9463 5.59633 13.8773 5.64253 13.8192 5.70077C13.7611 5.759 13.7151 5.82812 13.6838 5.90417C13.6525 5.98022 13.6365 6.0617 13.6367 6.14395C13.6369 6.22619 13.6534 6.30758 13.6851 6.38346L14.6416 8.68967Z" fill="url(#paint2_linear_1_8047)"/>
<path d="M10.719 11.6033C10.8362 11.7205 10.9951 11.7863 11.1609 11.7863C11.3266 11.7863 11.4856 11.7205 11.6028 11.6033C11.72 11.4861 11.7858 11.3271 11.7858 11.1614C11.7858 10.9956 11.72 10.8367 11.6028 10.7195L8.50921 7.62591C8.39201 7.50871 8.23306 7.44287 8.06731 7.44287C7.90157 7.44287 7.74262 7.50871 7.62542 7.62591C7.50822 7.74311 7.44238 7.90206 7.44238 8.0678C7.44238 8.23355 7.50822 8.3925 7.62542 8.5097L10.719 11.6033Z" fill="url(#paint3_linear_1_8047)"/>
<path d="M5.90384 14.8399L8.21005 15.7964C8.28588 15.8278 8.36716 15.844 8.44925 15.8441C8.53134 15.8441 8.61264 15.828 8.6885 15.7966C8.76436 15.7653 8.8333 15.7193 8.89138 15.6612C8.94946 15.6032 8.99555 15.5343 9.02701 15.4585C9.05847 15.3827 9.07469 15.3014 9.07474 15.2193C9.07478 15.1372 9.05866 15.0559 9.02729 14.9801C8.99592 14.9042 8.94992 14.8353 8.8919 14.7772C8.83389 14.7191 8.765 14.673 8.68918 14.6416L6.38297 13.6851C6.30709 13.6534 6.2257 13.6369 6.14346 13.6367C6.06121 13.6365 5.97973 13.6525 5.90368 13.6838C5.82763 13.7151 5.75851 13.7611 5.70028 13.8192C5.64205 13.8773 5.59585 13.9463 5.56433 14.0223C5.53281 14.0982 5.51659 14.1797 5.5166 14.2619C5.51661 14.3442 5.53285 14.4256 5.56439 14.5016C5.59593 14.5775 5.64215 14.6465 5.7004 14.7046C5.75865 14.7626 5.82779 14.8086 5.90384 14.8399Z" fill="url(#paint4_linear_1_8047)"/>
<path d="M8.125 20C8.125 19.8342 8.05915 19.6753 7.94194 19.5581C7.82473 19.4408 7.66576 19.375 7.5 19.375H3.125C2.95924 19.375 2.80027 19.4408 2.68306 19.5581C2.56585 19.6753 2.5 19.8342 2.5 20C2.5 20.1658 2.56585 20.3247 2.68306 20.4419C2.80027 20.5592 2.95924 20.625 3.125 20.625H7.5C7.66576 20.625 7.82473 20.5592 7.94194 20.4419C8.05915 20.3247 8.125 20.1658 8.125 20Z" fill="url(#paint5_linear_1_8047)"/>
<path d="M9.02716 24.5424C8.96367 24.3893 8.84197 24.2677 8.68884 24.2043C8.5357 24.1409 8.36365 24.1409 8.21051 24.2043L5.9043 25.1601C5.75117 25.2236 5.62951 25.3452 5.5661 25.4984C5.50268 25.6515 5.50271 25.8236 5.56616 25.9768C5.62962 26.1299 5.75131 26.2515 5.90446 26.315C6.05761 26.3784 6.22968 26.3783 6.38281 26.3149L8.68903 25.3591C8.84213 25.2956 8.96376 25.1739 9.02716 25.0207C9.09057 24.8676 9.09057 24.6956 9.02716 24.5424Z" fill="url(#paint6_linear_1_8047)"/>
<path d="M10.719 28.3974L7.62542 31.4907C7.56739 31.5487 7.52136 31.6176 7.48995 31.6934C7.45855 31.7692 7.44238 31.8505 7.44238 31.9326C7.44238 32.0146 7.45855 32.0959 7.48995 32.1717C7.52136 32.2475 7.56739 32.3164 7.62542 32.3744C7.68345 32.4325 7.75234 32.4785 7.82816 32.5099C7.90398 32.5413 7.98525 32.5575 8.06731 32.5575C8.14938 32.5575 8.23065 32.5413 8.30647 32.5099C8.38229 32.4785 8.45118 32.4325 8.50921 32.3744L11.6028 29.2812C11.6608 29.2232 11.7068 29.1543 11.7382 29.0784C11.7697 29.0026 11.7858 28.9214 11.7858 28.8393C11.7858 28.7572 11.7697 28.676 11.7382 28.6001C11.7068 28.5243 11.6608 28.4554 11.6028 28.3974C11.5447 28.3394 11.4759 28.2933 11.4 28.2619C11.3242 28.2305 11.243 28.2144 11.1609 28.2144C11.0788 28.2144 10.9976 28.2305 10.9217 28.2619C10.8459 28.2933 10.777 28.3394 10.719 28.3974Z" fill="url(#paint7_linear_1_8047)"/>
<path d="M15.4582 30.9731C15.305 30.9099 15.133 30.91 14.9798 30.9734C14.8267 31.0368 14.7049 31.1583 14.6412 31.3112L13.6848 33.6172C13.6532 33.693 13.6369 33.7744 13.6367 33.8565C13.6366 33.9387 13.6527 34.0201 13.684 34.0961C13.7154 34.172 13.7614 34.2411 13.8195 34.2992C13.8776 34.3574 13.9465 34.4035 14.0225 34.4349C14.0984 34.4664 14.1798 34.4826 14.2619 34.4826C14.3441 34.4825 14.4255 34.4663 14.5014 34.4348C14.5773 34.4033 14.6462 34.3571 14.7043 34.2989C14.7623 34.2407 14.8083 34.1717 14.8396 34.0957L15.796 31.7898C15.8594 31.6367 15.8594 31.4647 15.7961 31.3115C15.7327 31.1584 15.6112 31.0367 15.4582 30.9731Z" fill="url(#paint8_linear_1_8047)"/>
<path d="M20 31.875C19.9179 31.875 19.8366 31.8911 19.7608 31.9225C19.685 31.9539 19.6161 32 19.558 32.058C19.5 32.1161 19.4539 32.185 19.4225 32.2608C19.3911 32.3366 19.375 32.4179 19.375 32.5V36.875C19.375 37.0408 19.4408 37.1997 19.5581 37.3169C19.6753 37.4342 19.8342 37.5 20 37.5C20.1658 37.5 20.3247 37.4342 20.4419 37.3169C20.5592 37.1997 20.625 37.0408 20.625 36.875V32.5C20.625 32.4179 20.6089 32.3366 20.5775 32.2608C20.5461 32.185 20.5 32.1161 20.442 32.058C20.3839 32 20.315 31.9539 20.2392 31.9225C20.1634 31.8911 20.0821 31.875 20 31.875Z" fill="url(#paint9_linear_1_8047)"/>
<path d="M25.3586 31.311C25.3272 31.2352 25.2812 31.1663 25.2231 31.1083C25.1651 31.0503 25.0962 31.0042 25.0204 30.9728C24.9445 30.9414 24.8632 30.9253 24.7812 30.9253C24.6991 30.9253 24.6178 30.9415 24.542 30.9729C24.4662 31.0043 24.3973 31.0504 24.3392 31.1084C24.2812 31.1665 24.2352 31.2354 24.2038 31.3112C24.1724 31.387 24.1562 31.4683 24.1563 31.5504C24.1563 31.6325 24.1724 31.7137 24.2039 31.7896L25.1603 34.0955C25.1916 34.1714 25.2376 34.2405 25.2956 34.2987C25.3536 34.3569 25.4226 34.403 25.4985 34.4346C25.5744 34.4661 25.6557 34.4823 25.7379 34.4823C25.8201 34.4824 25.9015 34.4662 25.9774 34.4347C26.0533 34.4033 26.1223 34.3571 26.1804 34.299C26.2384 34.2409 26.2845 34.1718 26.3158 34.0959C26.3472 34.0199 26.3633 33.9385 26.3631 33.8563C26.363 33.7741 26.3467 33.6928 26.3151 33.6169L25.3586 31.311Z" fill="url(#paint10_linear_1_8047)"/>
<path d="M29.2807 28.3974C29.2227 28.3394 29.1538 28.2933 29.078 28.2619C29.0021 28.2305 28.9209 28.2144 28.8388 28.2144C28.7567 28.2144 28.6755 28.2305 28.5996 28.2619C28.5238 28.2933 28.4549 28.3394 28.3969 28.3974C28.3389 28.4554 28.2928 28.5243 28.2614 28.6001C28.23 28.676 28.2139 28.7572 28.2139 28.8393C28.2139 28.9214 28.23 29.0026 28.2614 29.0784C28.2928 29.1543 28.3389 29.2232 28.3969 29.2812L31.4905 32.3744C31.5485 32.4325 31.6174 32.4785 31.6932 32.5099C31.769 32.5413 31.8503 32.5575 31.9324 32.5575C32.0144 32.5575 32.0957 32.5413 32.1715 32.5099C32.2473 32.4785 32.3162 32.4325 32.3743 32.3744C32.4323 32.3164 32.4783 32.2475 32.5097 32.1717C32.5411 32.0959 32.5573 32.0146 32.5573 31.9326C32.5573 31.8505 32.5411 31.7692 32.5097 31.6934C32.4783 31.6176 32.4323 31.5487 32.3743 31.4907L29.2807 28.3974Z" fill="url(#paint11_linear_1_8047)"/>
<path d="M34.0953 25.1597L31.7891 24.2039C31.7132 24.1724 31.632 24.1563 31.5499 24.1563C31.4678 24.1562 31.3865 24.1724 31.3107 24.2038C31.2349 24.2352 31.166 24.2812 31.1079 24.3392C31.0499 24.3973 31.0038 24.4662 30.9724 24.542C30.941 24.6178 30.9248 24.6991 30.9248 24.7812C30.9248 24.8632 30.9409 24.9445 30.9723 25.0204C31.0037 25.0962 31.0498 25.1651 31.1078 25.2231C31.1658 25.2812 31.2347 25.3272 31.3106 25.3586L33.6168 26.3145C33.7699 26.3779 33.942 26.3779 34.0951 26.3145C34.2483 26.2511 34.37 26.1295 34.4334 25.9763C34.4969 25.8232 34.4969 25.6511 34.4335 25.498C34.3701 25.3448 34.2484 25.2231 34.0953 25.1597Z" fill="url(#paint12_linear_1_8047)"/>
<path d="M36.875 19.375H32.5C32.3342 19.375 32.1753 19.4408 32.0581 19.5581C31.9408 19.6753 31.875 19.8342 31.875 20C31.875 20.1658 31.9408 20.3247 32.0581 20.4419C32.1753 20.5592 32.3342 20.625 32.5 20.625H36.875C37.0408 20.625 37.1997 20.5592 37.3169 20.4419C37.4342 20.3247 37.5 20.1658 37.5 20C37.5 19.8342 37.4342 19.6753 37.3169 19.5581C37.1997 19.4408 37.0408 19.375 36.875 19.375Z" fill="url(#paint13_linear_1_8047)"/>
<path d="M30.9724 15.4585C31.0038 15.5344 31.0498 15.6033 31.1079 15.6614C31.166 15.7195 31.2349 15.7655 31.3108 15.7969C31.3867 15.8282 31.468 15.8444 31.5501 15.8443C31.6323 15.8442 31.7135 15.8279 31.7894 15.7964L34.0956 14.8399C34.1716 14.8086 34.2408 14.7626 34.299 14.7046C34.3573 14.6465 34.4035 14.5775 34.435 14.5016C34.4666 14.4256 34.4828 14.3442 34.4828 14.2619C34.4828 14.1797 34.4666 14.0982 34.4351 14.0223C34.4036 13.9463 34.3574 13.8773 34.2991 13.8192C34.2409 13.7611 34.1718 13.7151 34.0957 13.6838C34.0197 13.6525 33.9382 13.6365 33.856 13.6367C33.7737 13.6369 33.6923 13.6534 33.6164 13.6851L31.3102 14.6416C31.1572 14.7052 31.0356 14.827 30.9723 14.9801C30.9089 15.1333 30.909 15.3054 30.9724 15.4585Z" fill="url(#paint14_linear_1_8047)"/>
<path d="M28.8388 11.7864C28.9209 11.7865 29.0022 11.7704 29.078 11.7389C29.1538 11.7075 29.2227 11.6614 29.2806 11.6033L32.3742 8.5097C32.4322 8.45167 32.4783 8.38277 32.5097 8.30695C32.5411 8.23113 32.5573 8.14987 32.5573 8.0678C32.5573 7.98574 32.5411 7.90447 32.5097 7.82865C32.4783 7.75283 32.4322 7.68394 32.3742 7.62591C32.3162 7.56788 32.2473 7.52185 32.1715 7.49044C32.0957 7.45904 32.0144 7.44287 31.9323 7.44287C31.8503 7.44287 31.769 7.45904 31.6932 7.49044C31.6174 7.52185 31.5485 7.56788 31.4904 7.62591L28.3969 10.7195C28.3095 10.8069 28.25 10.9182 28.2259 11.0395C28.2018 11.1607 28.2141 11.2863 28.2614 11.4005C28.3087 11.5147 28.3888 11.6123 28.4916 11.681C28.5943 11.7497 28.7152 11.7864 28.8388 11.7864Z" fill="url(#paint15_linear_1_8047)"/>
<path d="M24.5417 9.0275C24.6175 9.05904 24.6988 9.07532 24.7809 9.07541C24.863 9.0755 24.9443 9.0594 25.0202 9.02802C25.0961 8.99664 25.1651 8.9506 25.2231 8.89254C25.2812 8.83448 25.3272 8.76554 25.3586 8.68967L26.3151 6.38346C26.3468 6.30758 26.3632 6.22619 26.3635 6.14395C26.3637 6.0617 26.3477 5.98022 26.3164 5.90417C26.2851 5.82812 26.239 5.759 26.181 5.70077C26.1229 5.64253 26.0539 5.59633 25.9779 5.56482C25.902 5.5333 25.8205 5.51708 25.7383 5.51709C25.656 5.5171 25.5746 5.53334 25.4986 5.56488C25.4227 5.59642 25.3537 5.64264 25.2956 5.70089C25.2376 5.75914 25.1916 5.82827 25.1603 5.90433L24.2038 8.21054C24.1404 8.36369 24.1404 8.53574 24.2037 8.68892C24.2671 8.8421 24.3886 8.96387 24.5417 9.0275Z" fill="url(#paint16_linear_1_8047)"/>
<defs>
<linearGradient id="paint0_linear_1_8047" x1="8.90766" y1="8.86272" x2="31.7344" y2="11.0956" gradientUnits="userSpaceOnUse">
<stop stop-color="#A3DCAD"/>
<stop offset="0.504808" stop-color="#D2FFDA"/>
<stop offset="1" stop-color="#A3DCAD"/>
</linearGradient>
<linearGradient id="paint1_linear_1_8047" x1="19.306" y1="2.21875" x2="20.7473" y2="2.24874" gradientUnits="userSpaceOnUse">
<stop stop-color="#A3DCAD"/>
<stop offset="0.504808" stop-color="#D2FFDA"/>
<stop offset="1" stop-color="#A3DCAD"/>
</linearGradient>
<linearGradient id="paint2_linear_1_8047" x1="13.5148" y1="5.33918" x2="16.0525" y2="5.48658" gradientUnits="userSpaceOnUse">
<stop stop-color="#A3DCAD"/>
<stop offset="0.504808" stop-color="#D2FFDA"/>
<stop offset="1" stop-color="#A3DCAD"/>
</linearGradient>
<linearGradient id="paint3_linear_1_8047" x1="7.20256" y1="7.2257" x2="12.1693" y2="7.69073" gradientUnits="userSpaceOnUse">
<stop stop-color="#A3DCAD"/>
<stop offset="0.504808" stop-color="#D2FFDA"/>
<stop offset="1" stop-color="#A3DCAD"/>
</linearGradient>
<linearGradient id="paint4_linear_1_8047" x1="5.32014" y1="13.5264" x2="9.33313" y2="14.132" gradientUnits="userSpaceOnUse">
<stop stop-color="#A3DCAD"/>
<stop offset="0.504808" stop-color="#D2FFDA"/>
<stop offset="1" stop-color="#A3DCAD"/>
</linearGradient>
<linearGradient id="paint5_linear_1_8047" x1="2.18942" y1="19.3125" x2="7.69979" y2="21.6342" gradientUnits="userSpaceOnUse">
<stop stop-color="#A3DCAD"/>
<stop offset="0.504808" stop-color="#D2FFDA"/>
<stop offset="1" stop-color="#A3DCAD"/>
</linearGradient>
<linearGradient id="paint6_linear_1_8047" x1="5.3222" y1="24.0465" x2="9.33294" y2="24.6519" gradientUnits="userSpaceOnUse">
<stop stop-color="#A3DCAD"/>
<stop offset="0.504808" stop-color="#D2FFDA"/>
<stop offset="1" stop-color="#A3DCAD"/>
</linearGradient>
<linearGradient id="paint7_linear_1_8047" x1="7.20256" y1="27.9972" x2="12.1693" y2="28.4623" gradientUnits="userSpaceOnUse">
<stop stop-color="#A3DCAD"/>
<stop offset="0.504808" stop-color="#D2FFDA"/>
<stop offset="1" stop-color="#A3DCAD"/>
</linearGradient>
<linearGradient id="paint8_linear_1_8047" x1="13.5149" y1="30.7479" x2="16.052" y2="30.8953" gradientUnits="userSpaceOnUse">
<stop stop-color="#A3DCAD"/>
<stop offset="0.504808" stop-color="#D2FFDA"/>
<stop offset="1" stop-color="#A3DCAD"/>
</linearGradient>
<linearGradient id="paint9_linear_1_8047" x1="19.306" y1="31.5937" x2="20.7473" y2="31.6237" gradientUnits="userSpaceOnUse">
<stop stop-color="#A3DCAD"/>
<stop offset="0.504808" stop-color="#D2FFDA"/>
<stop offset="1" stop-color="#A3DCAD"/>
</linearGradient>
<linearGradient id="paint10_linear_1_8047" x1="24.0344" y1="30.7474" x2="26.5715" y2="30.8948" gradientUnits="userSpaceOnUse">
<stop stop-color="#A3DCAD"/>
<stop offset="0.504808" stop-color="#D2FFDA"/>
<stop offset="1" stop-color="#A3DCAD"/>
</linearGradient>
<linearGradient id="paint11_linear_1_8047" x1="27.974" y1="27.9972" x2="32.9408" y2="28.4623" gradientUnits="userSpaceOnUse">
<stop stop-color="#A3DCAD"/>
<stop offset="0.504808" stop-color="#D2FFDA"/>
<stop offset="1" stop-color="#A3DCAD"/>
</linearGradient>
<linearGradient id="paint12_linear_1_8047" x1="30.7284" y1="24.046" x2="34.7392" y2="24.6514" gradientUnits="userSpaceOnUse">
<stop stop-color="#A3DCAD"/>
<stop offset="0.504808" stop-color="#D2FFDA"/>
<stop offset="1" stop-color="#A3DCAD"/>
</linearGradient>
<linearGradient id="paint13_linear_1_8047" x1="31.5644" y1="19.3125" x2="37.0748" y2="21.6342" gradientUnits="userSpaceOnUse">
<stop stop-color="#A3DCAD"/>
<stop offset="0.504808" stop-color="#D2FFDA"/>
<stop offset="1" stop-color="#A3DCAD"/>
</linearGradient>
<linearGradient id="paint14_linear_1_8047" x1="30.7284" y1="13.5263" x2="34.7412" y2="14.1319" gradientUnits="userSpaceOnUse">
<stop stop-color="#A3DCAD"/>
<stop offset="0.504808" stop-color="#D2FFDA"/>
<stop offset="1" stop-color="#A3DCAD"/>
</linearGradient>
<linearGradient id="paint15_linear_1_8047" x1="27.974" y1="7.2257" x2="32.9407" y2="7.69071" gradientUnits="userSpaceOnUse">
<stop stop-color="#A3DCAD"/>
<stop offset="0.504808" stop-color="#D2FFDA"/>
<stop offset="1" stop-color="#A3DCAD"/>
</linearGradient>
<linearGradient id="paint16_linear_1_8047" x1="24.0344" y1="5.33917" x2="26.5719" y2="5.48655" gradientUnits="userSpaceOnUse">
<stop stop-color="#A3DCAD"/>
<stop offset="0.504808" stop-color="#D2FFDA"/>
<stop offset="1" stop-color="#A3DCAD"/>
</linearGradient>
</defs>
</svg>
