<svg width="38" height="38" viewBox="0 0 38 38" fill="none" xmlns="http://www.w3.org/2000/svg">
<path d="M36.8368 5.79198L35.1814 3.68351C34.995 3.4232 34.7528 3.2078 34.4725 3.05303C34.1923 2.89826 33.881 2.80804 33.5614 2.78894L22.0118 2.04564C21.409 2.00422 20.809 2.15918 20.3016 2.48731C19.7942 2.81543 19.4068 3.29908 19.1973 3.86582L16.6943 10.5484C15.8362 10.928 15.0293 11.4141 14.2925 11.9951C12.6689 13.27 11.4718 14.8948 10.9218 16.5704C10.3572 18.2904 10.5372 19.8629 11.4286 20.9982L12.3438 22.1638L8.92149 31.3009C8.801 31.6181 8.75723 31.9593 8.79375 32.2967C8.83026 32.6341 8.94603 32.958 9.1316 33.2421C9.18414 33.323 9.24189 33.4004 9.30447 33.4738L11.0028 35.6367C11.2472 35.9478 11.5545 36.2038 11.9045 36.3881C12.2545 36.5724 12.6395 36.6809 13.0342 36.7066L24.2953 37.4313C24.3576 37.4353 24.4195 37.4373 24.481 37.4373C25.0535 37.4387 25.6126 37.2643 26.0827 36.9377C26.5529 36.6111 26.9114 36.148 27.1098 35.6111L37.2586 8.51537C37.4263 8.06312 37.4756 7.5755 37.4017 7.09885C37.3279 6.62219 37.1335 6.17232 36.8368 5.79198ZM13.8428 18.7577L15.7399 14.0896C15.7604 14.0392 15.7937 13.995 15.8364 13.9615C15.8792 13.9279 15.93 13.906 15.9838 13.8981L20.9688 13.1626C21.0233 13.1546 21.0789 13.1611 21.1301 13.1815C21.1813 13.2019 21.2261 13.2354 21.2602 13.2788C21.2942 13.3221 21.3161 13.3737 21.3238 13.4282C21.3315 13.4828 21.3246 13.5384 21.3039 13.5894L19.4067 18.2575C19.3862 18.3079 19.353 18.3521 19.3102 18.3857C19.2674 18.4193 19.2166 18.4411 19.1628 18.449L14.1779 19.1845C14.1234 19.1926 14.0677 19.186 14.0165 19.1656C13.9654 19.1452 13.9205 19.1117 13.8865 19.0684C13.8525 19.025 13.8305 18.9735 13.8228 18.9189C13.8151 18.8644 13.822 18.8088 13.8428 18.7577ZM24.5207 13.3833L25.5423 14.6844C26.2917 15.6388 26.4163 16.9486 26.0153 18.323L24.1601 15.9601C24.1819 15.899 24.2047 15.838 24.2248 15.7768C24.5022 14.9317 24.5988 14.1227 24.5207 13.3833ZM25.7677 19.0196C25.5051 19.6441 25.1685 20.2347 24.765 20.7788L22.8481 18.3375C23.2554 17.8059 23.604 17.2319 23.8878 16.6253L25.7677 19.0196ZM24.3669 21.2838C23.9604 21.7657 23.5118 22.2104 23.0265 22.6129L21.0967 20.155C21.5821 19.7537 22.0331 19.3125 22.445 18.836L24.3669 21.2838ZM16.5145 22.4154C17.1709 22.2836 17.8112 22.0811 18.4242 21.8115L20.3403 24.2519C19.7157 24.5149 19.0616 24.7013 18.3922 24.8069L16.5145 22.4154ZM17.6547 24.8797C16.1667 24.9448 14.9584 24.4817 14.236 23.5617L13.2151 22.2614C13.8094 22.4675 14.4348 22.5694 15.0638 22.5626C15.2421 22.5626 15.4241 22.5554 15.6097 22.541C15.6741 22.536 15.7388 22.5285 15.8034 22.5218L17.6547 24.8797ZM19.0033 21.537C19.564 21.2502 20.0998 20.917 20.6051 20.541L22.535 22.9989C22.0288 23.3748 21.4903 23.7049 20.9257 23.9854L19.0033 21.537ZM9.50678 31.5201L12.7956 22.7393L13.7444 23.9477C14.5442 24.9663 15.8217 25.5121 17.3796 25.5121C17.558 25.5121 17.74 25.5049 17.9255 25.4905C19.6837 25.3537 21.5462 24.5763 23.1699 23.3015C24.7935 22.0267 25.9906 20.4018 26.5406 18.7262C27.1052 17.0062 26.9253 15.4337 26.0339 14.2984L23.7181 11.3489C22.8267 10.2137 21.3418 9.66588 19.5369 9.80615C18.8344 9.86504 18.1421 10.0118 17.4762 10.2429L19.7826 4.08502C19.9455 3.64419 20.2468 3.26801 20.6415 3.0128C21.0361 2.75759 21.5028 2.63709 21.9716 2.66935L23.2823 2.75369L22.307 5.35768C22.2898 5.40336 22.2837 5.45242 22.2889 5.50093C22.2942 5.54943 22.3107 5.59603 22.3372 5.63699C22.3637 5.67796 22.3994 5.71215 22.4415 5.73683C22.4836 5.76151 22.5309 5.776 22.5796 5.77912L30.9779 6.31963C30.9847 6.32009 30.9914 6.32028 30.9981 6.32028C31.0617 6.32025 31.1238 6.30082 31.1761 6.26457C31.2283 6.22832 31.2683 6.17698 31.2906 6.11741L32.3325 3.33613L33.5212 3.41264C33.7261 3.42492 33.9264 3.47829 34.1102 3.56956C34.294 3.66084 34.4576 3.78816 34.5912 3.94394L34.6798 4.05681C34.6938 4.07638 34.7077 4.096 34.7208 4.11634C34.853 4.31868 34.9354 4.54941 34.9615 4.78969C34.9875 5.02997 34.9563 5.273 34.8705 5.49893L24.5947 32.934C24.4317 33.3748 24.1304 33.751 23.7358 34.0062C23.3411 34.2614 22.8745 34.3819 22.4056 34.3497L10.856 33.6064C10.6512 33.5941 10.4509 33.5408 10.2672 33.4495C10.0834 33.3583 9.91984 33.231 9.78623 33.0753L9.78487 33.0736L9.78478 33.0737C9.73819 33.0196 9.69531 32.9625 9.65643 32.9027C9.52425 32.7003 9.4418 32.4696 9.41579 32.2293C9.38978 31.9891 9.42096 31.746 9.50678 31.5201Z" fill="url(#paint0_linear_1_9871)"/>
<path d="M27.6511 14.0985L28.2367 14.3169L30.3462 8.66053C30.3632 8.61485 30.3694 8.56582 30.3641 8.51736C30.3588 8.46889 30.3422 8.42234 30.3157 8.38142C30.2892 8.3405 30.2535 8.30635 30.2114 8.2817C30.1693 8.25706 30.1221 8.24259 30.0734 8.23946L21.8995 7.71338L21.8594 8.33708L29.6136 8.83616L27.6511 14.0985Z" fill="url(#paint1_linear_1_9871)"/>
<path d="M13.6133 28.3105L13.6533 27.6868L15.0318 27.7752L14.9918 28.399L13.6133 28.3105Z" fill="url(#paint2_linear_1_9871)"/>
<path d="M16.666 28.5078L16.706 27.8841L23.4018 28.3135L23.3618 28.9372L16.666 28.5078Z" fill="url(#paint3_linear_1_9871)"/>
<path d="M12.4395 31.1421L12.4795 30.5183L13.858 30.6067L13.818 31.2305L12.4395 31.1421Z" fill="url(#paint4_linear_1_9871)"/>
<path d="M15.2441 31.3223L15.2841 30.6985L22.7677 31.1784L22.7277 31.8022L15.2441 31.3223Z" fill="url(#paint5_linear_1_9871)"/>
<path d="M9.8821 22.9877L10.2877 22.5122C10.0422 22.3026 9.82107 22.0662 9.6283 21.8074C9.05022 21.0314 8.73551 20.0827 8.6929 18.9878L8.06836 19.0121C8.11597 20.2355 8.47218 21.3016 9.12713 22.1808C9.34785 22.4771 9.60109 22.7478 9.8821 22.9877Z" fill="url(#paint6_linear_1_9871)"/>
<path d="M8.13086 17.709L8.75044 17.791C8.80541 17.3835 8.8895 16.9805 9.00206 16.585L8.40063 16.415C8.2799 16.8394 8.18974 17.2718 8.13086 17.709Z" fill="url(#paint7_linear_1_9871)"/>
<path d="M15.1309 7.69187L15.745 7.80769C16.0574 6.151 16.0692 4.59438 15.7791 3.30615L15.1694 3.44341C15.4409 4.64919 15.4276 6.11827 15.1309 7.69187Z" fill="url(#paint8_linear_1_9871)"/>
<path d="M14.7704 2.25834L15.3355 1.99139C15.072 1.41242 14.6845 0.898444 14.2003 0.48584L13.8008 0.966416C14.2147 1.3209 14.5457 1.76192 14.7704 2.25834Z" fill="url(#paint9_linear_1_9871)"/>
<path d="M16.8894 16.8065C16.8489 16.775 16.8167 16.7341 16.7958 16.6872L16.0425 15.0034L14.627 18.4865L18.3464 17.9377L16.8894 16.8065Z" fill="url(#paint10_linear_1_9871)"/>
<path d="M18.9823 17.6401L20.5183 13.8608L16.4824 14.4563L17.3344 16.3607L18.9823 17.6401Z" fill="url(#paint11_linear_1_9871)"/>
<path d="M11.8466 10.5553C12.7266 8.88522 13.199 7.12264 13.177 5.5923C13.1539 3.99371 12.5949 2.82546 11.6029 2.30281L8.83887 0.846447L8.83819 0.846051C7.84618 0.323361 6.56654 0.522832 5.23498 1.40769C3.96026 2.25478 2.77363 3.64104 1.89361 5.31115C1.01364 6.98131 0.541192 8.74389 0.563238 10.2742C0.586279 11.8728 1.14528 13.0411 2.1373 13.5638L4.902 15.0205C5.2695 15.2119 5.67845 15.3099 6.09279 15.306C6.83586 15.306 7.6601 15.0204 8.50525 14.4588C9.77997 13.6117 10.9666 12.2254 11.8466 10.5553ZM11.3115 2.85575C12.0919 3.2669 12.5325 4.24193 12.552 5.6013C12.5549 5.8413 12.5455 6.0813 12.524 6.32036L10.3547 5.17738C10.3968 4.83176 10.4161 4.48373 10.4123 4.13558C10.4014 3.37935 10.2691 2.72094 10.0292 2.18011L11.3115 2.85575ZM10.254 5.83074L12.4386 6.98181C12.2513 8.02629 11.9135 9.03808 11.4357 9.98558L9.22387 8.82019C9.70024 7.87462 10.0467 6.86905 10.254 5.83074ZM8.93251 9.37317L11.1443 10.5386C10.633 11.4684 9.98945 12.3191 9.23387 13.0642L7.04922 11.9131C7.78845 11.1551 8.42194 10.3007 8.93251 9.37317ZM3.20103 8.3404C3.19215 8.29446 3.19369 8.24711 3.20555 8.20184C3.21741 8.15658 3.23928 8.11455 3.26954 8.07887L5.08859 5.93491L4.26593 5.50147L4.5573 4.94853L5.50281 5.4467L6.99749 3.68506L7.4741 4.08942L6.06927 5.74516L7.32201 6.40521L7.03064 6.95815L5.65505 6.23337L3.99818 8.18618L6.41823 9.46128L6.12686 10.0143L3.36216 8.5575C3.32076 8.53569 3.28478 8.50486 3.2569 8.46728C3.22901 8.42971 3.20991 8.38635 3.20103 8.3404ZM5.19337 14.4675L3.91335 13.7931C4.4943 13.6848 5.1116 13.4201 5.74055 13.0021C6.02985 12.8084 6.30603 12.5958 6.56728 12.3657L8.73658 13.5086C8.55154 13.6615 8.35888 13.8049 8.15933 13.9383C7.02698 14.6907 5.97363 14.8787 5.19337 14.4675Z" fill="url(#paint12_linear_1_9871)"/>
<defs>
<linearGradient id="paint0_linear_1_9871" x1="7.19914" y1="0.26915" x2="40.0633" y2="2.75993" gradientUnits="userSpaceOnUse">
<stop stop-color="#A3DCAD"/>
<stop offset="0.504808" stop-color="#D2FFDA"/>
<stop offset="1" stop-color="#A3DCAD"/>
</linearGradient>
<linearGradient id="paint1_linear_1_9871" x1="21.3897" y1="7.3832" x2="31.0615" y2="8.54974" gradientUnits="userSpaceOnUse">
<stop stop-color="#A3DCAD"/>
<stop offset="0.504808" stop-color="#D2FFDA"/>
<stop offset="1" stop-color="#A3DCAD"/>
</linearGradient>
<linearGradient id="paint2_linear_1_9871" x1="13.5421" y1="28.3406" x2="13.6186" y2="27.6243" gradientUnits="userSpaceOnUse">
<stop stop-color="#A3DCAD"/>
<stop offset="0.504808" stop-color="#D2FFDA"/>
<stop offset="1" stop-color="#A3DCAD"/>
</linearGradient>
<linearGradient id="paint3_linear_1_9871" x1="16.329" y1="28.5208" x2="16.3814" y2="27.8017" gradientUnits="userSpaceOnUse">
<stop stop-color="#A3DCAD"/>
<stop offset="0.504808" stop-color="#D2FFDA"/>
<stop offset="1" stop-color="#A3DCAD"/>
</linearGradient>
<linearGradient id="paint4_linear_1_9871" x1="12.3683" y1="31.1721" x2="12.4448" y2="30.4558" gradientUnits="userSpaceOnUse">
<stop stop-color="#A3DCAD"/>
<stop offset="0.504808" stop-color="#D2FFDA"/>
<stop offset="1" stop-color="#A3DCAD"/>
</linearGradient>
<linearGradient id="paint5_linear_1_9871" x1="14.8678" y1="31.3327" x2="14.9195" y2="30.6136" gradientUnits="userSpaceOnUse">
<stop stop-color="#A3DCAD"/>
<stop offset="0.504808" stop-color="#D2FFDA"/>
<stop offset="1" stop-color="#A3DCAD"/>
</linearGradient>
<linearGradient id="paint6_linear_1_9871" x1="7.94582" y1="18.7878" x2="10.499" y2="18.9204" gradientUnits="userSpaceOnUse">
<stop stop-color="#A3DCAD"/>
<stop offset="0.504808" stop-color="#D2FFDA"/>
<stop offset="1" stop-color="#A3DCAD"/>
</linearGradient>
<linearGradient id="paint7_linear_1_9871" x1="8.08276" y1="16.3462" x2="9.08419" y2="16.4056" gradientUnits="userSpaceOnUse">
<stop stop-color="#A3DCAD"/>
<stop offset="0.504808" stop-color="#D2FFDA"/>
<stop offset="1" stop-color="#A3DCAD"/>
</linearGradient>
<linearGradient id="paint8_linear_1_9871" x1="15.0835" y1="3.08108" x2="16.0723" y2="3.09871" gradientUnits="userSpaceOnUse">
<stop stop-color="#A3DCAD"/>
<stop offset="0.504808" stop-color="#D2FFDA"/>
<stop offset="1" stop-color="#A3DCAD"/>
</linearGradient>
<linearGradient id="paint9_linear_1_9871" x1="13.716" y1="0.397215" x2="15.4749" y2="0.539806" gradientUnits="userSpaceOnUse">
<stop stop-color="#A3DCAD"/>
<stop offset="0.504808" stop-color="#D2FFDA"/>
<stop offset="1" stop-color="#A3DCAD"/>
</linearGradient>
<linearGradient id="paint10_linear_1_9871" x1="14.4216" y1="14.8293" x2="18.6696" y2="15.254" gradientUnits="userSpaceOnUse">
<stop stop-color="#A3DCAD"/>
<stop offset="0.504808" stop-color="#D2FFDA"/>
<stop offset="1" stop-color="#A3DCAD"/>
</linearGradient>
<linearGradient id="paint11_linear_1_9871" x1="16.2596" y1="13.6719" x2="20.869" y2="14.1327" gradientUnits="userSpaceOnUse">
<stop stop-color="#A3DCAD"/>
<stop offset="0.504808" stop-color="#D2FFDA"/>
<stop offset="1" stop-color="#A3DCAD"/>
</linearGradient>
<linearGradient id="paint12_linear_1_9871" x1="-0.134046" y1="-0.17673" x2="14.3252" y2="0.981493" gradientUnits="userSpaceOnUse">
<stop stop-color="#A3DCAD"/>
<stop offset="0.504808" stop-color="#D2FFDA"/>
<stop offset="1" stop-color="#A3DCAD"/>
</linearGradient>
</defs>
</svg>
