<svg width="185" height="27" viewBox="0 0 185 27" fill="none" xmlns="http://www.w3.org/2000/svg">
<path fill-rule="evenodd" clip-rule="evenodd" d="M46.7987 24.5765C45.0828 24.5765 43.5814 24.2787 42.2944 23.6827C41.0261 23.0682 39.963 22.2581 39.1051 21.2523C38.2471 20.2282 37.6037 19.0828 37.1747 17.8164C36.7457 16.5501 36.5312 15.2557 36.5312 13.9335C36.5312 12.6299 36.7457 11.3448 37.1747 10.0785C37.6037 8.8121 38.2471 7.6761 39.1051 6.67043C39.963 5.64616 41.0261 4.83606 42.2944 4.24011C43.5814 3.64417 45.0828 3.34619 46.7987 3.34619C48.2349 3.34619 49.4566 3.53243 50.4636 3.9049C51.4895 4.25873 52.338 4.72432 53.0096 5.30164C53.6995 5.86033 54.2499 6.46559 54.6601 7.11739C55.0892 7.7506 55.4062 8.35584 55.6114 8.93315C55.8165 9.49185 55.9471 9.95744 56.003 10.3299C56.0776 10.6838 56.115 10.8606 56.115 10.8606H51.8344C51.8344 10.8606 51.7972 10.7396 51.7226 10.4975C51.6667 10.2368 51.5455 9.92949 51.3589 9.57567C51.1724 9.20321 50.8927 8.84005 50.5196 8.48621C50.1653 8.13236 49.6803 7.83439 49.0649 7.59229C48.468 7.33156 47.7219 7.20121 46.8267 7.20121C45.5398 7.20121 44.4579 7.5364 43.5814 8.20686C42.7233 8.85866 42.0707 9.69672 41.623 10.721C41.194 11.7453 40.9796 12.8161 40.9796 13.9335C40.9796 15.0509 41.194 16.131 41.623 17.174C42.0707 18.1981 42.7233 19.0455 43.5814 19.716C44.4579 20.3679 45.5398 20.6936 46.8267 20.6936C47.7219 20.6936 48.468 20.5728 49.0649 20.3305C49.6803 20.0884 50.1653 19.7905 50.5196 19.4366C50.8927 19.0642 51.1724 18.7011 51.3589 18.3472C51.5455 17.9748 51.6667 17.6675 51.7226 17.4254C51.7972 17.1833 51.8344 17.0622 51.8344 17.0622H56.115C56.115 17.0622 56.0776 17.2484 56.003 17.6209C55.9471 17.9748 55.8165 18.4402 55.6114 19.0177C55.4062 19.5764 55.0892 20.1816 54.6601 20.8335C54.2499 21.4666 53.6995 22.0719 53.0096 22.6492C52.338 23.2079 51.4895 23.6735 50.4636 24.046C49.4566 24.3998 48.2349 24.5765 46.7987 24.5765Z" fill="url(#paint0_linear_1_9125)"/>
<path fill-rule="evenodd" clip-rule="evenodd" d="M65.9571 24.1141C64.2973 24.1141 62.889 23.7603 61.7327 23.0526C60.5763 22.3263 59.6903 21.3859 59.0748 20.2312C58.478 19.058 58.1797 17.7916 58.1797 16.4321C58.1797 15.0726 58.478 13.8155 59.0748 12.6609C59.6903 11.4876 60.5763 10.5471 61.7327 9.83946C62.889 9.11315 64.2973 8.75 65.9571 8.75C67.6172 8.75 69.0253 9.11315 70.1817 9.83946C71.3381 10.5471 72.2147 11.4876 72.8116 12.6609C73.427 13.8155 73.7347 15.0726 73.7347 16.4321C73.7347 17.7916 73.427 19.058 72.8116 20.2312C72.2147 21.3859 71.3381 22.3263 70.1817 23.0526C69.0253 23.7603 67.6172 24.1141 65.9571 24.1141ZM65.9571 20.6503C66.7032 20.6503 67.328 20.4546 67.8316 20.0635C68.3538 19.6725 68.7549 19.1604 69.0346 18.5272C69.3144 17.8753 69.4543 17.177 69.4543 16.432C69.4543 15.6685 69.3144 14.9701 69.0346 14.3369C68.7549 13.7037 68.3538 13.1915 67.8316 12.8006C67.328 12.4094 66.7032 12.2138 65.9571 12.2138C65.2111 12.2138 64.577 12.4094 64.0548 12.8006C63.5325 13.1915 63.1314 13.7037 62.8518 14.3369C62.5906 14.9701 62.4601 15.6685 62.4601 16.432C62.4601 17.177 62.5906 17.8753 62.8518 18.5272C63.1314 19.1604 63.5325 19.6725 64.0548 20.0635C64.577 20.4546 65.2111 20.6503 65.9571 20.6503Z" fill="url(#paint1_linear_1_9125)"/>
<path fill-rule="evenodd" clip-rule="evenodd" d="M81.7382 23.8348C80.6938 23.8348 79.8265 23.6113 79.1363 23.1645C78.4649 22.7174 77.9614 22.1214 77.6257 21.3765C77.2898 20.6131 77.1221 19.7564 77.1221 18.8065V8.75H81.3465V17.9685C81.3465 18.6761 81.5331 19.2535 81.9061 19.7004C82.2791 20.1288 82.8293 20.343 83.5567 20.343C84.1721 20.343 84.6571 20.194 85.0114 19.8959C85.3845 19.598 85.6549 19.2163 85.8228 18.7507C85.9906 18.2851 86.0746 17.7916 86.0746 17.2701V8.75H90.327V23.5556H86.0746V21.4604H85.9067C85.5897 22.0377 85.0954 22.5778 84.4239 23.0805C83.7712 23.5833 82.8759 23.8348 81.7382 23.8348Z" fill="url(#paint2_linear_1_9125)"/>
<path fill-rule="evenodd" clip-rule="evenodd" d="M92.0059 23.8349V9.02935H96.2583V11.1524H96.3982C96.5661 10.8544 96.8085 10.5192 97.1256 10.1467C97.4613 9.77427 97.8996 9.44837 98.4404 9.16901C99 8.88967 99.7087 8.75 100.567 8.75C101.723 8.75 102.665 9.02002 103.392 9.5601C104.12 10.0816 104.651 10.7613 104.987 11.5993C105.323 12.4188 105.491 13.2848 105.491 14.1973V23.8349H101.238V14.9235C101.238 14.2159 101.042 13.592 100.651 13.052C100.278 12.5119 99.6714 12.2418 98.8321 12.2418C98.198 12.2418 97.6944 12.3908 97.3214 12.6889C96.9483 12.9868 96.678 13.3685 96.5101 13.8341C96.3422 14.2997 96.2583 14.7932 96.2583 15.3147V23.8349H92.0059Z" fill="url(#paint3_linear_1_9125)"/>
<path fill-rule="evenodd" clip-rule="evenodd" d="M114.61 23.4417C113.454 23.4417 112.531 23.2742 111.841 22.9389C111.15 22.585 110.628 22.1474 110.274 21.626C109.919 21.086 109.686 20.518 109.574 19.922C109.463 19.3261 109.407 18.7766 109.407 18.2738V11.7371H106.889V8.35698H109.407V4.69751H113.659V8.35698H116.82V11.7371H113.659V18.1621C113.659 18.7766 113.818 19.2515 114.135 19.5868C114.47 19.922 115.021 20.0896 115.785 20.0896C116.121 20.0896 116.429 20.0616 116.708 20.0058C116.988 19.95 117.128 19.922 117.128 19.922V23.1902C117.128 23.1902 116.876 23.2276 116.373 23.3021C115.869 23.3953 115.282 23.4417 114.61 23.4417Z" fill="url(#paint4_linear_1_9125)"/>
<path fill-rule="evenodd" clip-rule="evenodd" d="M124.214 24.018L119.066 3.34619H123.375L127.04 18.3472L130.872 3.34619H135.265L139.097 18.3192L142.734 3.34619H147.071L141.895 24.018H136.412L133.055 10.8607L129.726 24.018H124.214Z" fill="url(#paint5_linear_1_9125)"/>
<path fill-rule="evenodd" clip-rule="evenodd" d="M151.351 6.85603C150.605 6.85603 149.999 6.62324 149.533 6.15766C149.067 5.67344 148.833 5.10546 148.833 4.45363C148.833 3.76458 149.067 3.18725 149.533 2.72167C149.999 2.23747 150.605 1.99536 151.351 1.99536C152.06 1.99536 152.657 2.23747 153.142 2.72167C153.627 3.18725 153.869 3.76458 153.869 4.45363C153.869 5.10546 153.627 5.67344 153.142 6.15766C152.657 6.62324 152.06 6.85603 151.351 6.85603ZM149.225 23.6729V8.86745H153.478V23.6729H149.225Z" fill="url(#paint6_linear_1_9125)"/>
<path fill-rule="evenodd" clip-rule="evenodd" d="M156.581 23.7798V21.3427L163.797 12.4096V12.3041H156.831V9.04175H168.719V11.6996L161.945 20.412V20.5176H168.968V23.7798H156.581Z" fill="white"/>
<path fill-rule="evenodd" clip-rule="evenodd" d="M178.146 23.7767C176.84 23.7767 175.712 23.5626 174.761 23.1343C173.809 22.6872 173.026 22.1006 172.41 21.3743C171.795 20.6294 171.328 19.8007 171.011 18.8881C170.712 17.9757 170.563 17.0351 170.563 16.0667C170.563 15.1356 170.704 14.223 170.983 13.3292C171.282 12.4166 171.73 11.5879 172.326 10.8429C172.942 10.098 173.716 9.51136 174.648 9.08303C175.599 8.63607 176.718 8.4126 178.005 8.4126C179.368 8.4126 180.57 8.71056 181.615 9.30651C182.677 9.90245 183.508 10.787 184.104 11.9603C184.701 13.1149 185 14.521 185 16.1784V17.2121H174.844C174.9 18.106 175.208 18.8788 175.767 19.5307C176.345 20.1825 177.138 20.5084 178.146 20.5084C178.724 20.5084 179.19 20.4246 179.545 20.257C179.917 20.0708 180.206 19.8658 180.412 19.6424C180.616 19.4003 180.757 19.1861 180.832 18.9999C180.906 18.8137 180.943 18.7206 180.943 18.7206H184.86C184.86 18.7206 184.814 18.8974 184.72 19.2513C184.646 19.5865 184.478 20.0055 184.217 20.5084C183.956 21.0112 183.573 21.5141 183.069 22.0169C182.584 22.5197 181.941 22.9387 181.139 23.2739C180.336 23.6091 179.339 23.7767 178.146 23.7767ZM174.844 14.6419H180.915C180.859 13.6176 180.551 12.854 179.991 12.3513C179.433 11.8485 178.743 11.5971 177.921 11.5971C177.101 11.5971 176.402 11.867 175.823 12.4071C175.245 12.9286 174.919 13.6735 174.844 14.6419Z" fill="url(#paint7_linear_1_9125)"/>
<path fill-rule="evenodd" clip-rule="evenodd" d="M0 13.4787C0 6.3905 5.75482 0.644287 12.8538 0.644287C19.9527 0.644287 29.7665 13.4787 29.7665 13.4787C29.7665 13.4787 19.9527 26.3132 12.8538 26.3132C5.75482 26.3132 0 20.5671 0 13.4787Z" fill="white"/>
<path fill-rule="evenodd" clip-rule="evenodd" d="M12.8538 0.644287C5.75482 0.644287 0 6.3905 0 13.4787C0 20.5671 5.75482 26.3132 12.8538 26.3132C19.9527 26.3132 29.7665 13.4787 29.7665 13.4787C29.7665 13.4787 19.9527 0.644287 12.8538 0.644287ZM27.617 13.4787C26.215 11.7487 24.6101 10.0156 22.8025 8.27947C18.6748 4.31516 15.3586 2.333 12.8538 2.333C9.77012 2.333 7.1382 3.42148 4.958 5.59841C2.77849 7.77466 1.68874 10.4014 1.68874 13.4787C1.68874 16.556 2.77849 19.1829 4.958 21.3591C7.13819 23.5359 9.77011 24.6245 12.8538 24.6245C15.3586 24.6245 18.6748 22.6423 22.8025 18.6781C24.6101 16.9418 26.215 15.2087 27.617 13.4787Z" fill="#6B9071"/>
<path fill-rule="evenodd" clip-rule="evenodd" d="M18.9421 12.2964H6.76465V16.4338C6.76465 17.4131 7.58245 18.207 8.59126 18.207H17.1155C18.1243 18.207 18.9421 17.4131 18.9421 16.4338V12.2964ZM11.9924 14.6609L12.0654 14.5894C12.2963 14.3576 12.2933 13.9889 12.0586 13.7608C11.8239 13.5326 11.4442 13.5292 11.2051 13.753L10.0915 14.834C9.85377 15.0649 9.85377 15.439 10.0915 15.6698L11.2051 16.7503C11.358 16.9039 11.5843 16.9655 11.7972 16.9115C12.0101 16.8574 12.1764 16.696 12.2321 16.4893C12.2878 16.2827 12.2243 16.0629 12.066 15.9145L11.9924 15.843H14.6799C15.0162 15.843 15.2888 15.5784 15.2888 15.2519C15.2888 14.9255 15.0162 14.6609 14.6799 14.6609H11.9924ZM8.59126 8.75C7.58245 8.75 6.76465 9.54388 6.76465 10.5232V11.1143H18.9421V10.5232C18.9421 9.54388 18.1243 8.75 17.1155 8.75H8.59126Z" fill="#6B9071"/>
<defs>
<linearGradient id="paint0_linear_1_9125" x1="74.242" y1="-3.12186" x2="74.242" y2="18.8348" gradientUnits="userSpaceOnUse">
<stop stop-color="white"/>
<stop offset="1" stop-color="white" stop-opacity="0.8"/>
</linearGradient>
<linearGradient id="paint1_linear_1_9125" x1="52.6642" y1="-8.98844" x2="52.6642" y2="12.9683" gradientUnits="userSpaceOnUse">
<stop stop-color="white"/>
<stop offset="1" stop-color="white" stop-opacity="0.8"/>
</linearGradient>
<linearGradient id="paint2_linear_1_9125" x1="34.6137" y1="-9.26774" x2="34.6137" y2="12.689" gradientUnits="userSpaceOnUse">
<stop stop-color="white"/>
<stop offset="1" stop-color="white" stop-opacity="0.8"/>
</linearGradient>
<linearGradient id="paint3_linear_1_9125" x1="18.7264" y1="-8.98847" x2="18.7264" y2="12.9683" gradientUnits="userSpaceOnUse">
<stop stop-color="white"/>
<stop offset="1" stop-color="white" stop-opacity="0.8"/>
</linearGradient>
<linearGradient id="paint4_linear_1_9125" x1="3.59514" y1="-5.60771" x2="3.59514" y2="16.349" gradientUnits="userSpaceOnUse">
<stop stop-color="white"/>
<stop offset="1" stop-color="white" stop-opacity="0.8"/>
</linearGradient>
<linearGradient id="paint5_linear_1_9125" x1="-8.08423" y1="-3.4012" x2="-8.08423" y2="18.5555" gradientUnits="userSpaceOnUse">
<stop stop-color="white"/>
<stop offset="1" stop-color="white" stop-opacity="0.8"/>
</linearGradient>
<linearGradient id="paint6_linear_1_9125" x1="-37.9245" y1="-2.39537" x2="-37.9245" y2="19.5613" gradientUnits="userSpaceOnUse">
<stop stop-color="white"/>
<stop offset="1" stop-color="white" stop-opacity="0.8"/>
</linearGradient>
<linearGradient id="paint7_linear_1_9125" x1="-59.8064" y1="-8.98809" x2="-59.8064" y2="12.9687" gradientUnits="userSpaceOnUse">
<stop stop-color="white"/>
<stop offset="1" stop-color="white" stop-opacity="0.8"/>
</linearGradient>
</defs>
</svg>
