<svg width="1575" height="1195" viewBox="0 0 1575 1195" fill="none" xmlns="http://www.w3.org/2000/svg">
<g opacity="0.7">
<g filter="url(#filter0_f_1_9769)">
<ellipse cx="787.5" cy="597.5" rx="753.5" ry="563.5" fill="url(#paint0_linear_1_9769)"/>
</g>
<ellipse cx="787.5" cy="617.5" rx="753.5" ry="563.5" fill="url(#paint1_linear_1_9769)"/>
</g>
<g clip-path="url(#clip0_1_9769)">
<path d="M787.5 3.5C995.478 3.5 1183.75 65.4811 1320.01 165.666C1456.27 265.851 1540.5 404.214 1540.5 557C1540.5 709.786 1456.27 848.149 1320.01 948.334C1183.75 1048.52 995.478 1110.5 787.5 1110.5C579.522 1110.5 391.253 1048.52 254.991 948.334C118.729 848.149 34.5 709.786 34.5 557C34.5 404.214 118.729 265.851 254.991 165.666C391.253 65.4811 579.522 3.5 787.5 3.5Z" stroke="url(#paint2_linear_1_9769)"/>
</g>
<defs>
<filter id="filter0_f_1_9769" x="0" y="0" width="1575" height="1195" filterUnits="userSpaceOnUse" color-interpolation-filters="sRGB">
<feFlood flood-opacity="0" result="BackgroundImageFix"/>
<feBlend mode="normal" in="SourceGraphic" in2="BackgroundImageFix" result="shape"/>
<feGaussianBlur stdDeviation="17" result="effect1_foregroundBlur_1_9769"/>
</filter>
<linearGradient id="paint0_linear_1_9769" x1="787.5" y1="34" x2="788" y2="453.5" gradientUnits="userSpaceOnUse">
<stop stop-color="#3A6241"/>
<stop offset="1" stop-color="#08080D"/>
</linearGradient>
<linearGradient id="paint1_linear_1_9769" x1="787.5" y1="54" x2="788" y2="473.5" gradientUnits="userSpaceOnUse">
<stop stop-color="#3A6241" stop-opacity="0.1"/>
<stop offset="1" stop-color="#050505"/>
</linearGradient>
<linearGradient id="paint2_linear_1_9769" x1="776.5" y1="-2.5" x2="787.5" y2="1111" gradientUnits="userSpaceOnUse">
<stop stop-color="#050505"/>
<stop offset="1" stop-color="white"/>
</linearGradient>
<clipPath id="clip0_1_9769">
<rect width="1507" height="510" fill="white" transform="translate(34 3)"/>
</clipPath>
</defs>
</svg>
