<svg width="39" height="39" viewBox="0 0 39 39" fill="none" xmlns="http://www.w3.org/2000/svg">
<path d="M15.5367 9.73486C11.9693 9.73486 8.39626 11.6677 5.67773 15.5332C11.1205 23.2701 19.9529 23.2701 25.3957 15.5332C22.6772 11.6677 19.104 9.73486 15.5367 9.73486ZM15.5371 20.4291C12.8363 20.4291 10.6466 18.2394 10.6466 15.5336C10.6466 12.8328 12.8363 10.6431 15.5371 10.6431C18.2328 10.6431 20.4325 12.8328 20.4325 15.5336C20.4325 18.2394 18.2328 20.4291 15.5371 20.4291Z" fill="#050B0C"/>
<path d="M25.9177 5.15254C20.1824 -0.582749 10.8855 -0.582749 5.15022 5.15254C-0.57937 10.8878 -0.57937 20.1847 5.15022 25.92C10.8855 31.6553 20.1881 31.6553 25.9177 25.92C31.653 20.1847 31.653 10.8878 25.9177 5.15254ZM23.8358 23.8324C19.259 28.4091 11.8146 28.4091 7.23784 23.8381C2.66109 19.2614 2.66109 11.817 7.23784 7.2402C11.8146 2.66345 19.259 2.66345 23.8358 7.2402C28.4126 11.817 28.4126 19.2614 23.8358 23.8324Z" fill="#050B0C"/>
<path d="M37.8931 35.4751L35.4728 37.8954C35.1287 38.2338 34.5724 38.2338 34.2283 37.8954L26.5315 30.1929C25.5622 31.1507 24.0023 31.145 23.0387 30.1815L22.3677 29.5047C23.8933 28.7649 25.2984 27.7612 26.5258 26.5281C27.7589 25.295 28.7625 23.8899 29.5081 22.3643L30.1791 23.0411C31.1427 24.0045 31.1484 25.5645 30.1906 26.5338L37.8931 34.2306C38.2315 34.5747 38.2315 35.131 37.8931 35.4751Z" fill="#050B0C"/>
<path d="M15.5368 12.7002C13.9711 12.7002 12.7036 13.9677 12.7036 15.5334C12.7036 17.1049 13.9711 18.3666 15.5368 18.3666C17.0968 18.3666 18.3701 17.1049 18.3701 15.5334C18.3701 13.9677 17.0968 12.7002 15.5368 12.7002ZM14.8658 15.5391C14.4299 15.5391 14.0801 15.1836 14.0801 14.7534C14.0801 14.3175 14.4299 13.9677 14.8658 13.9677C15.2959 13.9677 15.6458 14.3175 15.6458 14.7534C15.6458 15.1836 15.2959 15.5391 14.8658 15.5391Z" fill="#050B0C"/>
</svg>
