<svg width="28" height="36" viewBox="0 0 28 36" fill="none" xmlns="http://www.w3.org/2000/svg">
<path d="M26.4974 3.03736C25.9003 2.439 25.1062 2.10938 24.2613 2.10938H22.859V3.51562C22.859 5.06644 21.5987 6.32812 20.0495 6.32812H7.40735C5.85823 6.32812 4.59795 5.06644 4.59795 3.51562V2.10938H3.19092C1.45013 2.10938 0.0323459 3.52716 0.0303772 5.26992L2.20685e-06 32.8324C-0.000982168 33.6782 0.327377 34.4736 0.924401 35.072C1.52157 35.6704 2.31567 36 3.16055 36H24.2309C25.9717 36 27.3895 34.5822 27.3914 32.8395L27.4219 5.27695C27.4229 4.43116 27.0945 3.63579 26.4974 3.03736ZM14.0691 12.6562H21.5541C22.1359 12.6562 22.6076 13.1285 22.6076 13.7109C22.6076 14.2934 22.1359 14.7656 21.5541 14.7656H14.0691C13.4873 14.7656 13.0156 14.2934 13.0156 13.7109C13.0156 13.1285 13.4873 12.6562 14.0691 12.6562ZM14.0691 19.6875H21.5541C22.1359 19.6875 22.6076 20.1597 22.6076 20.7422C22.6076 21.3247 22.1359 21.7969 21.5541 21.7969H14.0691C13.4873 21.7969 13.0156 21.3247 13.0156 20.7422C13.0156 20.1597 13.4873 19.6875 14.0691 19.6875ZM14.0691 26.7188H21.5842C22.166 26.7188 22.6377 27.191 22.6377 27.7734C22.6377 28.3559 22.166 28.8281 21.5842 28.8281H14.0691C13.4873 28.8281 13.0156 28.3559 13.0156 27.7734C13.0156 27.191 13.4873 26.7188 14.0691 26.7188ZM5.09281 12.6979C5.50428 12.286 6.17126 12.286 6.58273 12.6979L7.15557 13.2714L9.58514 10.8392C9.99661 10.4273 10.6636 10.4272 11.075 10.8392C11.4864 11.251 11.4864 11.9188 11.075 12.3307L7.90046 15.5087C7.70288 15.7065 7.43492 15.8176 7.1555 15.8176C6.87607 15.8176 6.60811 15.7065 6.41053 15.5087L5.09274 14.1893C4.68134 13.7775 4.68134 13.1097 5.09281 12.6979ZM5.09281 20.2661C5.50428 19.8542 6.17126 19.8542 6.58273 20.2661L7.15557 20.8396L9.58514 18.4073C9.99654 17.9955 10.6636 17.9955 11.075 18.4073C11.4864 18.8191 11.4864 19.487 11.075 19.8989L7.90046 23.0769C7.70295 23.2747 7.43492 23.3859 7.1555 23.3859C6.87607 23.3859 6.60811 23.2748 6.41053 23.0769L5.09274 21.7576C4.68134 21.3458 4.68134 20.678 5.09281 20.2661ZM5.09281 27.2974C5.50428 26.8855 6.17126 26.8855 6.58273 27.2974L7.15557 27.8708L9.58514 25.4386C9.99654 25.0268 10.6636 25.0268 11.075 25.4386C11.4864 25.8504 11.4864 26.5182 11.075 26.9301L7.90046 30.1082C7.70295 30.306 7.43492 30.4171 7.1555 30.4171C6.87607 30.4171 6.60811 30.306 6.41053 30.1082L5.09274 28.7888C4.68134 28.377 4.68134 27.7092 5.09281 27.2974Z" fill="url(#paint0_linear_1_8243)"/>
<path d="M6.70605 3.51562C6.70605 3.90396 7.02049 4.21875 7.40841 4.21875H20.0506C20.4385 4.21875 20.7529 3.90396 20.7529 3.51562V0.703125C20.7529 0.314789 20.4385 0 20.0506 0H7.40841C7.02049 0 6.70605 0.314789 6.70605 0.703125V3.51562Z" fill="url(#paint1_linear_1_8243)"/>
<defs>
<linearGradient id="paint0_linear_1_8243" x1="-1.51409" y1="0.414843" x2="29.9372" y2="2.79755" gradientUnits="userSpaceOnUse">
<stop stop-color="#A3DCAD"/>
<stop offset="0.504808" stop-color="#D2FFDA"/>
<stop offset="1" stop-color="#A3DCAD"/>
</linearGradient>
<linearGradient id="paint1_linear_1_8243" x1="5.93046" y1="-0.210938" x2="20.6986" y2="4.39306" gradientUnits="userSpaceOnUse">
<stop stop-color="#A3DCAD"/>
<stop offset="0.504808" stop-color="#D2FFDA"/>
<stop offset="1" stop-color="#A3DCAD"/>
</linearGradient>
</defs>
</svg>
