<svg width="38" height="38" viewBox="0 0 38 38" fill="none" xmlns="http://www.w3.org/2000/svg">
<path d="M18.284 12.2162L19.0002 11.5L15.8752 9.625L15.5705 10.5391C15.3742 11.128 15.5274 11.7773 15.9664 12.2162C16.6064 12.8562 17.644 12.8562 18.284 12.2162Z" fill="url(#paint0_linear_64_4395)"/>
<path d="M22.0338 12.2162C22.4727 11.7773 22.626 11.128 22.4297 10.5391L22.125 9.625L19 11.5L19.7162 12.2162C20.3562 12.8562 21.3938 12.8562 22.0338 12.2162Z" fill="url(#paint1_linear_64_4395)"/>
<path d="M29.3125 14C29.1399 14 29 14.1399 29 14.3125V14.9375C29 15.1101 29.1399 15.25 29.3125 15.25H33.0625C33.2351 15.25 33.375 15.1101 33.375 14.9375V14.3125C33.375 14.1399 33.2351 14 33.0625 14H32.125V9.3125C32.125 9.13991 31.9851 9 31.8125 9H29.9375C29.7649 9 29.625 9.13991 29.625 9.3125V9.9375C29.625 10.1101 29.7649 10.25 29.9375 10.25H30.25V14H29.3125Z" fill="url(#paint2_linear_64_4395)"/>
<path d="M31.8125 6.5H30.5625C30.3899 6.5 30.25 6.63991 30.25 6.8125V7.4375C30.25 7.61009 30.3899 7.75 30.5625 7.75H31.8125C31.9851 7.75 32.125 7.61009 32.125 7.4375V6.8125C32.125 6.63991 31.9851 6.5 31.8125 6.5Z" fill="url(#paint3_linear_64_4395)"/>
<path d="M19 32.125C20.0355 32.125 20.875 31.2855 20.875 30.25C20.875 29.2145 20.0355 28.375 19 28.375C17.9645 28.375 17.125 29.2145 17.125 30.25C17.125 31.2855 17.9645 32.125 19 32.125Z" fill="url(#paint4_linear_64_4395)"/>
<path d="M32.5171 25.4395C32.0514 23.2276 30.5482 21.3415 28.4958 20.3943L24.1524 18.3896C24.8196 17.7151 25.3826 16.9337 25.8162 16.0665L25.8558 15.9873C26.4817 14.7355 26.8125 13.3341 26.8125 11.9344V9.83332C26.8125 6.16316 24.6234 2.87955 21.2356 1.46796L19.1202 0.586533C19.0433 0.554489 18.9567 0.554489 18.8798 0.586533L16.7644 1.46796C13.3766 2.87955 11.1875 6.16316 11.1875 9.83332V11.9344C11.1875 13.3341 11.5183 14.7355 12.1442 15.9873L12.1838 16.0665C12.6174 16.9337 13.1804 17.7151 13.8476 18.3897L11.7758 19.3459L11.2651 15.7696L10.6463 15.858L11.0874 18.9463L8.11003 16.8196C8.04594 16.7737 7.96667 16.7539 7.88863 16.7639C7.63724 16.7961 7.38036 16.8125 7.125 16.8125C3.85108 16.8125 1.1875 14.149 1.1875 10.875C1.1875 7.60104 3.85107 4.9375 7.125 4.9375C8.42177 4.9375 9.65361 5.34792 10.6873 6.1244L11.0627 5.62468C9.91987 4.76626 8.55826 4.3125 7.125 4.3125C3.50645 4.3125 0.5625 7.25642 0.5625 10.875C0.5625 14.4936 3.50645 17.4375 7.125 17.4375C7.36532 17.4375 7.60702 17.4244 7.84514 17.3984L11.0443 19.6835L9.50423 20.3943C7.45184 21.3415 5.94855 23.2276 5.48285 25.4395L4.41389 30.5171C3.95651 32.6896 4.91408 34.9398 6.79678 36.1165L8.22638 37.01C8.67392 37.2897 9.18936 37.4375 9.71701 37.4375H28.283C28.8106 37.4375 29.3261 37.2897 29.7736 37.01L31.2032 36.1165C33.0859 34.9398 34.0435 32.6896 33.5861 30.5171L32.5171 25.4395ZM13.6875 10.5672V8.65469L24.3125 7.47416V10.25C24.3125 12.6234 22.539 14.5891 20.2478 14.8949C20.2251 14.2255 19.6749 13.6875 19 13.6875C18.3108 13.6875 17.75 14.2483 17.75 14.9375C17.75 15.6267 18.3108 16.1875 19 16.1875C19.4706 16.1875 19.881 15.9259 20.0942 15.5406C21.5698 15.4108 22.8737 14.6758 23.756 13.5852C23.1401 15.1957 22.0355 16.6008 20.5552 17.5876L19 18.6244L17.4447 17.5876C15.0921 16.0192 13.6875 13.3947 13.6875 10.5672ZM28.742 35.9176C28.7192 36.4194 28.3079 36.8125 27.8055 36.8125H10.1945C9.69214 36.8125 9.28076 36.4194 9.25795 35.9176L8.74663 24.6675C8.73488 24.4094 8.82673 24.1642 9.00526 23.9773C9.18387 23.7904 9.42458 23.6875 9.68314 23.6875H28.3169C28.5754 23.6875 28.8161 23.7904 28.9947 23.9773C29.1733 24.1642 29.2651 24.4094 29.2534 24.6676L28.742 35.9176Z" fill="url(#paint5_linear_64_4395)"/>
<path d="M3.375 7.75C3.02983 7.75 2.75 8.02982 2.75 8.375V12.75C2.75 13.0952 3.02983 13.375 3.375 13.375H9.625C9.97017 13.375 10.25 13.0952 10.25 12.75V8.375C10.25 8.02982 9.97017 7.75 9.625 7.75H3.375ZM5.25 11.8125H4V11.1875H5.25V11.8125ZM5.25 9.9375H4V9.3125H5.25V9.9375ZM7.125 11.8125H5.875V11.1875H7.125V11.8125ZM9 11.8125H7.75V11.1875H9V11.8125Z" fill="url(#paint6_linear_64_4395)"/>
<path d="M35.5154 6.23455C34.2433 4.9625 32.5537 4.28157 30.7506 4.31358C29.3669 4.33925 28.048 4.79599 26.9368 5.63434L27.3133 6.1333C28.3185 5.37483 29.5111 4.9617 30.7622 4.9385C32.3892 4.9073 33.9224 5.52551 35.0735 6.67648C36.2245 7.82745 36.8417 9.35859 36.8115 10.9878C36.783 12.524 36.1628 13.9738 35.0651 15.0701C33.9675 16.1665 32.5168 16.7849 30.9805 16.8115C30.7549 16.8154 30.5275 16.8066 30.3047 16.7854C30.2545 16.7806 30.2041 16.788 30.1576 16.8069L27.6055 17.8427L28.0351 16.3675C28.0753 16.2297 28.0164 16.0823 27.8923 16.0101C27.6924 15.8936 27.4972 15.7641 27.3122 15.6251L26.9368 16.1248C27.076 16.2294 27.2203 16.3291 27.3681 16.4227L26.825 18.2875C26.7915 18.4026 26.8267 18.5266 26.9156 18.6069C26.9741 18.6597 27.049 18.6874 27.1251 18.6874C27.1647 18.6874 27.2045 18.6799 27.2425 18.6645L30.3226 17.4145C30.5438 17.4329 30.7685 17.4403 30.9914 17.4364C32.6904 17.407 34.294 16.7237 35.5068 15.5123C36.7196 14.301 37.4049 12.6983 37.4364 10.9994C37.4698 9.19883 36.7875 7.50667 35.5154 6.23455Z" fill="url(#paint7_linear_64_4395)"/>
<defs>
<linearGradient id="paint0_linear_64_4395" x1="15.2923" y1="9.47144" x2="19.2996" y2="9.90073" gradientUnits="userSpaceOnUse">
<stop stop-color="#A3DCAD"/>
<stop offset="0.504808" stop-color="#D2FFDA"/>
<stop offset="1" stop-color="#A3DCAD"/>
</linearGradient>
<linearGradient id="paint1_linear_64_4395" x1="18.806" y1="9.47144" x2="22.8133" y2="9.90073" gradientUnits="userSpaceOnUse">
<stop stop-color="#A3DCAD"/>
<stop offset="0.504808" stop-color="#D2FFDA"/>
<stop offset="1" stop-color="#A3DCAD"/>
</linearGradient>
<linearGradient id="paint2_linear_64_4395" x1="28.7584" y1="8.6875" x2="33.7835" y2="9.01685" gradientUnits="userSpaceOnUse">
<stop stop-color="#A3DCAD"/>
<stop offset="0.504808" stop-color="#D2FFDA"/>
<stop offset="1" stop-color="#A3DCAD"/>
</linearGradient>
<linearGradient id="paint3_linear_64_4395" x1="30.1465" y1="6.4375" x2="32.2675" y2="6.73539" gradientUnits="userSpaceOnUse">
<stop stop-color="#A3DCAD"/>
<stop offset="0.504808" stop-color="#D2FFDA"/>
<stop offset="1" stop-color="#A3DCAD"/>
</linearGradient>
<linearGradient id="paint4_linear_64_4395" x1="16.9179" y1="28.1875" x2="21.2061" y2="28.589" gradientUnits="userSpaceOnUse">
<stop stop-color="#A3DCAD"/>
<stop offset="0.504808" stop-color="#D2FFDA"/>
<stop offset="1" stop-color="#A3DCAD"/>
</linearGradient>
<linearGradient id="paint5_linear_64_4395" x1="-1.26713" y1="-1.28125" x2="36.6882" y2="1.91221" gradientUnits="userSpaceOnUse">
<stop stop-color="#A3DCAD"/>
<stop offset="0.504808" stop-color="#D2FFDA"/>
<stop offset="1" stop-color="#A3DCAD"/>
</linearGradient>
<linearGradient id="paint6_linear_64_4395" x1="2.33589" y1="7.46875" x2="10.8546" y2="8.53222" gradientUnits="userSpaceOnUse">
<stop stop-color="#A3DCAD"/>
<stop offset="0.504808" stop-color="#D2FFDA"/>
<stop offset="1" stop-color="#A3DCAD"/>
</linearGradient>
<linearGradient id="paint7_linear_64_4395" x1="26.2258" y1="3.59375" x2="38.4237" y2="4.43791" gradientUnits="userSpaceOnUse">
<stop stop-color="#A3DCAD"/>
<stop offset="0.504808" stop-color="#D2FFDA"/>
<stop offset="1" stop-color="#A3DCAD"/>
</linearGradient>
</defs>
</svg>
