<svg width="36" height="36" viewBox="0 0 36 36" fill="none" xmlns="http://www.w3.org/2000/svg">
<path d="M35.2613 0.0031419C28.234 -0.122855 20.2197 3.55056 15.1468 9.24893C10.2989 9.34043 5.57855 11.3279 2.10313 14.8033C1.90064 15.0028 1.82864 15.3013 1.91714 15.5713C2.00713 15.8428 2.24113 16.0393 2.52312 16.0798L8.30398 16.9078L7.59 17.7072C7.3245 18.0042 7.338 18.4557 7.61999 18.7377L17.2603 28.378C17.4058 28.5235 17.5977 28.597 17.7912 28.597C17.9697 28.597 18.1482 28.534 18.2907 28.4065L19.0902 27.6925L19.9182 33.4734C19.9587 33.7554 20.1807 33.9624 20.4492 34.0524C20.5182 34.0749 20.5902 34.0854 20.6637 34.0854C20.8767 34.0854 21.0942 33.9924 21.2442 33.8439C24.6716 30.4165 26.659 25.6961 26.7505 20.8482C32.4549 15.7648 36.1583 7.75347 35.9948 0.735126C35.9843 0.336134 35.6618 0.0136417 35.2613 0.0031419ZM28.3495 12.9509C27.619 13.6813 26.659 14.0473 25.6975 14.0473C24.7361 14.0473 23.7761 13.6813 23.0456 12.9509C21.5847 11.4884 21.5847 9.10944 23.0456 7.64697C24.5081 6.1845 26.887 6.1845 28.3495 7.64697C29.8119 9.10944 29.8119 11.4899 28.3495 12.9509Z" fill="url(#paint0_linear_1_8199)"/>
<path d="M4.08622 25.3571C2.48117 26.9621 0.277595 34.2134 0.0315871 35.0339C-0.0479155 35.2979 0.0255869 35.5844 0.219093 35.7794C0.363098 35.9234 0.553604 35.9999 0.750111 35.9999C0.822113 35.9999 0.894115 35.9894 0.966118 35.9684C1.78664 35.7224 9.03788 33.5188 10.6429 31.9138C12.4505 30.1062 12.4505 27.1646 10.6429 25.3571C8.83388 23.5495 5.89378 23.551 4.08622 25.3571Z" fill="url(#paint1_linear_1_8199)"/>
<defs>
<linearGradient id="paint0_linear_1_8199" x1="-0.00404971" y1="-1.70427" x2="39.0117" y2="1.95248" gradientUnits="userSpaceOnUse">
<stop stop-color="#A3DCAD"/>
<stop offset="0.504808" stop-color="#D2FFDA"/>
<stop offset="1" stop-color="#A3DCAD"/>
</linearGradient>
<linearGradient id="paint1_linear_1_8199" x1="-0.6625" y1="23.4021" x2="13.0579" y2="24.6868" gradientUnits="userSpaceOnUse">
<stop stop-color="#A3DCAD"/>
<stop offset="0.504808" stop-color="#D2FFDA"/>
<stop offset="1" stop-color="#A3DCAD"/>
</linearGradient>
</defs>
</svg>
