<svg width="46" height="46" viewBox="0 0 46 46" fill="none" xmlns="http://www.w3.org/2000/svg">
<path d="M30.9062 11.5L24.4375 15.0938C24.4375 15.0938 26.5938 17.25 29.4688 15.8125C31.5014 14.7962 30.9062 11.5 30.9062 11.5Z" fill="#050B0C"/>
<path d="M21.5616 15.0938L15.0929 11.5C15.0929 11.5 14.4978 14.7962 16.5304 15.8125C19.4054 17.25 21.5616 15.0938 21.5616 15.0938Z" fill="#050B0C"/>
<path d="M40.25 10.0625C39.8518 9.26684 39.4048 8.53875 38.9189 7.87175C40.4972 7.11419 43.0301 5.93184 45.2812 5.03125C36.9128 1.16869 25.6687 0.766187 23.4111 0.723781C23.3263 0.721625 23.2458 0.720906 23.1696 0.720187C23.0604 0.71875 23 0.71875 23 0.71875C20.125 0.71875 10.0625 1.4375 5.75 10.0625C1.4375 18.6875 4.3125 25.1562 4.3125 30.9062C4.3125 36.6562 0.71875 45.2812 0.71875 45.2812H2.99791L15.7723 32.5069C14.4512 30.8948 13.6562 28.8355 13.6562 26.5938C13.6562 24.8774 14.1292 23.2731 14.9399 21.8895C13.4672 18.1873 9.41706 16.3602 11.5 11.5C13.542 6.73612 18.6875 5.75 23 5.75C27.3125 5.75 32.458 6.73612 34.5 11.5C36.5829 16.3602 32.5328 18.1873 31.0601 21.8895C31.8708 23.2731 32.3438 24.8774 32.3438 26.5938C32.3438 28.9196 31.4841 31.0443 30.0732 32.6816C30.5943 33.3946 30.9062 34.27 30.9062 35.2188V37.375C30.9062 40.5454 28.3267 43.125 25.1562 43.125H20.7208L18.5646 45.2812H45.2812C45.2812 45.2812 41.6875 36.6562 41.6875 30.9062C41.6875 25.1562 44.5625 18.6875 40.25 10.0625Z" fill="#050B0C"/>
<path d="M25.1562 41.6875C27.5382 41.6875 29.4688 39.7569 29.4688 37.375V35.2188C29.4688 34.1377 28.865 33.2077 27.9838 32.7168C29.7634 31.2678 30.9062 29.0677 30.9062 26.5938C30.9062 22.2273 27.3664 18.6875 23 18.6875C18.6336 18.6875 15.0938 22.2273 15.0938 26.5938C15.0938 28.9606 16.1417 31.0752 17.7898 32.5227L5.03125 45.2812H16.5312L20.125 41.6875H25.1562ZM26.5938 25.875C27.388 25.875 28.0312 26.5183 28.0312 27.3125C28.0312 27.8429 27.7402 28.3015 27.3125 28.5509V32.4458C27.0818 32.3854 26.8432 32.3438 26.5938 32.3438H25.875V28.5509C25.4473 28.3022 25.1562 27.8437 25.1562 27.3125C25.1562 26.5183 25.7995 25.875 26.5938 25.875ZM23 21.5625C23.7942 21.5625 24.4375 22.2058 24.4375 23C24.4375 23.5304 24.1464 23.989 23.7188 24.2384V32.3438H22.2812V24.2384C21.8536 23.9897 21.5625 23.5312 21.5625 23C21.5625 22.2058 22.2058 21.5625 23 21.5625ZM19.4062 25.875C20.2005 25.875 20.8438 26.5183 20.8438 27.3125C20.8438 27.8429 20.5527 28.3015 20.125 28.5509V32.3438H18.6875V28.5509C18.2598 28.3022 17.9688 27.8437 17.9688 27.3125C17.9688 26.5183 18.612 25.875 19.4062 25.875Z" fill="#050B0C"/>
</svg>
