<svg width="28" height="38" viewBox="0 0 28 38" fill="none" xmlns="http://www.w3.org/2000/svg">
<path d="M3.3767 0.250488C1.65626 0.250488 0.252923 1.65255 0.25293 3.37301V29.0762C1.04888 28.2596 2.15659 27.748 3.3767 27.748C11.5011 27.748 19.6254 27.7461 27.7505 27.7493V2.12299C27.7505 1.09506 26.9046 0.250488 25.8767 0.250488H3.3767ZM9.91113 12.0217L12.0449 16.8191C12.0968 16.9129 12.1237 17.0182 12.123 17.1255C12.123 18.683 11.1177 20.2492 9.00049 20.2492C6.88327 20.2492 5.87182 18.6329 5.87182 17.1255C5.87213 17.0378 5.8902 16.9516 5.9353 16.852L8.07885 12.0229C7.84968 11.9733 7.0728 11.7357 6.67993 11.3173C6.11393 10.7146 6.95032 9.85293 7.56616 10.4312C7.79978 10.6504 8.42831 10.8742 9.0017 10.8742C10.4861 10.8742 11.2773 9.78279 13.3743 9.65353V8.36567C13.3743 7.95058 13.6854 7.74367 13.9968 7.74556V7.75032C14.3082 7.74843 14.6194 7.95536 14.6194 8.37042V9.65829C16.7163 9.7875 17.5076 10.879 18.9919 10.879C19.5653 10.879 20.1939 10.6552 20.4275 10.4358C21.0433 9.85762 21.8797 10.7194 21.3137 11.3221C20.9208 11.7404 20.1439 11.978 19.9148 12.0276L22.0583 16.8568C22.1034 16.9562 22.1215 17.0426 22.1218 17.1301C22.1218 18.6376 21.1104 20.254 18.9932 20.254C16.8759 20.254 15.8706 18.6877 15.8706 17.1301C15.87 17.0231 15.8969 16.9175 15.9487 16.8238L18.0825 12.0264C17.2191 11.9957 15.9629 10.8788 13.9968 10.8808C12.0307 10.876 10.7746 11.9909 9.91113 12.0217ZM13.3743 12.1219C13.7824 12.1219 14.1952 12.1266 14.6194 12.1266V21.5041H17.1511C18.0145 21.5492 17.9507 22.7946 17.1194 22.754C15.0846 22.754 12.9877 22.7493 10.8743 22.7493C10.043 22.79 9.97914 21.5445 10.8425 21.4993H13.3743L13.3743 12.1219ZM9.0017 13.0374L7.46484 16.4981H10.5373L9.0017 13.0374ZM18.9919 13.0421L17.4563 16.5028H20.5288L18.9919 13.0421ZM3.3767 28.9991C1.65626 28.9992 0.25293 30.4073 0.25293 32.1278C0.25293 33.8482 1.65626 35.2504 3.3767 35.2504H3.99927V32.7503H3.3767C2.54256 32.7503 2.54256 31.4991 3.3767 31.4991H24.6267C25.4608 31.4991 25.4608 32.7503 24.6267 32.7503H12.7505V35.2504H25.8767C26.9046 35.2504 27.7505 34.4057 27.7505 33.3778V29.0003C19.6259 28.9979 11.5013 28.9991 3.3767 28.9991ZM5.24927 32.7503V37.124C5.2449 37.6856 5.92594 37.9674 6.31982 37.5672L8.37793 35.509L10.4348 37.5672C10.8291 37.959 11.5003 37.6798 11.5005 37.124V32.7503H5.24927Z" fill="black"/>
</svg>
