<svg width="22" height="22" viewBox="0 0 22 22" fill="none" xmlns="http://www.w3.org/2000/svg">
<path d="M20.7494 16.0036V19.0204C20.7505 19.3004 20.6932 19.5776 20.581 19.8342C20.4688 20.0908 20.3042 20.3212 20.0978 20.5105C19.8915 20.6998 19.6478 20.844 19.3825 20.9337C19.1172 21.0234 18.8361 21.0567 18.5572 21.0315C15.4628 20.6953 12.4904 19.6379 9.8789 17.9444C7.44921 16.4004 5.38926 14.3405 3.84534 11.9108C2.14586 9.28741 1.08824 6.30058 0.758162 3.19229C0.733033 2.91421 0.766081 2.63395 0.855202 2.36934C0.944324 2.10473 1.08757 1.86158 1.27581 1.65536C1.46405 1.44915 1.69317 1.28439 1.94858 1.17157C2.20398 1.05876 2.48008 1.00036 2.7593 1.0001H5.77608C6.2641 0.995294 6.73722 1.16811 7.10725 1.48634C7.47727 1.80456 7.71896 2.24648 7.78727 2.72972C7.9146 3.69516 8.15074 4.64309 8.49118 5.55544C8.62648 5.91537 8.65576 6.30653 8.57556 6.68259C8.49536 7.05865 8.30903 7.40383 8.03867 7.67725L6.76156 8.95435C8.19308 11.4719 10.2776 13.5564 12.7951 14.9879L14.0722 13.7108C14.3456 13.4404 14.6908 13.2541 15.0669 13.1739C15.4429 13.0937 15.8341 13.123 16.194 13.2583C17.1064 13.5987 18.0543 13.8349 19.0198 13.9622C19.5082 14.0311 19.9544 14.2772 20.2733 14.6536C20.5922 15.0299 20.7616 15.5104 20.7494 16.0036Z" stroke="white" stroke-width="0.8" stroke-linecap="round" stroke-linejoin="round"/>
</svg>
