<svg width="40" height="40" viewBox="0 0 40 40" fill="none" xmlns="http://www.w3.org/2000/svg">
<g clip-path="url(#clip0_1_8147)">
<path d="M32.5 10H37.5V30H32.5V10Z" fill="url(#paint0_linear_1_8147)"/>
<path d="M27.5 27.385V16.25H22.5V23.4919C24.594 24.1204 26.3774 25.509 27.5 27.385Z" fill="url(#paint1_linear_1_8147)"/>
<path d="M19.3751 32.1137L17.2207 33.1906L17.7795 34.3094L20.2795 33.0594C20.3833 33.0075 20.4707 32.9276 20.5318 32.8288C20.5928 32.73 20.6251 32.6161 20.6251 32.5V27.5H19.3751V32.1137Z" fill="url(#paint2_linear_1_8147)"/>
<path d="M20.0002 39.375C21.0553 39.3743 22.0984 39.1513 23.0615 38.7206C24.0247 38.2898 24.8863 37.661 25.5902 36.875L24.6589 36.0419C23.6952 37.1243 22.3855 37.8385 20.9537 38.0626C19.5218 38.2867 18.0566 38.0067 16.8083 37.2704C15.5599 36.5342 14.6059 35.3874 14.1092 34.0259C13.6124 32.6645 13.6038 31.1728 14.0847 29.8056C14.5656 28.4384 15.5062 27.2807 16.7459 26.53C17.9856 25.7793 19.4475 25.4823 20.8818 25.6897C22.3162 25.8971 23.634 26.5961 24.6103 27.6672C25.5865 28.7383 26.1607 30.1152 26.2346 31.5625H24.3752L26.8752 34.8957L29.3752 31.5625H27.4846C27.4224 30.0947 26.9303 28.6774 26.0694 27.4869C25.2084 26.2964 24.0166 25.3852 22.642 24.8665C21.2674 24.3478 19.7707 24.2445 18.3379 24.5694C16.9051 24.8943 15.5993 25.6332 14.583 26.6941C13.5666 27.755 12.8844 29.0912 12.6213 30.5366C12.3581 31.9821 12.5255 33.473 13.1026 34.8241C13.6798 36.1751 14.6413 37.3268 15.8676 38.1359C17.0939 38.945 18.531 39.3759 20.0002 39.375Z" fill="url(#paint3_linear_1_8147)"/>
<path d="M30.625 31.25H39.375V32.5H30.625V31.25Z" fill="url(#paint4_linear_1_8147)"/>
<path d="M0.625 31.25H11.25V32.5H0.625V31.25Z" fill="url(#paint5_linear_1_8147)"/>
<path d="M2.5 16.25H7.5V30H2.5V16.25Z" fill="url(#paint6_linear_1_8147)"/>
<path d="M35.0001 0.625009C34.337 0.625009 33.7011 0.888402 33.2323 1.35724C32.7634 1.82608 32.5001 2.46197 32.5001 3.12501C32.5028 3.37996 32.5449 3.63296 32.6251 3.87501L26.7151 7.56251C26.2442 7.11191 25.6152 6.86421 24.9635 6.87275C24.3119 6.88128 23.6896 7.14536 23.2307 7.60813L16.7688 3.80626C16.836 3.58529 16.8718 3.35596 16.8751 3.12501C16.8749 2.75572 16.7928 2.39105 16.6349 2.05723C16.477 1.72341 16.2471 1.42872 15.9617 1.19435C15.6763 0.959974 15.3425 0.791738 14.9844 0.701732C14.6262 0.611726 14.2526 0.602185 13.8903 0.673794C13.528 0.745404 13.1861 0.896387 12.8891 1.11589C12.5921 1.33539 12.3475 1.61796 12.1727 1.94329C11.9979 2.26861 11.8974 2.62862 11.8784 2.99742C11.8593 3.36622 11.9222 3.73466 12.0626 4.07626L5.9263 8.68001C5.48778 8.32328 4.94035 8.12743 4.37505 8.12501C3.83746 8.12432 3.31391 8.29655 2.88172 8.61626C2.44953 8.93597 2.13162 9.38621 1.97496 9.90046C1.8183 10.4147 1.83119 10.9657 2.01173 11.4721C2.19227 11.9785 2.53088 12.4133 2.97755 12.7125C3.42422 13.0116 3.95526 13.1592 4.49223 13.1334C5.0292 13.1075 5.54363 12.9097 5.95952 12.569C6.37541 12.2284 6.67072 11.763 6.80181 11.2417C6.93291 10.7203 6.89285 10.1706 6.68755 9.67376L12.8263 5.07001C13.3032 5.45819 13.9075 5.65477 14.5215 5.62137C15.1355 5.58797 15.715 5.327 16.1469 4.88938L22.6063 8.69376C22.5391 8.91473 22.5033 9.14406 22.5001 9.37501C22.5001 10.0381 22.7634 10.6739 23.2323 11.1428C23.7011 11.6116 24.337 11.875 25.0001 11.875C25.6631 11.875 26.299 11.6116 26.7678 11.1428C27.2367 10.6739 27.5001 10.0381 27.5001 9.37501C27.4973 9.12006 27.4552 8.86706 27.3751 8.62501L33.2851 4.93751C33.5814 5.219 33.9422 5.42356 34.3359 5.53326C34.7296 5.64296 35.1442 5.65447 35.5434 5.56676C35.9426 5.47906 36.3142 5.29483 36.6256 5.0302C36.9371 4.76557 37.1789 4.42861 37.33 4.04883C37.481 3.66905 37.5366 3.25804 37.4919 2.85178C37.4473 2.44552 37.3037 2.05641 37.0738 1.71852C36.8438 1.38063 36.5345 1.10426 36.173 0.913624C35.8115 0.722985 35.4088 0.623888 35.0001 0.625009Z" fill="url(#paint7_linear_1_8147)"/>
<path d="M17.5 10H12.5V27.385C13.6226 25.509 15.406 24.1204 17.5 23.4919V10Z" fill="url(#paint8_linear_1_8147)"/>
</g>
<defs>
<linearGradient id="paint0_linear_1_8147" x1="32.2239" y1="9" x2="37.9884" y2="9.13493" gradientUnits="userSpaceOnUse">
<stop stop-color="#A3DCAD"/>
<stop offset="0.504808" stop-color="#D2FFDA"/>
<stop offset="1" stop-color="#A3DCAD"/>
</linearGradient>
<linearGradient id="paint1_linear_1_8147" x1="22.2239" y1="15.6932" x2="27.9814" y2="15.9353" gradientUnits="userSpaceOnUse">
<stop stop-color="#A3DCAD"/>
<stop offset="0.504808" stop-color="#D2FFDA"/>
<stop offset="1" stop-color="#A3DCAD"/>
</linearGradient>
<linearGradient id="paint2_linear_1_8147" x1="17.0327" y1="27.1595" x2="20.9512" y2="27.343" gradientUnits="userSpaceOnUse">
<stop stop-color="#A3DCAD"/>
<stop offset="0.504808" stop-color="#D2FFDA"/>
<stop offset="1" stop-color="#A3DCAD"/>
</linearGradient>
<linearGradient id="paint3_linear_1_8147" x1="11.5682" y1="23.6342" x2="30.8203" y2="25.6633" gradientUnits="userSpaceOnUse">
<stop stop-color="#A3DCAD"/>
<stop offset="0.504808" stop-color="#D2FFDA"/>
<stop offset="1" stop-color="#A3DCAD"/>
</linearGradient>
<linearGradient id="paint4_linear_1_8147" x1="30.1419" y1="31.1875" x2="37.2023" y2="35.815" gradientUnits="userSpaceOnUse">
<stop stop-color="#A3DCAD"/>
<stop offset="0.504808" stop-color="#D2FFDA"/>
<stop offset="1" stop-color="#A3DCAD"/>
</linearGradient>
<linearGradient id="paint5_linear_1_8147" x1="0.0383436" y1="31.1875" x2="7.54193" y2="37.1592" gradientUnits="userSpaceOnUse">
<stop stop-color="#A3DCAD"/>
<stop offset="0.504808" stop-color="#D2FFDA"/>
<stop offset="1" stop-color="#A3DCAD"/>
</linearGradient>
<linearGradient id="paint6_linear_1_8147" x1="2.22393" y1="15.5625" x2="7.98488" y2="15.7586" gradientUnits="userSpaceOnUse">
<stop stop-color="#A3DCAD"/>
<stop offset="0.504808" stop-color="#D2FFDA"/>
<stop offset="1" stop-color="#A3DCAD"/>
</linearGradient>
<linearGradient id="paint7_linear_1_8147" x1="-0.101681" y1="-0.000563214" x2="38.2803" y2="10.2367" gradientUnits="userSpaceOnUse">
<stop stop-color="#A3DCAD"/>
<stop offset="0.504808" stop-color="#D2FFDA"/>
<stop offset="1" stop-color="#A3DCAD"/>
</linearGradient>
<linearGradient id="paint8_linear_1_8147" x1="12.2239" y1="9.13075" x2="17.9874" y2="9.28595" gradientUnits="userSpaceOnUse">
<stop stop-color="#A3DCAD"/>
<stop offset="0.504808" stop-color="#D2FFDA"/>
<stop offset="1" stop-color="#A3DCAD"/>
</linearGradient>
<clipPath id="clip0_1_8147">
<rect width="40" height="40" fill="white"/>
</clipPath>
</defs>
</svg>
