<svg width="24" height="24" viewBox="0 0 24 24" fill="none" xmlns="http://www.w3.org/2000/svg">
<path fill-rule="evenodd" clip-rule="evenodd" d="M6.26997 16.1433C5.87269 16.5269 5.86163 17.16 6.24528 17.5573C6.62893 17.9546 7.262 17.9656 7.65928 17.582L11.9753 13.414L16.1433 17.7301C16.5269 18.1273 17.16 18.1384 17.5573 17.7547C17.9546 17.3711 17.9656 16.738 17.582 16.3407L13.414 12.0247L17.73 7.85676C18.1273 7.47311 18.1384 6.84004 17.7547 6.44276C17.3711 6.04548 16.738 6.03443 16.3407 6.41808L12.0247 10.586L7.85673 6.26999C7.47308 5.87271 6.84002 5.86166 6.44274 6.24531C6.04545 6.62896 6.0344 7.26203 6.41805 7.65931L10.586 11.9753L6.26997 16.1433Z" fill="#6b9071"/>
<defs>
<linearGradient id="paint0_linear_99_87" x1="6.24528" y1="17.5573" x2="17.7547" y2="6.44276" gradientUnits="userSpaceOnUse">
<stop stop-color="white" stop-opacity="0.7"/>
<stop offset="1" stop-color="white"/>
</linearGradient>
</defs>
</svg>
