<?xml version="1.0" encoding="utf-8"?>
<svg width="1095.488" height="194" viewBox="0 0 1095.488 194" fill="none" stroke="none" version="1.1" xmlns:xlink="http://www.w3.org/1999/xlink" xmlns="http://www.w3.org/2000/svg">
  <defs>
    <linearGradient id="gradient_1" gradientUnits="userSpaceOnUse" x1="439.63" y1="-4.301" x2="439.63" y2="125.717">
      <stop offset="0" stop-color="#FFFFFF" />
      <stop offset="1" stop-color="#FFFFFF" stop-opacity="0.8" />
    </linearGradient>
    <linearGradient id="gradient_2" gradientUnits="userSpaceOnUse" x1="311.856" y1="-39.039" x2="311.856" y2="90.979">
      <stop offset="0" stop-color="#FFFFFF" />
      <stop offset="1" stop-color="#FFFFFF" stop-opacity="0.8" />
    </linearGradient>
    <linearGradient id="gradient_3" gradientUnits="userSpaceOnUse" x1="204.968" y1="-40.693" x2="204.968" y2="89.325">
      <stop offset="0" stop-color="#FFFFFF" />
      <stop offset="1" stop-color="#FFFFFF" stop-opacity="0.8" />
    </linearGradient>
    <linearGradient id="gradient_4" gradientUnits="userSpaceOnUse" x1="110.888" y1="-39.039" x2="110.888" y2="90.979">
      <stop offset="0" stop-color="#FFFFFF" />
      <stop offset="1" stop-color="#FFFFFF" stop-opacity="0.8" />
    </linearGradient>
    <linearGradient id="gradient_5" gradientUnits="userSpaceOnUse" x1="21.289" y1="-19.023" x2="21.289" y2="110.995">
      <stop offset="0" stop-color="#FFFFFF" />
      <stop offset="1" stop-color="#FFFFFF" stop-opacity="0.8" />
    </linearGradient>
    <linearGradient id="gradient_6" gradientUnits="userSpaceOnUse" x1="-47.873" y1="-5.955" x2="-47.873" y2="124.063">
      <stop offset="0" stop-color="#FFFFFF" />
      <stop offset="1" stop-color="#FFFFFF" stop-opacity="0.8" />
    </linearGradient>
    <linearGradient id="gradient_7" gradientUnits="userSpaceOnUse" x1="-224.574" y1="0" x2="-224.574" y2="130.018">
      <stop offset="0" stop-color="#FFFFFF" />
      <stop offset="1" stop-color="#FFFFFF" stop-opacity="0.8" />
    </linearGradient>
    <linearGradient id="gradient_8" gradientUnits="userSpaceOnUse" x1="-354.145" y1="-39.039" x2="-354.145" y2="90.979">
      <stop offset="0" stop-color="#FFFFFF" />
      <stop offset="1" stop-color="#FFFFFF" stop-opacity="0.8" />
    </linearGradient>
  </defs>
  <g id="Группа">
    <path id="Путь" d="M60.799 125.717C50.6382 125.717 41.7481 123.953 34.1271 120.424C26.6167 116.785 20.3216 111.988 15.2412 106.032C10.1608 99.9676 6.35031 93.1852 3.81052 85.686C1.26991 78.1876 0 70.5228 0 62.6932C0 54.974 1.26991 47.3644 3.81052 39.8657C6.35031 32.3667 10.1608 25.6398 15.2412 19.6847C20.3216 13.6194 26.6167 8.82232 34.1271 5.29336C41.7481 1.76448 50.6382 0 60.799 0C69.3038 0 76.5378 1.1028 82.5012 3.3084C88.5758 5.40368 93.601 8.16064 97.5773 11.5793C101.663 14.8876 104.922 18.4717 107.351 22.3314C109.892 26.0809 111.769 29.6649 112.984 33.0835C114.199 36.3919 114.972 39.1489 115.303 41.3544C115.745 43.4498 115.966 44.4972 115.966 44.4972C115.966 44.4972 90.6189 44.4972 90.6189 44.4972C90.6189 44.4972 90.3986 43.7804 89.9563 42.347C89.6254 40.803 88.9075 38.9834 87.8027 36.8882C86.6986 34.6826 85.0417 32.5322 82.8329 30.4369C80.7345 28.3416 77.863 26.5771 74.2183 25.1435C70.6843 23.5996 66.2664 22.8277 60.9649 22.8277C53.3447 22.8277 46.9383 24.8126 41.7481 28.7827C36.6669 32.6424 32.8019 37.605 30.1508 43.6702C27.6109 49.7356 26.341 56.0764 26.341 62.6932C26.341 69.31 27.6109 75.706 30.1508 81.882C32.8019 87.9468 36.6669 92.9644 41.7481 96.9348C46.9383 100.795 53.3447 102.724 60.9649 102.724C66.2664 102.724 70.6843 102.008 74.2183 100.574C77.863 99.1404 80.7345 97.3756 82.8329 95.2804C85.0417 93.0748 86.6986 90.9244 87.8027 88.8292C88.9075 86.6236 89.6254 84.8044 89.9563 83.3708C90.3986 81.9372 90.6189 81.2204 90.6189 81.2204C90.6189 81.2204 115.966 81.2204 115.966 81.2204C115.966 81.2204 115.745 82.3228 115.303 84.5284C114.972 86.6236 114.199 89.3804 112.984 92.7996C111.769 96.1076 109.892 99.6916 107.351 103.552C104.922 107.301 101.663 110.885 97.5773 114.304C93.601 117.612 88.5758 120.369 82.5012 122.575C76.5378 124.67 69.3038 125.717 60.799 125.717C60.799 125.717 60.799 125.717 60.799 125.717Z" style="fill:url(#gradient_1);fill-rule:evenodd;mix-blend-mode:normal;" transform="translate(216.324 34)" />
    <path id="Фигура" d="M46.0546 90.9794C36.2255 90.9794 27.8866 88.8842 21.0395 84.6938C14.1916 80.393 8.94537 74.8242 5.30072 67.9866C1.76663 61.0394 0 53.5402 0 45.4898C0 37.4394 1.76663 29.9954 5.30072 23.1586C8.94537 16.2106 14.1916 10.6418 21.0395 6.45128C27.8866 2.1504 36.2255 0 46.0546 0C55.8845 0 64.2226 2.1504 71.0704 6.45128C77.9183 10.6418 83.1085 16.2106 86.6433 23.1586C90.288 29.9954 92.1099 37.4394 92.1099 45.4898C92.1099 53.5402 90.288 61.0394 86.6433 67.9866C83.1085 74.8242 77.9183 80.393 71.0704 84.6938C64.2226 88.8842 55.8845 90.9794 46.0546 90.9794C46.0546 90.9794 46.0546 90.9794 46.0546 90.9794ZM46.0545 70.468C50.4723 70.468 54.1722 69.3096 57.1543 66.9936C60.2469 64.6784 62.6217 61.6456 64.2778 57.896C65.9347 54.036 66.7631 49.9008 66.7631 45.4896C66.7631 40.968 65.9347 36.8328 64.2778 33.0832C62.6217 29.3336 60.2469 26.3008 57.1543 23.9856C54.1722 21.6696 50.4723 20.5112 46.0545 20.5112C41.6367 20.5112 37.8823 21.6696 34.7896 23.9856C31.697 26.3008 29.3222 29.3336 27.6661 33.0832C26.1198 36.8328 25.3466 40.968 25.3466 45.4896C25.3466 49.9008 26.1198 54.036 27.6661 57.896C29.3222 61.6456 31.697 64.6784 34.7896 66.9936C37.8823 69.3096 41.6367 70.468 46.0545 70.468C46.0545 70.468 46.0545 70.468 46.0545 70.468Z" style="fill:url(#gradient_2);mix-blend-mode:normal;" transform="translate(344.516 66)" />
    <path id="Путь" d="M27.3345 89.3253C21.1501 89.3253 16.0144 88.0021 11.9275 85.3557C7.9519 82.7085 4.96985 79.1797 2.98206 74.7685C0.9935 70.2477 0 65.1749 0 59.5501C0 59.5501 0 0 0 0L25.0151 0C25.0151 0 25.0151 54.5877 25.0151 54.5877C25.0151 58.7781 26.1199 62.1973 28.3288 64.8437C30.5377 67.3805 33.7954 68.6485 38.1027 68.6485C41.7473 68.6485 44.6188 67.7661 46.7172 66.0013C48.9261 64.2373 50.5276 61.9765 51.5219 59.2197C52.5154 56.4629 53.013 53.5405 53.013 50.4525C53.013 50.4525 53.013 0 53.013 0L78.1939 0L78.1939 87.6717L53.013 87.6717L53.013 75.2653C53.013 75.2653 52.0187 75.2653 52.0187 75.2653C50.1415 78.6837 47.2147 81.8821 43.2383 84.8589C39.3734 87.8365 34.0718 89.3253 27.3345 89.3253C27.3345 89.3253 27.3345 89.3253 27.3345 89.3253Z" style="fill:url(#gradient_3);fill-rule:evenodd;mix-blend-mode:normal;" transform="translate(456.684 66)" />
    <path id="Путь" d="M0 89.3258L0 1.65416L25.1809 1.65416L25.1809 14.2258C25.1809 14.2258 26.0093 14.2258 26.0093 14.2258C27.0037 12.461 28.4394 10.4762 30.3167 8.27088C32.3044 6.06528 34.9003 4.13544 38.1027 2.4812C41.4164 0.827042 45.6131 0 50.6935 0C57.5406 0 63.1185 1.59896 67.4258 4.79704C71.733 7.88488 74.8809 11.9098 76.8687 16.8722C78.8565 21.725 79.8508 26.853 79.8508 32.2562C79.8508 32.2562 79.8508 89.3258 79.8508 89.3258L54.6691 89.3258C54.6691 89.3258 54.6691 36.557 54.6691 36.557C54.6691 32.3666 53.5098 28.6722 51.1902 25.4746C48.9814 22.2762 45.392 20.677 40.4222 20.677C36.6669 20.677 33.6848 21.5594 31.476 23.3242C29.267 25.0882 27.6663 27.349 26.6719 30.1058C25.6777 32.8626 25.1809 35.785 25.1809 38.873C25.1809 38.873 25.1809 89.3258 25.1809 89.3258L0 89.3258L0 89.3258Z" style="fill:url(#gradient_4);fill-rule:evenodd;mix-blend-mode:normal;" transform="translate(544.816 66)" />
    <path id="Путь" d="M45.7236 110.995C38.8757 110.995 33.4092 110.003 29.3231 108.017C25.2361 105.922 22.1443 103.331 20.0452 100.243C17.9468 97.0454 16.5663 93.6815 15.9037 90.1526C15.2412 86.6238 14.9095 83.3703 14.9095 80.3927C14.9095 80.3927 14.9095 41.6854 14.9095 41.6854L0 41.6854L0 21.6698L14.9095 21.6698L14.9095 0L40.0912 0L40.0912 21.6698L58.8112 21.6698L58.8112 41.6854L40.0912 41.6854C40.0912 41.6854 40.0912 79.731 40.0912 79.731C40.0912 83.3703 41.0302 86.1823 42.9074 88.1678C44.8951 90.1526 48.1536 91.1454 52.682 91.1454C54.6698 91.1454 56.4918 90.9798 58.1486 90.6487C59.8055 90.3183 60.6339 90.1526 60.6339 90.1526C60.6339 90.1526 60.6339 109.506 60.6339 109.506C60.6339 109.506 59.1429 109.727 56.1608 110.168C53.1788 110.72 49.7 110.995 45.7236 110.995C45.7236 110.995 45.7236 110.995 45.7236 110.995Z" style="fill:url(#gradient_5);fill-rule:evenodd;mix-blend-mode:normal;" transform="translate(632.948 42)" />
    <path id="Путь" d="M30.4825 122.409L0 0L25.5118 0L47.2148 88.8294L69.9103 0L95.9205 0L118.614 88.6638L140.151 0L165.829 0L135.183 122.409L102.711 122.409L82.8328 44.4975L63.1186 122.409L30.4825 122.409L30.4825 122.409Z" style="fill:url(#gradient_6);fill-rule:evenodd;mix-blend-mode:normal;" transform="translate(705.056 34)" />
    <path id="Фигура" d="M14.9103 28.7827C10.4957 28.7827 6.90631 27.4042 4.14221 24.6473C1.38605 21.78 0 18.4166 0 14.5568C0 10.4765 1.38605 7.05784 4.14221 4.30088C6.90631 1.43368 10.4957 0 14.9103 0C19.1086 0 22.6418 1.43368 25.5182 4.30088C28.3865 7.05784 29.8206 10.4765 29.8206 14.5568C29.8206 18.4166 28.3865 21.78 25.5182 24.6473C22.6418 27.4042 19.1086 28.7827 14.9103 28.7827C14.9103 28.7827 14.9103 28.7827 14.9103 28.7827ZM2.32385 128.365L2.32385 40.6933L27.5055 40.6933L27.5055 128.365L2.32385 128.365L2.32385 128.365Z" style="fill:url(#gradient_7);mix-blend-mode:normal;" transform="translate(881.32 26)" />
    <g style="mix-blend-mode:normal;" transform="translate(918 0)">
      <path d="M9.20455 155L9.20455 140.568L51.9318 87.6704L51.9318 87.0454L10.6818 87.0454L10.6818 67.7273L81.0796 67.7273L81.0796 83.4659L40.9659 135.057L40.9659 135.682L82.5568 135.682L82.5568 155L9.20455 155Z" style="fill:#FFFFFF;" />
    </g>
    <path id="Фигура" d="M44.8992 90.9794C37.1677 90.9794 30.4857 89.7114 24.8531 87.1754C19.2207 84.5282 14.5818 81.0546 10.9364 76.7538C7.29095 72.3426 4.52679 67.4354 2.65198 62.0314C0.881348 56.6282 0 51.0586 0 45.3242C0 39.8106 0.833252 34.4066 2.48376 29.1138C4.25433 23.7098 6.90631 18.8026 10.4396 14.3914C14.0851 9.98024 18.6681 6.5064 24.1882 3.97C29.8207 1.32328 36.4467 0 44.066 0C52.134 0 59.2568 1.7644 65.442 5.29336C71.7314 8.82224 76.6509 14.0602 80.1841 21.0082C83.7174 27.845 85.488 36.1714 85.488 45.9858C85.488 45.9858 85.488 52.1066 85.488 52.1066C85.488 52.1066 25.3501 52.1066 25.3501 52.1066C25.6786 57.4002 27.5052 61.9762 30.8142 65.8362C34.2354 69.6962 38.9303 71.6258 44.8992 71.6258C48.3203 71.6258 51.0845 71.1298 53.1837 70.137C55.387 69.0346 57.1016 67.821 58.3193 66.4978C59.5292 65.0642 60.3624 63.7962 60.8031 62.693C61.2438 61.5906 61.4601 61.0394 61.4601 61.0394C61.4601 61.0394 84.6548 61.0394 84.6548 61.0394C84.6548 61.0394 84.3824 62.0866 83.8296 64.1818C83.3889 66.1666 82.3955 68.6482 80.8491 71.6258C79.3029 74.6034 77.0354 77.581 74.0549 80.5586C71.1786 83.5362 67.3729 86.017 62.6218 88.0018C57.8707 89.9874 51.9658 90.9794 44.8992 90.9794C44.8992 90.9794 44.8992 90.9794 44.8992 90.9794ZM25.3501 36.8873C25.3501 36.8873 61.2999 36.8873 61.2999 36.8873C60.9634 30.8217 59.1447 26.3001 55.8276 23.3233C52.5188 20.3457 48.4326 18.8569 43.5693 18.8569C38.7141 18.8569 34.5718 20.4553 31.1427 23.6537C27.7216 26.7417 25.7908 31.1529 25.3501 36.8873C25.3501 36.8873 25.3501 36.8873 25.3501 36.8873Z" style="fill:url(#gradient_8);mix-blend-mode:normal;" transform="translate(1010 64)" />
    <g id="Группа" transform="translate(0 18)">
      <g id="Группа">
        <path id="Овал" d="M0 76C0 34.0264 34.0775 0 76.114 0C118.151 0 152.228 34.0264 152.228 76C152.228 117.974 118.151 152 76.114 152C34.0775 152 0 117.974 0 76Z" style="fill-rule:evenodd;mix-blend-mode:normal;" />
        <g style="fill:#FFFFFF;fill-rule:evenodd;mix-blend-mode:normal;">
          <path id="Овал" d="M0 76C0 34.0265 34.0775 0 76.1142 0C118.151 0 176.264 76 176.264 76C176.264 76 118.151 152 76.1142 152C34.0775 152 0 117.974 0 76Z" />
          <path d="M76.1142 0C34.0775 0 0 34.0265 0 76C0 117.974 34.0775 152 76.1142 152C118.151 152 176.264 76 176.264 76C176.264 76 118.151 0 76.1142 0ZM163.536 76Q151.082 60.6333 135.026 45.2123Q98.3626 10 76.1142 10Q48.7244 10 29.3591 29.3363Q10 48.6664 10 76Q10 103.334 29.3591 122.664Q48.7243 142 76.1142 142Q98.3627 142 135.026 106.788Q151.082 91.3666 163.536 76Z" fill-rule="evenodd" style="fill:#6b9071;fill-rule:evenodd;" />
        </g>
        <path id="Фигура" d="M72.1094 21L0 21C0 21 0 45.5001 0 45.5001C0 51.2991 4.84267 56.0002 10.8164 56.0002C10.8164 56.0002 61.293 56.0002 61.293 56.0002C67.2667 56.0002 72.1094 51.2991 72.1094 45.5001C72.1094 45.5001 72.1094 21 72.1094 21ZM30.9562 35.0013C30.9562 35.0013 31.3888 34.5778 31.3888 34.5778C32.7563 33.2054 32.7383 31.0224 31.3485 29.6713C29.9588 28.3203 27.71 28.2998 26.2943 29.6253C26.2943 29.6253 19.6999 36.0268 19.6999 36.0268C18.2924 37.3936 18.2924 39.6091 19.6999 40.9758C19.6999 40.9758 26.2943 47.3738 26.2943 47.3738C27.1996 48.2837 28.5401 48.6486 29.8007 48.3283C31.0613 48.008 32.0457 47.0524 32.3757 45.8286C32.7056 44.6049 32.3297 43.3036 31.3924 42.4248C31.3924 42.4248 30.9562 42.0013 30.9562 42.0013C30.9562 42.0013 46.8707 42.0013 46.8707 42.0013C48.862 42.0013 50.4762 40.4343 50.4762 38.5013C50.4762 36.5683 48.862 35.0013 46.8707 35.0013C46.8707 35.0013 30.9562 35.0013 30.9562 35.0013ZM10.8164 0C4.84267 0 0 4.70103 0 10.5C0 10.5 0 14.0001 0 14.0001L72.1094 14.0001C72.1094 14.0001 72.1094 10.5 72.1094 10.5C72.1094 4.70103 67.2667 0 61.293 0C61.293 0 10.8164 0 10.8164 0Z" style="fill:#6b9071;fill-rule:evenodd;mix-blend-mode:normal;" transform="translate(40.06 48)" />
      </g>
    </g>
  </g>
</svg>