<svg width="96" height="96" viewBox="0 0 96 96" fill="none" xmlns="http://www.w3.org/2000/svg">
<path d="M95.0502 57.2347L88.6349 54.5665L88.7624 53.3289L93.9161 52.452L89.0599 50.4413L89.1768 49.2123L96 48.0154L95.8804 49.1762L90.3477 49.9941L95.5839 52.0542L95.4574 53.2822L89.9523 54.1127L95.1708 56.0643L95.0502 57.2347Z" fill="#C1F2CA"/>
<path d="M90.8475 57.2408C91.3565 57.3892 91.7769 57.6257 92.109 57.9501C92.4393 58.2807 92.6594 58.6595 92.7692 59.0865C92.8834 59.5214 92.8767 59.9613 92.7488 60.406C92.6335 60.8074 92.4535 61.1331 92.2088 61.3831C91.9686 61.6411 91.7062 61.8256 91.4217 61.9368L92.1575 62.1513L91.8513 63.2168L86.7837 61.7389L87.0899 60.6735L87.8441 60.8934C87.6564 60.6446 87.5273 60.3425 87.4566 59.9872C87.3859 59.6319 87.4074 59.2566 87.521 58.8613C87.6471 58.4228 87.8728 58.0535 88.1983 57.7535C88.5299 57.4552 88.926 57.2561 89.3867 57.1562C89.8517 57.0642 90.3386 57.0924 90.8475 57.2408ZM89.6283 61.4138C89.9778 61.5157 90.3026 61.5301 90.6027 61.4569C90.9011 61.39 91.1514 61.2588 91.3538 61.0635C91.5561 60.8681 91.6963 60.6345 91.7744 60.3628C91.8525 60.091 91.8579 59.8181 91.7904 59.5441C91.7291 59.2718 91.591 59.024 91.3761 58.8007C91.1655 58.5853 90.8855 58.4267 90.536 58.3248C90.1865 58.2228 89.8596 58.2045 89.5551 58.2696C89.2488 58.341 88.9915 58.4734 88.783 58.667C88.5789 58.8686 88.4386 59.1021 88.3623 59.3677C88.2842 59.6395 88.2789 59.9124 88.3463 60.1864C88.4137 60.4604 88.5558 60.706 88.7725 60.9232C88.9935 61.1483 89.2788 61.3118 89.6283 61.4138Z" fill="#C1F2CA"/>
<path d="M89.8887 65.6809L87.1922 64.5515C87.0095 64.475 86.8597 64.461 86.7429 64.5095C86.6295 64.5665 86.5299 64.6989 86.4442 64.9067L86.1868 65.5301L85.347 65.1783L85.6778 64.3768C85.8665 63.9196 86.1172 63.6138 86.4298 63.4592C86.7425 63.3047 87.1375 63.3274 87.615 63.5273L90.3115 64.6567L90.5504 64.0779L91.3726 64.4222L91.1337 65.0011L92.3449 65.5084L91.9221 66.5326L90.7109 66.0253L90.2183 67.2187L89.3961 66.8743L89.8887 65.6809Z" fill="#C1F2CA"/>
<path d="M87.564 66.8052C88.0398 67.0679 88.4047 67.3939 88.6587 67.7834C88.9152 68.1816 89.0478 68.6068 89.0567 69.0589C89.0655 69.511 88.9487 69.9598 88.7064 70.4053C88.3996 70.9692 88.0122 71.3602 87.5441 71.5784C87.0786 71.8053 86.5642 71.8477 86.001 71.7055L86.567 70.6651C86.8425 70.7072 87.0953 70.6708 87.3252 70.5558C87.5552 70.4407 87.7469 70.2423 87.9003 69.9603C88.115 69.5656 88.1468 69.1726 87.9958 68.7812C87.8473 68.3986 87.5239 68.0698 87.0257 67.7948C86.5275 67.5198 86.0755 67.4207 85.6699 67.4974C85.2612 67.5797 84.9494 67.8182 84.7347 68.2129C84.431 68.7712 84.4736 69.275 84.8625 69.7242L84.2965 70.7646C83.8999 70.3697 83.6629 69.9089 83.5855 69.3823C83.5136 68.8587 83.628 68.3206 83.9286 67.768C84.171 67.3225 84.4836 66.9819 84.8667 66.7461C85.2553 66.5133 85.6825 66.3972 86.1481 66.3976C86.6162 66.4067 87.0882 66.5426 87.564 66.8052Z" fill="#C1F2CA"/>
<path d="M85.0377 76.147C84.7975 76.4719 84.5148 76.7088 84.1897 76.8577C83.8608 77.0118 83.5074 77.0592 83.1293 77C82.7474 76.9459 82.3645 76.7748 81.9806 76.4867L79.4852 74.614L80.1316 73.74L82.4965 75.5148C82.8752 75.799 83.235 75.9207 83.5757 75.8797C83.9216 75.8426 84.2166 75.659 84.4606 75.329C84.7047 74.999 84.7968 74.6592 84.737 74.3096C84.6785 73.969 84.4598 73.6566 84.081 73.3723L81.7161 71.5975L82.3683 70.7158L88.0501 74.9799L87.398 75.8616L85.4554 74.4038C85.524 74.6878 85.523 74.9797 85.4524 75.2796C85.3781 75.5846 85.2398 75.8737 85.0377 76.147Z" fill="#C1F2CA"/>
<path d="M76.2836 79.3451L78.0855 83.555L77.2311 84.3432L75.1509 79.056L76.1113 78.1701L81.1501 80.7279L80.2886 81.5226L76.2836 79.3451Z" fill="#C1F2CA"/>
<path d="M76.0023 86.1288C76.1607 86.0093 76.3337 85.9631 76.5214 85.9902C76.709 86.0172 76.8622 86.1105 76.9808 86.2701C77.0995 86.4296 77.1454 86.6039 77.1185 86.7929C77.0916 86.9819 76.9989 87.1362 76.8406 87.2557C76.6873 87.3714 76.5169 87.4157 76.3292 87.3886C76.1416 87.3615 75.9884 87.2682 75.8698 87.1087C75.7511 86.9491 75.7052 86.7749 75.7321 86.5858C75.759 86.3968 75.8491 86.2445 76.0023 86.1288ZM75.1541 85.8892L71.9907 81.6362L72.8642 80.9769L76.0277 85.2299L75.1541 85.8892Z" fill="#C1F2CA"/>
<path d="M72.4249 84.7174C72.6957 85.1761 72.8423 85.6382 72.8645 86.1036C72.8813 86.5724 72.785 87.0004 72.5755 87.3877C72.3637 87.7839 72.0576 88.1019 71.6571 88.3419C71.3608 88.5193 71.0309 88.6272 70.6673 88.6655C70.3015 88.7125 69.9699 88.6792 69.6726 88.5656L70.9744 90.7707L70.028 91.3376L66.4065 85.2031L67.3529 84.6362L67.7591 85.3242C67.7822 85.0112 67.8885 84.7006 68.078 84.3926C68.262 84.0879 68.5296 83.8303 68.8807 83.62C69.2757 83.3833 69.6965 83.2659 70.1432 83.2677C70.5876 83.2783 71.0118 83.4057 71.4159 83.6498C71.8178 83.9029 72.1541 84.2587 72.4249 84.7174ZM68.7036 86.9242C68.8896 87.2392 69.1169 87.4733 69.3856 87.6266C69.6488 87.7831 69.9206 87.8597 70.2008 87.8564C70.4811 87.8531 70.7419 87.7791 70.9833 87.6345C71.2247 87.4899 71.4138 87.2944 71.5505 87.0479C71.6905 86.807 71.7578 86.531 71.7524 86.22C71.7448 85.9178 71.648 85.6092 71.4621 85.2942C71.2761 84.9792 71.0499 84.7407 70.7834 84.5786C70.5114 84.4198 70.2337 84.3394 69.9502 84.3371C69.6644 84.3437 69.4036 84.4177 69.1677 84.559C68.9263 84.7036 68.7372 84.8991 68.6005 85.1456C68.4638 85.3921 68.4009 85.6692 68.4117 85.9769C68.4203 86.2934 68.5176 86.6092 68.7036 86.9242Z" fill="#C1F2CA"/>
<path d="M62.0306 90.1103C61.9544 89.9263 61.8974 89.7552 61.8596 89.5969L65.5801 88.0343C65.3885 87.6549 65.114 87.401 64.7565 87.2725C64.399 87.144 64.0317 87.1589 63.6547 87.3173C63.1127 87.5449 62.8243 87.9343 62.7895 88.4853L61.7025 88.9418C61.6631 88.4289 61.7777 87.9454 62.0462 87.4913C62.3112 87.0456 62.7295 86.7027 63.3009 86.4627C63.7664 86.2672 64.2277 86.1954 64.6848 86.2472C65.1385 86.3074 65.55 86.4829 65.9194 86.7737C66.2852 87.0728 66.5726 87.4746 66.7814 87.9791C66.9902 88.4835 67.073 88.9677 67.0299 89.4317C66.9834 89.9041 66.8205 90.3208 66.5412 90.6819C66.256 91.0456 65.8748 91.3276 65.3975 91.528C64.938 91.721 64.4868 91.7921 64.0439 91.7413C63.601 91.6904 63.2032 91.5231 62.8506 91.2393C62.5004 90.9614 62.2271 90.585 62.0306 90.1103ZM63.2149 89.9891C63.3755 90.3605 63.6321 90.6045 63.9847 90.7211C64.3373 90.8378 64.705 90.8157 65.088 90.6548C65.4356 90.5088 65.6865 90.2711 65.8406 89.9417C65.9971 89.6182 66.0204 89.2566 65.9103 88.857L63.2149 89.9891Z" fill="#C1F2CA"/>
<path d="M58.0682 88.2386C58.5505 88.114 59.0142 88.1104 59.4592 88.2277C59.9058 88.3513 60.2912 88.5837 60.6152 88.9248C60.9409 89.2721 61.1711 89.7105 61.3059 90.2399C61.4391 90.7631 61.4429 91.2567 61.3172 91.7206C61.1915 92.1846 60.9585 92.5767 60.6183 92.8969C60.2781 93.2171 59.8637 93.4403 59.3752 93.5665C58.8868 93.6927 58.4169 93.6979 57.9657 93.5821C57.5145 93.4664 57.123 93.2356 56.7911 92.8899C56.4593 92.5441 56.2268 92.1097 56.0936 91.5865C55.9604 91.0633 55.9597 90.5689 56.0916 90.1034C56.2235 89.6378 56.4649 89.2402 56.8159 88.9106C57.1623 88.5888 57.5798 88.3648 58.0682 88.2386ZM58.3037 89.1635C58.0317 89.2338 57.7948 89.3647 57.5931 89.5562C57.3853 89.7493 57.2405 89.9958 57.1587 90.2957C57.0769 90.5956 57.0836 90.9324 57.1787 91.3061C57.2738 91.6798 57.425 91.976 57.6323 92.1946C57.8411 92.4195 58.0796 92.567 58.3479 92.6371C58.6161 92.7072 58.8863 92.7071 59.1583 92.6368C59.4304 92.5665 59.6672 92.4356 59.8689 92.2441C60.0644 92.0542 60.1968 91.8109 60.2663 91.5142C60.3373 91.2237 60.3252 90.8916 60.2301 90.5179C60.0889 89.9635 59.8404 89.5697 59.4845 89.3364C59.1239 89.1109 58.7303 89.0533 58.3037 89.1635Z" fill="#C1F2CA"/>
<path d="M48.4378 91.6378C48.6675 91.6333 48.8792 91.6839 49.0728 91.7894C49.2601 91.9015 49.413 92.0496 49.5314 92.2338C49.6436 92.4246 49.702 92.6356 49.7064 92.8671C49.7133 93.2207 49.5978 93.522 49.36 93.771C49.1222 94.0201 48.831 94.1479 48.4863 94.1547C48.1289 94.1617 47.8266 94.0454 47.5794 93.8059C47.3322 93.5663 47.2051 93.2698 47.1983 92.9162C47.1915 92.5626 47.307 92.2613 47.5448 92.0122C47.7827 91.7696 48.0804 91.6448 48.4378 91.6378Z" fill="#C1F2CA"/>
<path d="M30.9546 93.6632L34.541 87.6774L35.7363 87.9911L35.8193 93.2555L38.5252 88.723L39.7136 89.0249L39.8588 96L38.7376 95.7058L38.7697 90.0729L35.958 94.9763L34.772 94.665L34.7876 89.0577L32.085 93.9598L30.9546 93.6632Z" fill="#C1F2CA"/>
<path d="M31.5943 89.4705C31.3704 89.9542 31.0738 90.3364 30.7045 90.617C30.3294 90.8948 29.924 91.0556 29.4882 91.0993C29.044 91.1461 28.6136 91.0717 28.1971 90.8761C27.821 90.6995 27.5292 90.4702 27.3217 90.1883C27.1056 89.9095 26.9649 89.6199 26.8996 89.3197L26.576 90.019L25.578 89.5504L27.8071 84.7337L28.8051 85.2024L28.4734 85.9192C28.7463 85.7707 29.0625 85.6886 29.4219 85.6729C29.7813 85.6572 30.1461 85.7363 30.5164 85.9102C30.9272 86.1031 31.2547 86.3846 31.4989 86.7547C31.7404 87.1306 31.8748 87.5555 31.902 88.0294C31.9207 88.5064 31.8181 88.9868 31.5943 89.4705ZM27.6885 87.6151C27.5348 87.9473 27.4707 88.2683 27.4963 88.5783C27.5161 88.8856 27.6062 89.1549 27.7667 89.3864C27.9272 89.6178 28.1348 89.7933 28.3893 89.9128C28.6439 90.0324 28.9108 90.0797 29.1899 90.0547C29.4664 90.0356 29.7307 89.9362 29.9829 89.7566C30.2265 89.5802 30.4252 89.3259 30.5789 88.9937C30.7327 88.6615 30.801 88.3389 30.7839 88.0258C30.761 87.71 30.6707 87.4334 30.5128 87.1962C30.3465 86.962 30.139 86.7865 29.8902 86.6697C29.6357 86.5501 29.3688 86.5029 29.0896 86.5278C28.8105 86.5528 28.5477 86.6564 28.3014 86.8387C28.0465 87.0241 27.8423 87.2829 27.6885 87.6151Z" fill="#C1F2CA"/>
<path d="M23.4692 87.2141L24.9896 84.7025C25.0926 84.5323 25.1292 84.3853 25.0995 84.2616C25.0609 84.14 24.9463 84.0206 24.7555 83.9035L24.1833 83.552L24.6568 82.7697L25.3926 83.2216C25.8122 83.4794 26.0739 83.7757 26.1778 84.1106C26.2816 84.4454 26.1989 84.8352 25.9297 85.2799L24.4094 87.7915L24.9407 88.1179L24.4771 88.8837L23.9458 88.5574L23.2629 89.6855L22.3228 89.1081L23.0057 87.9799L21.9102 87.307L22.3738 86.5412L23.4692 87.2141Z" fill="#C1F2CA"/>
<path d="M22.7643 84.7431C22.4343 85.1769 22.0588 85.4906 21.6381 85.6842C21.2083 85.879 20.771 85.9464 20.326 85.8864C19.8811 85.8263 19.4585 85.6418 19.0583 85.3328C18.5517 84.9416 18.2269 84.4964 18.084 83.9972C17.9322 83.4992 17.9689 82.9806 18.1941 82.4416L19.1288 83.1633C19.0456 83.4312 19.0429 83.6884 19.1207 83.9349C19.1986 84.1813 19.3642 84.4024 19.6175 84.5979C19.9721 84.8718 20.3529 84.9632 20.7598 84.8724C21.1578 84.7827 21.5296 84.5108 21.8752 84.0566C22.2209 83.6024 22.3869 83.1675 22.3734 82.752C22.3547 82.3325 22.1681 81.9859 21.8135 81.7121C21.312 81.3248 20.8112 81.2906 20.3112 81.6094L19.3766 80.8877C19.8243 80.5529 20.3125 80.387 20.841 80.39C21.3657 80.3981 21.8762 80.5939 22.3727 80.9772C22.7729 81.2862 23.0596 81.6494 23.2327 82.0666C23.4019 82.4889 23.4509 82.9319 23.3797 83.3954C23.2995 83.8601 23.0944 84.3093 22.7643 84.7431Z" fill="#C1F2CA"/>
<path d="M13.9759 80.773C13.6946 80.4836 13.5061 80.1655 13.4104 79.8189C13.3103 79.4678 13.3186 79.1086 13.4353 78.7416C13.5475 78.3699 13.7747 78.0154 14.1168 77.6781L16.3403 75.4851L17.0973 76.2639L14.99 78.3421C14.6525 78.675 14.4774 79.0141 14.4647 79.3596C14.4475 79.7095 14.5818 80.0315 14.8676 80.3256C15.1534 80.6196 15.4724 80.764 15.8245 80.7586C16.1676 80.7532 16.5079 80.584 16.8454 80.2512L18.9527 78.173L19.7163 78.9586L14.6534 83.9517L13.8898 83.166L15.6208 81.459C15.3316 81.4832 15.0455 81.4369 14.7624 81.3202C14.4747 81.1989 14.2126 81.0165 13.9759 80.773Z" fill="#C1F2CA"/>
<path d="M12.2091 71.5814L7.80073 72.721L7.16041 71.7484L12.6684 70.4991L13.3881 71.5923L10.0974 76.2094L9.45181 75.2288L12.2091 71.5814Z" fill="#C1F2CA"/>
<path d="M5.60595 70.2603C5.69848 70.4365 5.71684 70.6158 5.66103 70.7983C5.60521 70.9808 5.48985 71.1187 5.31494 71.2119C5.14003 71.3051 4.96198 71.3236 4.78082 71.2673C4.59965 71.2111 4.4628 71.0949 4.37027 70.9187C4.28073 70.7482 4.26386 70.5717 4.31967 70.3892C4.37548 70.2067 4.49085 70.0689 4.66576 69.9756C4.84067 69.8824 5.01872 69.864 5.19988 69.9202C5.38105 69.9764 5.51641 70.0898 5.60595 70.2603ZM5.97307 69.4536L10.6365 66.9687L11.1469 67.9406L6.48346 70.4255L5.97307 69.4536Z" fill="#C1F2CA"/>
<path d="M7.53219 66.9135C7.04001 67.1111 6.56401 67.1844 6.10417 67.1337C5.64196 67.0769 5.23739 66.914 4.89045 66.6449C4.53521 66.3722 4.27136 66.0178 4.09888 65.5817C3.9713 65.2592 3.91723 64.914 3.93669 64.5463C3.94785 64.175 4.03244 63.8503 4.19046 63.5723L1.82447 64.5219L1.4169 63.4916L7.999 60.8498L8.40657 61.8801L7.6683 62.1764C7.97165 62.2485 8.25948 62.4029 8.53179 62.6397C8.80174 62.8705 9.01232 63.1771 9.16353 63.5594C9.33364 63.9894 9.38284 64.4265 9.31113 64.8706C9.23112 65.3111 9.03975 65.7132 8.73701 66.077C8.42597 66.4371 8.02436 66.716 7.53219 66.9135ZM5.95162 62.8655C5.61362 63.0011 5.34845 63.1906 5.1561 63.4339C4.96139 63.6713 4.8437 63.9296 4.80302 64.209C4.76235 64.4883 4.79399 64.7594 4.89795 65.0222C5.00191 65.285 5.164 65.5038 5.38424 65.6784C5.59855 65.8554 5.85858 65.9656 6.16434 66.009C6.4618 66.0488 6.77954 66.0009 7.11754 65.8652C7.45554 65.7296 7.72486 65.5419 7.9255 65.3021C8.12378 65.0564 8.24622 64.7927 8.29282 64.511C8.33113 64.2257 8.29949 63.9546 8.19789 63.6977C8.09393 63.4349 7.93184 63.2162 7.7116 63.0416C7.49136 62.8669 7.22954 62.7609 6.92615 62.7235C6.61446 62.6825 6.28962 62.7298 5.95162 62.8655Z" fill="#C1F2CA"/>
<path d="M3.85903 55.7738C4.05122 55.7263 4.22785 55.696 4.38892 55.6827L5.34831 59.6265C5.7499 59.4943 6.04126 59.2602 6.22241 58.9242C6.40355 58.5882 6.44551 58.2203 6.34828 57.8206C6.20851 57.2461 5.87107 56.8991 5.33596 56.7796L5.05566 55.6273C5.56483 55.6672 6.02144 55.8557 6.42549 56.1929C6.82183 56.5253 7.09368 56.9945 7.24105 57.6003C7.36106 58.0936 7.36043 58.5638 7.23915 59.0108C7.11015 59.4531 6.87461 59.8357 6.53251 60.1584C6.1827 60.4765 5.74431 60.7006 5.21733 60.8306C4.69035 60.9607 4.20264 60.9686 3.7542 60.8542C3.29804 60.7351 2.91437 60.5087 2.60319 60.175C2.29049 59.8352 2.07261 59.4123 1.94955 58.9064C1.83105 58.4193 1.83086 57.9592 1.94898 57.5263C2.0671 57.0933 2.29253 56.7232 2.62526 56.4159C2.95179 56.1103 3.36305 55.8962 3.85903 55.7738ZM3.79542 56.9712C3.40635 57.0738 3.12745 57.2916 2.9587 57.6246C2.78996 57.9575 2.75496 58.327 2.85371 58.7329C2.94334 59.1014 3.13786 59.3877 3.43726 59.5918C3.73046 59.7975 4.08153 59.8763 4.49046 59.8284L3.79542 56.9712Z" fill="#C1F2CA"/>
<path d="M6.27861 52.0486C6.32811 52.5476 6.2617 53.0099 6.07938 53.4353C5.89071 53.8614 5.60454 54.2101 5.22089 54.4814C4.83089 54.7532 4.36594 54.9163 3.82606 54.9707C3.29253 55.0244 2.8076 54.9536 2.37126 54.7585C1.93493 54.5633 1.5853 54.2722 1.32238 53.8851C1.05946 53.4979 0.902934 53.0517 0.852798 52.5462C0.802662 52.0408 0.868438 51.5721 1.05013 51.1403C1.23181 50.7084 1.51734 50.3533 1.90671 50.0751C2.29608 49.7968 2.75753 49.6308 3.29106 49.5771C3.82459 49.5234 4.30984 49.5973 4.74681 49.7989C5.18378 50.0005 5.53753 50.3009 5.80807 50.7001C6.07163 51.0937 6.22848 51.5431 6.27861 52.0486ZM5.33541 52.1435C5.30748 51.862 5.21477 51.6064 5.05727 51.3767C4.89914 51.1406 4.67907 50.9592 4.39708 50.8325C4.11508 50.7058 3.78354 50.6616 3.40244 50.7C3.02135 50.7383 2.70789 50.8442 2.46208 51.0175C2.20991 51.1915 2.02919 51.4068 1.91992 51.6634C1.81066 51.9199 1.76998 52.189 1.79791 52.4705C1.82583 52.752 1.91854 53.0076 2.07604 53.2373C2.23291 53.4606 2.4517 53.6292 2.73243 53.7431C3.0068 53.8577 3.33454 53.8958 3.71563 53.8574C4.28092 53.8005 4.7049 53.6125 4.98757 53.2932C5.26325 52.9682 5.3792 52.585 5.33541 52.1435Z" fill="#C1F2CA"/>
<path d="M4.12468 44.2437C4.10709 44.4745 4.03686 44.6818 3.91401 44.8658C3.78527 45.0429 3.62422 45.182 3.43086 45.2831C3.23162 45.3773 3.01744 45.4156 2.78832 45.3978C2.43827 45.3708 2.15161 45.2261 1.92833 44.9637C1.70505 44.7014 1.60661 44.3971 1.633 44.0509C1.66037 43.6919 1.80426 43.3999 2.06468 43.175C2.3251 42.9501 2.63033 42.8512 2.98038 42.8783C3.33042 42.9053 3.61708 43.05 3.84036 43.3124C4.05728 43.5742 4.15205 43.8846 4.12468 44.2437Z" fill="#C1F2CA"/>
<path d="M2.62524 29.0278L8.44038 32.8445L8.08798 34.037L2.86214 33.9392L7.26571 36.8195L6.92522 38.0055L0 37.9113L0.330546 36.7928L5.91799 37.0191L1.15008 34.0196L1.49975 32.8363L7.0624 33.0452L2.29197 30.1555L2.62524 29.0278Z" fill="#C1F2CA"/>
<path d="M6.73453 29.846C6.26173 29.6052 5.892 29.2944 5.62536 28.9136C5.36159 28.5271 5.21499 28.1138 5.18555 27.6737C5.15329 27.2249 5.24085 26.794 5.44822 26.3808C5.63544 26.0079 5.87222 25.7214 6.15858 25.5214C6.44212 25.3127 6.73389 25.1803 7.03388 25.1242L6.35031 24.776L6.84715 23.7862L11.5553 26.1841L11.0584 27.174L10.3578 26.8171C10.4964 27.0967 10.5678 27.4176 10.5718 27.78C10.5759 28.1423 10.4858 28.5071 10.3015 28.8743C10.097 29.2817 9.80725 29.6025 9.43224 29.8366C9.05154 30.0678 8.62565 30.1895 8.15457 30.2018C7.68068 30.2054 7.20733 30.0868 6.73453 29.846ZM8.70009 25.9728C8.37539 25.8074 8.05886 25.7327 7.75048 25.7485C7.44498 25.7587 7.17485 25.8408 6.94008 25.9951C6.70531 26.1493 6.52456 26.3526 6.39783 26.6051C6.2711 26.8576 6.21567 27.1248 6.23155 27.4067C6.24172 27.6856 6.33187 27.9549 6.502 28.2145C6.66931 28.4654 6.91531 28.6736 7.24001 28.8389C7.5647 29.0043 7.88265 29.0834 8.19384 29.0762C8.50791 29.0632 8.78518 28.9811 9.02565 28.8298C9.2633 28.6698 9.44405 28.4664 9.5679 28.2197C9.69463 27.9672 9.75006 27.7 9.73418 27.4182C9.71831 27.1363 9.62387 26.8684 9.45087 26.6146C9.27504 26.3521 9.02479 26.1382 8.70009 25.9728Z" fill="#C1F2CA"/>
<path d="M9.27634 21.6449L11.716 23.2618C11.8813 23.3714 12.0258 23.4133 12.1496 23.3876C12.2715 23.353 12.3939 23.2417 12.5167 23.0537L12.8851 22.4896L13.645 22.9933L13.1713 23.7184C12.9012 24.132 12.5982 24.3853 12.2624 24.4783C11.9266 24.5713 11.5427 24.4747 11.1107 24.1884L8.67113 22.5715L8.32905 23.0953L7.58517 22.6023L7.92724 22.0785L6.83142 21.3522L7.43663 20.4256L8.53246 21.1519L9.23767 20.0722L9.98155 20.5653L9.27634 21.6449Z" fill="#C1F2CA"/>
<path d="M11.7447 21.0017C11.3254 20.6548 11.0268 20.2663 10.8488 19.8362C10.67 19.397 10.6179 18.9544 10.6923 18.5085C10.7668 18.0626 10.9641 17.6433 11.2842 17.2508C11.6893 16.7539 12.1419 16.4419 12.642 16.3148C13.1413 16.1787 13.6545 16.2331 14.1818 16.4779L13.4343 17.3947C13.1713 17.3019 12.9162 17.2905 12.669 17.3606C12.4219 17.4307 12.197 17.59 11.9945 17.8385C11.7109 18.1863 11.6073 18.5666 11.6838 18.9793C11.7594 19.383 12.0167 19.7664 12.4557 20.1297C12.8947 20.4929 13.3206 20.6746 13.7333 20.675C14.1501 20.6703 14.5003 20.4941 14.7839 20.1463C15.185 19.6544 15.2358 19.1514 14.9363 18.6373L15.6838 17.7206C16.0009 18.1826 16.1491 18.6797 16.1283 19.2117C16.1026 19.7396 15.8912 20.247 15.4942 20.734C15.1742 21.1265 14.8042 21.4029 14.3845 21.5632C13.9598 21.7193 13.5187 21.7538 13.0612 21.6665C12.6028 21.5702 12.164 21.3486 11.7447 21.0017Z" fill="#C1F2CA"/>
<path d="M15.9009 12.3265C16.1965 12.0518 16.5177 11.8714 16.8644 11.7854C17.2159 11.695 17.572 11.714 17.9328 11.8424C18.2982 11.9665 18.6432 12.2058 18.9678 12.5602L21.0778 14.8642L20.2825 15.6032L18.283 13.4197C17.9627 13.07 17.6313 12.8836 17.289 12.8606C16.9422 12.8329 16.6187 12.9585 16.3185 13.2376C16.0182 13.5166 15.8655 13.8335 15.8603 14.1882C15.8555 14.5338 16.0133 14.8815 16.3335 15.2312L18.3331 17.4147L17.5308 18.1602L12.7266 12.9142L13.5289 12.1687L15.1714 13.9623C15.156 13.6704 15.2104 13.3837 15.3346 13.102C15.4635 12.8161 15.6523 12.5575 15.9009 12.3265Z" fill="#C1F2CA"/>
<path d="M25.1848 10.7393L24.2056 6.26212L25.1925 5.65088L26.2428 11.2388L25.1336 11.9259L20.6657 8.45453L21.6608 7.83823L25.1848 10.7393Z" fill="#C1F2CA"/>
<path d="M26.7122 4.13514C26.5341 4.22205 26.3555 4.23419 26.1765 4.17154C25.9974 4.1089 25.8647 3.98788 25.7784 3.8085C25.6921 3.62911 25.6801 3.44922 25.7423 3.26883C25.8045 3.08844 25.9246 2.95479 26.1027 2.86788C26.275 2.78377 26.4507 2.77304 26.6298 2.83569C26.8089 2.89833 26.9416 3.01935 27.0278 3.19873C27.1141 3.37812 27.1262 3.558 27.064 3.7384C27.0018 3.91879 26.8845 4.05104 26.7122 4.13514ZM27.4995 4.53328L29.7997 9.3159L28.8174 9.7953L26.5172 5.01268L27.4995 4.53328Z" fill="#C1F2CA"/>
<path d="M29.7299 6.27969C29.5502 5.77764 29.4931 5.29598 29.5587 4.8347C29.6303 4.37125 29.8054 3.96933 30.0839 3.62894C30.3662 3.28033 30.7265 3.02641 31.1649 2.8672C31.4891 2.74943 31.8334 2.70642 32.1976 2.73818C32.5656 2.76171 32.885 2.85762 33.1556 3.02591L32.2917 0.612448L33.3275 0.236227L35.7308 6.95037L34.695 7.32659L34.4254 6.57352C34.3439 6.87654 34.1811 7.1612 33.9372 7.42752C33.6992 7.69166 33.3881 7.89352 33.0038 8.0331C32.5715 8.19013 32.1362 8.2252 31.698 8.1383C31.2636 8.04318 30.8709 7.8372 30.52 7.52036C30.173 7.1953 29.9096 6.78174 29.7299 6.27969ZM33.7986 4.8224C33.6752 4.47762 33.496 4.20437 33.2609 4.00267C33.0319 3.79878 32.7794 3.67174 32.5036 3.62155C32.2278 3.57135 31.9578 3.59424 31.6936 3.6902C31.4294 3.78616 31.207 3.94212 31.0264 4.15807C30.8437 4.36797 30.7258 4.62612 30.6726 4.93251C30.6233 5.23067 30.6603 5.55215 30.7837 5.89693C30.9071 6.24171 31.0844 6.51906 31.3156 6.729C31.5529 6.93675 31.8105 7.06875 32.0884 7.125C32.3703 7.17301 32.6403 7.15013 32.8985 7.05634C33.1627 6.96038 33.3851 6.80442 33.5656 6.58847C33.7462 6.37252 33.86 6.11244 33.9072 5.80823C33.9582 5.49579 33.922 5.16718 33.7986 4.8224Z" fill="#C1F2CA"/>
<path d="M41.1892 2.89107C41.2288 3.08638 41.252 3.26535 41.2588 3.428L37.3092 4.2396C37.4247 4.64899 37.6455 4.95141 37.9718 5.14687C38.298 5.34233 38.6612 5.39894 39.0615 5.31669C39.6369 5.19845 39.9943 4.87235 40.1338 4.3384L41.2877 4.10128C41.2283 4.61222 41.0235 5.06446 40.6732 5.458C40.3279 5.84395 39.8519 6.09925 39.2452 6.22392C38.7511 6.32545 38.2848 6.30644 37.8461 6.1669C37.4124 6.01978 37.0421 5.76774 36.7353 5.41079C36.4335 5.04626 36.2283 4.59624 36.1199 4.06072C36.0114 3.5252 36.0227 3.03399 36.1537 2.58707C36.2897 2.13258 36.5292 1.75524 36.8723 1.45505C37.2217 1.15357 37.6497 0.950784 38.1563 0.846684C38.6441 0.746438 39.1005 0.764221 39.5254 0.900031C39.9503 1.03584 40.3086 1.2772 40.6004 1.62412C40.8909 1.96474 41.0871 2.38705 41.1892 2.89107ZM40.0039 2.78027C39.9173 2.38464 39.7121 2.0954 39.3884 1.91254C39.0648 1.72968 38.6997 1.68002 38.2931 1.76355C37.9241 1.83938 37.6325 2.02399 37.4183 2.31737C37.2028 2.60446 37.1109 2.95475 37.1425 3.36824L40.0039 2.78027Z" fill="#C1F2CA"/>
<path d="M44.5752 5.48685C44.0783 5.51799 43.6222 5.43384 43.207 5.23438C42.7914 5.02851 42.4562 4.7274 42.2015 4.33105C41.9463 3.92828 41.8019 3.45415 41.7682 2.90866C41.7349 2.36959 41.8233 1.88409 42.0332 1.45218C42.2432 1.02026 42.5451 0.679218 42.9389 0.429047C43.3328 0.178877 43.7814 0.038019 44.2847 0.00647308C44.788 -0.0250728 45.2504 0.0586832 45.672 0.257741C46.0937 0.456799 46.4352 0.757512 46.6967 1.15988C46.9582 1.56224 47.1056 2.03296 47.1389 2.57204C47.1722 3.11111 47.0807 3.59681 46.8643 4.02912C46.648 4.46144 46.3367 4.80629 45.9305 5.06367C45.5303 5.31424 45.0785 5.4553 44.5752 5.48685ZM44.5164 4.53384C44.7967 4.51627 45.0537 4.43252 45.2875 4.28257C45.5276 4.13223 45.7158 3.9175 45.8521 3.63838C45.9883 3.35926 46.0446 3.02717 46.0208 2.64212C45.997 2.25707 45.9037 1.93757 45.7409 1.68364C45.5778 1.42328 45.371 1.23331 45.1205 1.11371C44.8701 0.99412 44.6048 0.943107 44.3244 0.960677C44.0441 0.978247 43.7871 1.062 43.5533 1.21195C43.3259 1.36149 43.1505 1.57542 43.0269 1.85374C42.903 2.12565 42.853 2.45413 42.8768 2.83918C42.912 3.41034 43.0827 3.84417 43.3889 4.14066C43.7009 4.43033 44.0768 4.56139 44.5164 4.53384Z" fill="#C1F2CA"/>
<path d="M54.8194 3.95061C54.5931 3.91047 54.3951 3.81984 54.2253 3.67874C54.0629 3.53241 53.9412 3.35739 53.8601 3.15368C53.7865 2.94474 53.7696 2.72629 53.8094 2.49832C53.8703 2.15003 54.0412 1.87676 54.3222 1.67849C54.6031 1.48023 54.9133 1.41121 55.2528 1.47142C55.6049 1.53387 55.8793 1.7066 56.0761 1.98961C56.2729 2.27262 56.3409 2.58827 56.28 2.93656C56.2191 3.28485 56.0482 3.55812 55.7673 3.75638C55.4874 3.94831 55.1715 4.01306 54.8194 3.95061Z" fill="#C1F2CA"/>
<path d="M72.1911 5.20038L67.553 10.4016L66.4375 9.86751L67.3369 4.68101L63.8345 8.62124L62.7235 8.09998L63.8807 1.22145L64.9271 1.72244L63.8459 7.2491L67.5214 2.96456L68.6283 3.49453L67.5681 8.9992L71.1361 4.69525L72.1911 5.20038Z" fill="#C1F2CA"/>
<path d="M70.8473 9.21461C71.1572 8.78173 71.5196 8.46233 71.9346 8.2564C72.3547 8.05424 72.7829 7.97283 73.219 8.01217C73.6641 8.05006 74.073 8.2044 74.4458 8.47517C74.7823 8.71962 75.0263 8.99991 75.1778 9.31603C75.3381 9.63069 75.4225 9.94165 75.4307 10.2489L75.8787 9.62304L76.7719 10.2718L73.6862 14.5824L72.7931 13.9336L73.2523 13.2921C72.9565 13.3865 72.6307 13.4074 72.2747 13.355C71.9188 13.3025 71.5752 13.156 71.2438 12.9153C70.8762 12.6483 70.6068 12.3099 70.4358 11.9003C70.2684 11.4854 70.2155 11.0427 70.277 10.5721C70.3473 10.1 70.5374 9.64749 70.8473 9.21461ZM74.3387 11.7744C74.5515 11.4771 74.6742 11.1738 74.7067 10.8645C74.7445 10.559 74.706 10.2774 74.5914 10.0197C74.4768 9.76209 74.3056 9.55053 74.0778 9.38506C73.85 9.21958 73.5966 9.12276 73.3177 9.09459C73.0426 9.06121 72.7645 9.10891 72.4834 9.2377C72.2113 9.36504 71.9688 9.57735 71.756 9.87463C71.5432 10.1719 71.416 10.4759 71.3746 10.7867C71.3383 11.1012 71.3756 11.3899 71.4865 11.6528C71.6063 11.9142 71.7775 12.1257 72.0001 12.2875C72.2279 12.4529 72.4813 12.5498 72.7602 12.5779C73.039 12.6061 73.3164 12.5539 73.5923 12.4214C73.8771 12.2873 74.1259 12.0717 74.3387 11.7744Z" fill="#C1F2CA"/>
<path d="M78.4627 12.9942L76.4982 15.1708C76.3651 15.3183 76.3016 15.4556 76.3076 15.5828C76.3226 15.7095 76.4128 15.8486 76.5781 16L77.074 16.4541L76.4621 17.1321L75.8245 16.5482C75.4608 16.2151 75.2595 15.8743 75.2204 15.5257C75.1813 15.1771 75.3357 14.8101 75.6835 14.4247L77.6479 12.248L77.1874 11.8263L77.7864 11.1626L78.2469 11.5843L79.1293 10.6066L79.944 11.3527L79.0617 12.3305L80.011 13.1998L79.412 13.8635L78.4627 12.9942Z" fill="#C1F2CA"/>
<path d="M78.7015 15.5376C79.1067 15.1741 79.534 14.9371 79.9834 14.8267C80.4419 14.7168 80.884 14.7335 81.3098 14.8767C81.7356 15.0199 82.1162 15.2812 82.4516 15.6606C82.8761 16.1407 83.1119 16.6395 83.159 17.1569C83.2152 17.6748 83.0823 18.1771 82.7605 18.6639L81.9772 17.778C82.109 17.5306 82.1597 17.2785 82.1292 17.0217C82.0987 16.7649 81.9774 16.5165 81.7651 16.2764C81.468 15.9402 81.111 15.7782 80.6944 15.7904C80.2868 15.8031 79.8708 15.9997 79.4466 16.3803C79.0223 16.7609 78.7781 17.1565 78.7138 17.5672C78.6537 17.9827 78.7723 18.3585 79.0695 18.6947C79.4897 19.17 79.9752 19.2985 80.5257 19.0801L81.309 19.9661C80.8067 20.21 80.2963 20.2805 79.7777 20.1774C79.264 20.07 78.7991 19.781 78.383 19.3104C78.0477 18.9311 77.8339 18.5201 77.7418 18.0776C77.6544 17.6307 77.689 17.1864 77.8455 16.7447C78.011 16.3034 78.2964 15.9011 78.7015 15.5376Z" fill="#C1F2CA"/>
<path d="M86.5885 21.048C86.8119 21.3848 86.939 21.7324 86.9695 22.0908C87.0036 22.4546 86.9297 22.806 86.7477 23.1451C86.5693 23.4895 86.2812 23.7957 85.8831 24.0637L83.2961 25.8057L82.6948 24.8996L85.1465 23.2487C85.5392 22.9843 85.7734 22.6835 85.8492 22.3464C85.9302 22.0056 85.8572 21.6642 85.6301 21.3221C85.4031 20.98 85.1161 20.7788 84.769 20.7186C84.4308 20.6602 84.0653 20.7632 83.6726 21.0276L81.2209 22.6785L80.6143 21.7644L86.5048 17.798L87.1114 18.7121L85.0975 20.0682C85.3861 20.0981 85.6588 20.1968 85.9158 20.3641C86.1762 20.5367 86.4005 20.7647 86.5885 21.048Z" fill="#C1F2CA"/>
<path d="M86.6557 30.4229L91.1977 30.1325L91.6465 31.2084L86.0038 31.3997L85.4994 30.1904L89.588 26.2734L90.0405 27.3582L86.6557 30.4229Z" fill="#C1F2CA"/>
<path d="M92.9408 33.061C92.8829 32.8704 92.8984 32.6907 92.9874 32.5221C93.0764 32.3535 93.2155 32.24 93.4047 32.1817C93.5939 32.1234 93.7722 32.1391 93.9396 32.2287C94.107 32.3183 94.2197 32.4585 94.2775 32.6491C94.3336 32.8335 94.3171 33.0101 94.2281 33.1787C94.1391 33.3473 94 33.4608 93.8108 33.5191C93.6216 33.5774 93.4433 33.5617 93.2759 33.4721C93.1085 33.3825 92.9968 33.2454 92.9408 33.061ZM92.4292 33.7834L87.3843 35.3379L87.065 34.2865L92.1099 32.732L92.4292 33.7834Z" fill="#C1F2CA"/>
<path d="M90.4177 35.9473C90.9379 35.846 91.4191 35.8636 91.8614 36.0001C92.3049 36.1429 92.6721 36.3791 92.963 36.7089C93.2613 37.0437 93.4547 37.4415 93.5432 37.9024C93.6087 38.2433 93.5977 38.5925 93.5103 38.9501C93.4304 39.3128 93.2871 39.6158 93.0802 39.8591L95.5808 39.3719L95.7899 40.4609L88.8334 41.8162L88.6243 40.7272L89.4046 40.5752C89.12 40.4473 88.8659 40.2414 88.6423 39.9575C88.42 39.6799 88.27 39.3391 88.1925 38.935C88.1052 38.4805 88.138 38.0419 88.2909 37.6191C88.4513 37.2015 88.7139 36.8425 89.0788 36.5422C89.4513 36.247 89.8975 36.0487 90.4177 35.9473ZM91.2189 40.2217C91.5761 40.1521 91.8718 40.0159 92.1059 39.8131C92.3413 39.6166 92.5048 39.385 92.5966 39.1183C92.6885 38.8515 92.7077 38.5793 92.6544 38.3015C92.601 38.0237 92.4824 37.7783 92.2985 37.5653C92.1208 37.351 91.8858 37.1938 91.5935 37.0936C91.3087 36.9984 90.9877 36.9857 90.6304 37.0553C90.2732 37.1248 89.9738 37.2585 89.7322 37.4562C89.4918 37.6602 89.3226 37.8962 89.2245 38.1642C89.1339 38.4372 89.1146 38.7095 89.1668 38.981C89.2201 39.2587 89.3387 39.5041 89.5227 39.7172C89.7066 39.9302 89.9441 40.0837 90.2352 40.1776C90.5338 40.2766 90.8617 40.2913 91.2189 40.2217Z" fill="#C1F2CA"/>
<path d="M91.9724 47.5951C91.7748 47.6058 91.5957 47.6026 91.4349 47.5855L91.2187 43.5308C90.7998 43.5857 90.4703 43.7613 90.2304 44.0576C89.9905 44.3539 89.8815 44.7075 89.9035 45.1184C89.935 45.7091 90.2026 46.1132 90.7064 46.3306L90.7696 47.5153C90.2766 47.381 89.8626 47.1104 89.5277 46.7035C89.1995 46.3027 89.0188 45.7909 88.9856 45.1681C88.9585 44.6609 89.0458 44.199 89.2473 43.7824C89.4555 43.3719 89.7575 43.04 90.1531 42.7868C90.5554 42.5397 91.0275 42.4014 91.5692 42.3721C92.111 42.3428 92.5917 42.4263 93.0113 42.6225C93.4376 42.8248 93.7729 43.119 94.0172 43.505C94.2619 43.8974 94.3981 44.3537 94.4258 44.8737C94.4525 45.3745 94.3679 45.8267 94.1721 46.23C93.9763 46.6334 93.6866 46.955 93.303 47.1947C92.9259 47.434 92.4823 47.5675 91.9724 47.5951ZM92.2555 46.4303C92.6567 46.4022 92.9709 46.2403 93.198 45.9447C93.4252 45.6491 93.5276 45.2926 93.5054 44.8752C93.4852 44.4964 93.3468 44.1787 93.0902 43.9222C92.84 43.6653 92.5095 43.5222 92.0988 43.4929L92.2555 46.4303Z" fill="#C1F2CA"/>
</svg>
