<svg width="36" height="36" viewBox="0 0 36 36" fill="none" xmlns="http://www.w3.org/2000/svg">
<path fill-rule="evenodd" clip-rule="evenodd" d="M20.1211 32.8362C20.0972 33.152 20.0084 33.466 19.8527 33.7572L19.2523 34.8799C19.4711 35.0056 19.6944 35.1375 19.9129 35.2575C20.4342 35.5442 21.0945 35.3258 21.3774 34.8105C21.6699 34.2787 21.4702 33.6095 20.9429 33.314C20.6704 33.1612 20.396 32.9918 20.1211 32.8362ZM12.6589 21.432C14.2943 23.1867 16.186 22.4213 17.9836 21.6936C19.6257 21.0288 21.2026 20.3905 22.705 21.2468L28.5508 24.5788C28.7594 24.6976 28.9424 24.8435 29.0974 25.0089C29.127 25.0405 29.1557 25.073 29.1834 25.106L30.053 24.7432L27.0715 17.0526C25.7437 17.7631 24.7797 17.3549 23.4744 16.8214C22.0494 16.2388 20.3797 15.5564 18.1072 17.1154C16.866 17.9634 15.8697 19.1706 14.6158 20.1121C13.9942 20.5787 13.3405 21.0182 12.6589 21.432ZM12.9332 27.4126C12.4576 27.1587 11.9128 27.0789 11.3846 27.1833C11.2913 26.4318 10.8422 25.7685 10.1708 25.4101C9.2559 24.9218 8.12354 25.1008 7.40177 25.8393C7.25778 25.0943 7.05806 24.3689 6.21642 24.0422C6.1661 24.0227 6.08216 23.9875 5.97231 23.9403L9.32804 16.348L9.71435 16.5262C10.8889 17.1784 11.9779 16.9233 13.1611 16.646C14.2251 16.3966 15.3818 16.1256 16.6915 16.7033C15.7356 17.4993 14.9063 18.4147 13.906 19.1659C13.2203 19.6807 12.4682 20.1736 11.6599 20.6454C11.2461 20.887 11.1391 21.4421 11.433 21.8205C13.6822 24.7146 16.1196 23.7279 18.4289 22.793C19.8002 22.2379 21.1171 21.7048 22.1205 22.2767L27.9664 25.6087C28.4869 25.9053 28.6995 26.565 28.4073 27.1007C28.1066 27.6212 27.4687 27.8374 26.9309 27.5451C25.5926 26.7794 24.2395 26.0367 22.9005 25.2702C22.6162 25.1075 22.2537 25.2062 22.0911 25.4906C21.9284 25.7749 22.027 26.1374 22.3114 26.3C23.6494 27.066 24.9945 27.8196 26.3396 28.573C26.8656 28.869 27.0693 29.5334 26.7763 30.0661C26.4931 30.5809 25.8079 30.7983 25.2901 30.5006L19.995 27.521C19.7093 27.3609 19.3479 27.4626 19.1879 27.7483C19.0278 28.034 19.1295 28.3954 19.4152 28.5554C20.8559 29.3661 22.2934 30.19 23.7339 30.9979C24.2649 31.2968 24.4636 31.9622 24.1676 32.4983C23.8737 33.0235 23.2066 33.2151 22.6795 32.9237L19.6017 31.1816C19.4066 30.9425 19.1672 30.7468 18.8951 30.6014C18.3289 30.2988 17.6699 30.2436 17.0624 30.445C16.8921 29.8273 16.4814 29.3097 15.9142 29.007C15.348 28.7048 14.689 28.6494 14.0815 28.8507C13.9114 28.233 13.5003 27.7152 12.9332 27.4126ZM15.6384 34.3796C15.5531 34.8641 15.7906 35.3609 16.2259 35.5936C16.781 35.8906 17.4812 35.6784 17.7781 35.1232L18.8073 33.1989C19.1044 32.6433 18.8876 31.9409 18.337 31.6467C17.8749 31.3998 17.2921 31.5039 16.9421 31.8925L15.6384 34.3796ZM15.9254 31.3491C16.0542 30.8418 15.8197 30.2999 15.3563 30.0526C14.8941 29.8059 14.3112 29.9094 13.9612 30.2982L12.5059 33.0895C12.4348 33.5668 12.671 34.0456 13.0981 34.2739C13.6019 34.5434 14.2386 34.3945 14.5712 33.9307L15.9254 31.3491ZM12.9445 29.7547C13.0733 29.2475 12.8387 28.7055 12.3754 28.4582C11.9461 28.2291 11.414 28.2992 11.0564 28.6269L9.36834 31.6475C9.07139 32.2027 9.28366 32.9029 9.83881 33.1998C10.4006 33.5002 11.0956 33.2812 11.3951 32.7218L12.9445 29.7547ZM10.115 27.9428C10.3636 27.3977 10.1421 26.7382 9.61297 26.4558C9.05751 26.1593 8.35748 26.3704 8.06031 26.9259L6.98696 28.9326C6.69008 29.4878 6.90227 30.188 7.45743 30.4848C7.88434 30.7131 8.41329 30.6443 8.77081 30.3207L10.115 27.9428ZM18 0.272461L25.8034 3.61676V9.92661C25.8034 12.1437 25.0431 14.1185 23.7585 15.661C23.2792 15.4659 22.776 15.2687 22.2376 15.1312C22.3683 14.9964 22.4939 14.8569 22.6139 14.7128C23.6857 13.4264 24.319 11.7841 24.319 9.92661V4.98706C24.319 4.72714 24.152 4.5062 23.9194 4.42582L18.2319 1.98832C18.0776 1.92271 17.9111 1.92754 17.768 1.98832L12.0427 4.442C11.8175 4.53781 11.6823 4.75676 11.6822 4.98706L11.6809 9.92661C11.6809 11.784 12.3142 13.4264 13.386 14.7128C13.5489 14.9082 13.7219 15.0953 13.9043 15.2736C13.5578 15.3351 13.2212 15.4139 12.892 15.491C12.6648 15.5442 12.4419 15.5965 12.2236 15.6393C10.9499 14.1 10.1965 12.1334 10.1965 9.92661V3.61676L18 0.272461ZM18 3.17783L12.8684 5.377V9.92654C12.8684 11.4978 13.3983 12.8802 14.2952 13.9566C14.689 14.4292 15.1543 14.8442 15.6773 15.1918C16.329 15.2672 17.0211 15.4802 17.7657 15.9229C18.8424 15.2505 19.7971 14.9848 20.6613 14.9511C21.0481 14.6576 21.3982 14.3245 21.7048 13.9565C22.6016 12.8801 23.1315 11.4978 23.1315 9.92647V5.377L18 3.17783ZM21.6299 8.34598C20.3631 9.62454 19.1049 10.9115 17.8322 12.1843C17.4601 12.5563 16.8566 12.5563 16.4845 12.1843L14.373 10.0728C14.0009 9.70077 14.0009 9.09722 14.373 8.72516C14.745 8.3531 15.3487 8.3531 15.7206 8.72516L17.1562 10.1607L20.2803 7.00551C20.65 6.63204 21.2534 6.63093 21.6258 7.00136C21.9981 7.37156 21.9993 7.97318 21.6299 8.34598ZM35.7429 24.1425L31.4889 13.1695C31.2832 12.6389 30.6808 12.3731 30.1502 12.5787L28.0378 13.3977C27.5073 13.6033 27.2415 14.2058 27.4471 14.7363L31.7011 25.7094C31.9068 26.24 32.5092 26.5057 33.0398 26.3001L35.1522 25.4812C35.6827 25.2756 35.9485 24.6731 35.7429 24.1425ZM29.8665 15.6849C29.4778 15.6849 29.1626 15.3698 29.1626 14.981C29.1626 14.5922 29.4778 14.277 29.8665 14.277C30.2553 14.277 30.5705 14.5922 30.5705 14.981C30.5705 15.3697 30.2553 15.6849 29.8665 15.6849ZM8.46977 12.793L6.39759 11.8772C5.87709 11.6471 5.263 11.8847 5.033 12.4052L0.275356 23.1695C0.045278 23.69 0.282926 24.304 0.803423 24.5341L2.87561 25.45C3.39603 25.6801 4.01012 25.4424 4.24012 24.9219L8.99784 14.1576C9.22784 13.6371 8.99027 13.0231 8.46977 12.793ZM6.53712 14.9931C6.14881 14.975 5.84852 14.6457 5.86655 14.2573C5.88459 13.8689 6.21397 13.5687 6.60236 13.5867C6.99074 13.6047 7.29096 13.9341 7.27292 14.3225C7.25489 14.7108 6.92543 15.0111 6.53712 14.9931Z" fill="#050B0C"/>
</svg>
