<svg width="386" height="8" viewBox="0 0 386 8" fill="none" xmlns="http://www.w3.org/2000/svg">
<path opacity="0.3" d="M385.354 4.35355C385.549 4.15829 385.549 3.84171 385.354 3.64645L382.172 0.464466C381.976 0.269204 381.66 0.269204 381.464 0.464466C381.269 0.659728 381.269 0.976311 381.464 1.17157L384.293 4L381.464 6.82843C381.269 7.02369 381.269 7.34027 381.464 7.53553C381.66 7.7308 381.976 7.7308 382.172 7.53553L385.354 4.35355ZM0 4.5H3.00781V3.5H0V4.5ZM9.02344 4.5H15.0391V3.5H9.02344V4.5ZM21.0547 4.5H27.0703V3.5H21.0547V4.5ZM33.0859 4.5H39.1016V3.5H33.0859V4.5ZM45.1172 4.5H51.1328V3.5H45.1172V4.5ZM57.1484 4.5H63.1641V3.5H57.1484V4.5ZM69.1797 4.5H75.1953V3.5H69.1797V4.5ZM81.2109 4.5H87.2266V3.5H81.2109V4.5ZM93.2422 4.5H99.2578V3.5H93.2422V4.5ZM105.273 4.5H111.289V3.5H105.273V4.5ZM117.305 4.5H123.32V3.5H117.305V4.5ZM129.336 4.5H135.352V3.5H129.336V4.5ZM141.367 4.5H147.383V3.5H141.367V4.5ZM153.398 4.5H159.414V3.5H153.398V4.5ZM165.43 4.5H171.445V3.5H165.43V4.5ZM177.461 4.5H183.477V3.5H177.461V4.5ZM189.492 4.5H195.508V3.5H189.492V4.5ZM201.523 4.5H207.539V3.5H201.523V4.5ZM213.555 4.5H219.57V3.5H213.555V4.5ZM225.586 4.5H231.602V3.5H225.586V4.5ZM237.617 4.5H243.633V3.5H237.617V4.5ZM249.648 4.5H255.664V3.5H249.648V4.5ZM261.68 4.5H267.695V3.5H261.68V4.5ZM273.711 4.5H279.727V3.5H273.711V4.5ZM285.742 4.5H291.758V3.5H285.742V4.5ZM297.773 4.5H303.789V3.5H297.773V4.5ZM309.805 4.5H315.82V3.5H309.805V4.5ZM321.836 4.5H327.852V3.5H321.836V4.5ZM333.867 4.5H339.883V3.5H333.867V4.5ZM345.898 4.5H351.914V3.5H345.898V4.5ZM357.93 4.5H363.945V3.5H357.93V4.5ZM369.961 4.5H375.977V3.5H369.961V4.5ZM381.992 4.5H385V3.5H381.992V4.5Z" fill="#C2C2C2"/>
</svg>
