<svg width="40" height="36" viewBox="0 0 40 36" fill="none" xmlns="http://www.w3.org/2000/svg">
<path d="M39.5625 19.4608H26.3906C21.6172 19.7109 21.8047 26.3515 26.5625 26.4999H39.5625C39.7969 26.4999 39.9922 26.3046 39.9922 26.0624V19.8905C39.9922 19.6562 39.7969 19.4608 39.5625 19.4608ZM26.6484 25.664C23.1016 25.5546 23.0938 20.4062 26.6484 20.2968C30.2031 20.414 30.1953 25.5546 26.6484 25.664ZM24.8125 3.35147H28.5156C30.4766 3.35147 32.0625 4.94522 32.0625 6.89835V8.85147H25.7109C26.0469 6.98429 25.7266 5.01554 24.8125 3.35147ZM16.4219 7.60147H18.2188C18.8125 7.60147 19.3047 8.08585 19.3047 8.6796C19.3047 8.73429 19.2969 8.78897 19.2891 8.85147H16.4219V7.60147ZM17.8828 6.66397H16.4219V4.97647H17.8828C18.3438 4.97647 18.7266 5.35929 18.7266 5.82022C18.7266 6.28897 18.3516 6.66397 17.8828 6.66397ZM17.5547 0.0155373C21.625 -0.00790019 24.9297 3.42179 24.8984 7.3671C24.9062 7.8671 24.8438 8.3671 24.7422 8.85147H20.2187C20.3203 8.07022 19.875 7.32804 19.2422 6.96085C20.2422 5.83585 19.3281 3.95304 17.8203 4.03897C17.9219 3.22648 16.7891 3.22648 16.8828 4.03897H16.4219C16.5234 3.22648 15.3906 3.22648 15.4844 4.03897C14.6797 3.94523 14.6797 5.07023 15.4844 4.97647V6.67179C14.6797 6.57804 14.6797 7.70304 15.4844 7.60929V8.85929H10.3594C9.39062 4.44522 12.9297 -0.0469627 17.5547 0.0155373ZM0.804688 4.15616C1.32812 3.63273 2.01562 3.35147 2.75781 3.35147H10.3047C10.0312 3.85147 9.8125 4.3671 9.64062 4.90616C9.25 6.1796 9.17188 7.53897 9.39844 8.85147H2.75781C0.351563 8.89835 -0.914062 5.82022 0.804688 4.15616ZM25.9531 18.5468C26.1016 18.5312 26.2422 18.5312 26.3906 18.5312H38.2266V12.7265C38.2266 11.1093 36.9141 9.79679 35.2969 9.79679H2.75781C1.71875 9.79679 0.695312 9.32804 0.0078125 8.5546V29.6483C0.0078125 33.1405 2.84375 35.9843 6.33594 35.9843H35.2969C36.9141 35.9843 38.2266 34.6718 38.2266 33.0546V27.4374H26.3906C20.7344 27.2343 20.4062 19.289 25.9531 18.5468ZM19.3281 25.4296C19.1094 25.5624 18.8203 25.5077 18.6797 25.2812L18.0078 24.2108C16.0938 32.8358 3.67969 31.7108 3.42969 22.7968C3.42969 18.7343 6.73438 15.4374 10.7891 15.4374C13.7891 15.4374 16.4531 17.2265 17.5859 20.0077C17.6875 20.2499 17.5703 20.5155 17.3359 20.6171C17.0938 20.7187 16.8203 20.6015 16.7188 20.3671C15.7266 17.9452 13.3984 16.3827 10.7891 16.3827C7.25 16.3827 4.36719 19.2655 4.36719 22.8046C4.59375 30.6171 15.4922 31.5546 17.1016 23.9687L15.9922 24.9765C15.5391 25.3905 14.9062 24.6952 15.3594 24.289L17.3594 22.4608C17.4688 22.3827 17.6016 22.328 17.7422 22.3437C17.875 22.3749 17.9922 22.453 18.0781 22.5624L19.4766 24.7968C19.6094 25.0077 19.5391 25.2968 19.3281 25.4296ZM28.3984 22.9765C28.3359 25.2812 24.9609 25.2812 24.8984 22.9765C24.9766 20.6718 28.3203 20.6718 28.3984 22.9765Z" fill="#050B0C"/>
</svg>
