<svg width="40" height="40" viewBox="0 0 40 40" fill="none" xmlns="http://www.w3.org/2000/svg">
<path d="M35.333 2.74991V10.4166M39.1663 6.58324H31.4997M4.66635 29.5832V33.4166M6.58302 31.4999H2.74968M16.0456 26.7082C15.8745 26.0449 15.5287 25.4396 15.0444 24.9552C14.56 24.4708 13.9547 24.1251 13.2913 23.954L1.5326 20.9218C1.33198 20.8649 1.15542 20.7441 1.02969 20.5777C0.903962 20.4113 0.835938 20.2084 0.835938 19.9999C0.835938 19.7914 0.903962 19.5885 1.02969 19.4221C1.15542 19.2558 1.33198 19.1349 1.5326 19.078L13.2913 16.0439C13.9544 15.873 14.5596 15.5275 15.044 15.0435C15.5283 14.5595 15.8742 13.9545 16.0456 13.2916L19.0778 1.53282C19.1341 1.33142 19.2548 1.15398 19.4215 1.02758C19.5881 0.901182 19.7915 0.832764 20.0006 0.832764C20.2098 0.832764 20.4132 0.901182 20.5798 1.02758C20.7464 1.15398 20.8672 1.33142 20.9235 1.53282L23.9538 13.2916C24.1249 13.9549 24.4706 14.5602 24.955 15.0446C25.4394 15.529 26.0447 15.8747 26.708 16.0458L38.4668 19.0761C38.669 19.1318 38.8473 19.2524 38.9744 19.4193C39.1015 19.5862 39.1703 19.7902 39.1703 19.9999C39.1703 20.2097 39.1015 20.4136 38.9744 20.5805C38.8473 20.7474 38.669 20.868 38.4668 20.9237L26.708 23.954C26.0447 24.1251 25.4394 24.4708 24.955 24.9552C24.4706 25.4396 24.1249 26.0449 23.9538 26.7082L20.9216 38.467C20.8652 38.6684 20.7445 38.8458 20.5779 38.9722C20.4113 39.0986 20.2079 39.1671 19.9987 39.1671C19.7896 39.1671 19.5862 39.0986 19.4195 38.9722C19.2529 38.8458 19.1322 38.6684 19.0758 38.467L16.0456 26.7082Z" stroke="#050B0C" stroke-width="1.6" stroke-linecap="round" stroke-linejoin="round"/>
</svg>
