<svg width="36" height="36" viewBox="0 0 36 36" fill="none" xmlns="http://www.w3.org/2000/svg">
<path fill-rule="evenodd" clip-rule="evenodd" d="M20.1211 32.8359C20.0972 33.1517 20.0084 33.4657 19.8527 33.757L19.2523 34.8797C19.4711 35.0054 19.6944 35.1373 19.9129 35.2572C20.4342 35.5439 21.0945 35.3255 21.3774 34.8103C21.6699 34.2784 21.4702 33.6093 20.9429 33.3137C20.6704 33.161 20.396 32.9916 20.1211 32.8359ZM12.6589 21.4318C14.2943 23.1864 16.186 22.4211 17.9836 21.6934C19.6257 21.0286 21.2026 20.3902 22.705 21.2466L28.5508 24.5786C28.7594 24.6974 28.9424 24.8432 29.0974 25.0087C29.127 25.0403 29.1557 25.0727 29.1834 25.1057L30.053 24.743L27.0715 17.0523C25.7437 17.7629 24.7797 17.3547 23.4744 16.8211C22.0494 16.2386 20.3797 15.5562 18.1072 17.1151C16.866 17.9631 15.8697 19.1704 14.6158 20.1119C13.9942 20.5785 13.3405 21.0179 12.6589 21.4318ZM12.9332 27.4124C12.4576 27.1585 11.9128 27.0786 11.3846 27.183C11.2913 26.4315 10.8422 25.7682 10.1708 25.4099C9.2559 24.9216 8.12354 25.1005 7.40177 25.839C7.25778 25.0941 7.05806 24.3687 6.21642 24.042C6.1661 24.0224 6.08216 23.9873 5.97231 23.9401L9.32804 16.3478L9.71435 16.526C10.8889 17.1781 11.9779 16.923 13.1611 16.6458C14.2251 16.3964 15.3818 16.1253 16.6915 16.7031C15.7356 17.4991 14.9063 18.4145 13.906 19.1656C13.2203 19.6805 12.4682 20.1734 11.6599 20.6451C11.2461 20.8868 11.1391 21.4419 11.433 21.8203C13.6822 24.7144 16.1196 23.7276 18.4289 22.7928C19.8002 22.2376 21.1171 21.7045 22.1205 22.2764L27.9664 25.6084C28.4869 25.9051 28.6995 26.5648 28.4073 27.1004C28.1066 27.6209 27.4687 27.8371 26.9309 27.5449C25.5926 26.7791 24.2395 26.0364 22.9005 25.27C22.6162 25.1073 22.2537 25.2059 22.0911 25.4903C21.9284 25.7747 22.027 26.1372 22.3114 26.2998C23.6494 27.0657 24.9945 27.8193 26.3396 28.5727C26.8656 28.8688 27.0693 29.5331 26.7763 30.0658C26.4931 30.5806 25.8079 30.7981 25.2901 30.5003L19.995 27.5207C19.7093 27.3607 19.3479 27.4624 19.1879 27.7481C19.0278 28.0337 19.1295 28.3951 19.4152 28.5552C20.8559 29.3659 22.2934 30.1897 23.7339 30.9977C24.2649 31.2965 24.4636 31.9619 24.1676 32.4981C23.8737 33.0232 23.2066 33.2149 22.6795 32.9235L19.6017 31.1814C19.4066 30.9422 19.1672 30.7465 18.8951 30.6011C18.3289 30.2986 17.6699 30.2433 17.0624 30.4447C16.8921 29.827 16.4814 29.3095 15.9142 29.0067C15.348 28.7046 14.689 28.6492 14.0815 28.8504C13.9114 28.2328 13.5003 27.715 12.9332 27.4124ZM15.6384 34.3794C15.5531 34.8639 15.7906 35.3606 16.2259 35.5934C16.781 35.8903 17.4812 35.6782 17.7781 35.123L18.8073 33.1986C19.1044 32.6431 18.8876 31.9407 18.337 31.6465C17.8749 31.3996 17.2921 31.5036 16.9421 31.8922L15.6384 34.3794ZM15.9254 31.3489C16.0542 30.8416 15.8197 30.2996 15.3563 30.0523C14.8941 29.8056 14.3112 29.9092 13.9612 30.2979L12.5059 33.0893C12.4348 33.5665 12.671 34.0453 13.0981 34.2737C13.6019 34.5432 14.2386 34.3943 14.5712 33.9304L15.9254 31.3489ZM12.9445 29.7545C13.0733 29.2473 12.8387 28.7053 12.3754 28.458C11.9461 28.2289 11.414 28.299 11.0564 28.6267L9.36834 31.6473C9.07139 32.2025 9.28366 32.9026 9.83881 33.1995C10.4006 33.5 11.0956 33.281 11.3951 32.7215L12.9445 29.7545ZM10.115 27.9426C10.3636 27.3975 10.1421 26.738 9.61297 26.4556C9.05751 26.159 8.35748 26.3701 8.06031 26.9257L6.98696 28.9324C6.69008 29.4875 6.90227 30.1877 7.45743 30.4846C7.88434 30.7129 8.41329 30.644 8.77081 30.3204L10.115 27.9426ZM18 0.272217L25.8034 3.61651V9.92637C25.8034 12.1435 25.0431 14.1182 23.7585 15.6607C23.2792 15.4657 22.776 15.2685 22.2376 15.131C22.3683 14.9962 22.4939 14.8566 22.6139 14.7125C23.6857 13.4262 24.319 11.7838 24.319 9.92637V4.98681C24.319 4.7269 24.152 4.50595 23.9194 4.42557L18.2319 1.98808C18.0776 1.92247 17.9111 1.92729 17.768 1.98808L12.0427 4.44175C11.8175 4.53757 11.6823 4.75651 11.6822 4.98681L11.6809 9.92637C11.6809 11.7838 12.3142 13.4262 13.386 14.7125C13.5489 14.908 13.7219 15.095 13.9043 15.2733C13.5578 15.3348 13.2212 15.4137 12.892 15.4908C12.6648 15.544 12.4419 15.5962 12.2236 15.6391C10.9499 14.0998 10.1965 12.1331 10.1965 9.92637V3.61651L18 0.272217ZM18 3.17758L12.8684 5.37676V9.9263C12.8684 11.4976 13.3983 12.88 14.2952 13.9564C14.689 14.4289 15.1543 14.844 15.6773 15.1916C16.329 15.2669 17.0211 15.4799 17.7657 15.9227C18.8424 15.2502 19.7971 14.9846 20.6613 14.9509C21.0481 14.6574 21.3982 14.3243 21.7048 13.9563C22.6016 12.8799 23.1315 11.4976 23.1315 9.92622V5.37676L18 3.17758ZM21.6299 8.34573C20.3631 9.6243 19.1049 10.9113 17.8322 12.184C17.4601 12.5561 16.8566 12.5561 16.4845 12.184L14.373 10.0726C14.0009 9.70052 14.0009 9.09698 14.373 8.72492C14.745 8.35286 15.3487 8.35286 15.7206 8.72492L17.1562 10.1605L20.2803 7.00527C20.65 6.6318 21.2534 6.63069 21.6258 7.00111C21.9981 7.37131 21.9993 7.97293 21.6299 8.34573ZM35.7429 24.1423L31.4889 13.1692C31.2832 12.6386 30.6808 12.3728 30.1502 12.5785L28.0378 13.3974C27.5073 13.6031 27.2415 14.2055 27.4471 14.736L31.7011 25.7091C31.9068 26.2397 32.5092 26.5055 33.0398 26.2998L35.1522 25.4809C35.6827 25.2753 35.9485 24.6729 35.7429 24.1423ZM29.8665 15.6847C29.4778 15.6847 29.1626 15.3696 29.1626 14.9807C29.1626 14.5919 29.4778 14.2768 29.8665 14.2768C30.2553 14.2768 30.5705 14.5919 30.5705 14.9807C30.5705 15.3695 30.2553 15.6847 29.8665 15.6847ZM8.46977 12.7928L6.39759 11.8769C5.87709 11.6468 5.263 11.8845 5.033 12.405L0.275356 23.1693C0.045278 23.6898 0.282926 24.3038 0.803423 24.5339L2.87561 25.4497C3.39603 25.6798 4.01012 25.4422 4.24012 24.9217L8.99784 14.1574C9.22784 13.6369 8.99027 13.0228 8.46977 12.7928ZM6.53712 14.9928C6.14881 14.9748 5.84852 14.6454 5.86655 14.257C5.88459 13.8686 6.21397 13.5684 6.60236 13.5865C6.99074 13.6044 7.29096 13.9339 7.27292 14.3223C7.25489 14.7106 6.92543 15.0109 6.53712 14.9928Z" fill="#050B0C"/>
</svg>
