<svg width="40" height="40" viewBox="0 0 40 40" fill="none" xmlns="http://www.w3.org/2000/svg">
<path d="M39.1663 20.0002C39.1663 22.5418 38.1567 24.9794 36.3594 26.7766C34.5622 28.5738 32.1247 29.5835 29.583 29.5835C27.0414 29.5835 24.6038 28.5738 22.8066 26.7766C21.0093 24.9794 19.9997 22.5418 19.9997 20.0002M39.1663 20.0002C39.1663 30.5856 30.5851 39.1668 19.9997 39.1668C9.41422 39.1668 0.833008 30.5856 0.833008 20.0002M39.1663 20.0002C39.1663 9.41471 30.5851 0.833496 19.9997 0.833496C9.41422 0.833496 0.833008 9.41471 0.833008 20.0002M19.9997 20.0002C19.9997 17.4585 18.99 15.0209 17.1928 13.2237C15.3956 11.4265 12.958 10.4168 10.4163 10.4168C7.87468 10.4168 5.43713 11.4265 3.6399 13.2237C1.84268 15.0209 0.833008 17.4585 0.833008 20.0002M19.9997 20.0002C17.7884 18.7293 15.1629 18.389 12.7007 19.0539C10.2385 19.7189 8.14134 21.3348 6.87051 23.546C5.59968 25.7572 5.25931 28.3828 5.92429 30.8449C6.58926 33.3071 8.2051 35.4043 10.4163 36.6752M19.9997 20.0002C21.082 20.6294 22.2776 21.0393 23.5184 21.2065C24.7591 21.3737 26.0206 21.2948 27.2309 20.9745C28.4411 20.6541 29.5764 20.0985 30.572 19.3394C31.5675 18.5802 32.4038 17.6325 33.033 16.5502C33.6623 15.4679 34.0722 14.2722 34.2393 13.0315C34.4065 11.7907 34.3277 10.5292 34.0073 9.31898C33.6869 8.10872 33.1313 6.97342 32.3722 5.97788C31.6131 4.98235 30.6653 4.14608 29.583 3.51683M10.4163 3.32516C12.6022 2.05433 15.2033 1.70387 17.6475 2.35087C20.0918 2.99787 22.1788 4.58934 23.4497 6.77516C24.7205 8.96099 25.071 11.5621 24.424 14.0063C23.777 16.4506 22.1855 18.5377 19.9997 19.8085C17.8138 21.0793 16.2224 23.1664 15.5754 25.6106C14.9284 28.0549 15.2788 30.656 16.5497 32.8418C17.8205 35.0277 19.9076 36.6191 22.3518 37.2661C24.796 37.9131 27.3972 37.5627 29.583 36.2918" stroke="#050B0C" stroke-width="1.4" stroke-linecap="round" stroke-linejoin="round"/>
</svg>
