<svg width="93" height="20" viewBox="0 0 93 20" fill="none" xmlns="http://www.w3.org/2000/svg">
<path d="M22.7768 1.2167L22.8043 1.21082V1.00245H17.1834L11.9641 12.9862L6.74475 1.00257H0.687594V1.21082L0.714721 1.2167C1.74067 1.44295 2.2617 1.78032 2.2617 2.99695V17.2412C2.2617 18.4579 1.73875 18.7953 0.712673 19.0216L0.685547 19.0274V19.2363H4.79522V19.0282L4.76797 19.0222C3.74202 18.7961 3.22111 18.4586 3.22111 17.2419V3.8232L9.92585 19.2363H10.3061L17.2061 3.39345V17.5937C17.1182 18.5547 16.6021 18.8514 15.673 19.0563L15.6455 19.0626V19.2691H22.8043V19.0626L22.7768 19.0563C21.8467 18.8514 21.3181 18.5547 21.2302 17.5937L21.2255 2.99695H21.2302C21.2302 1.78032 21.7511 1.44295 22.7768 1.2167ZM26.0467 10.6527C26.1638 8.09345 27.1046 6.2462 28.6834 6.21432C29.1704 6.2222 29.5788 6.37832 29.8963 6.67857C30.5708 7.31832 30.888 8.65507 30.839 10.6527H26.0467ZM25.976 11.3739H34.3664V11.3396C34.3426 9.38258 33.7623 7.86032 32.6433 6.81507C31.6761 5.9117 30.244 5.4147 28.7398 5.4147H28.7061C27.9255 5.4147 26.968 5.5997 26.2866 5.9347C25.5111 6.28557 24.827 6.81007 24.2579 7.49857C23.3416 8.60782 22.7865 10.1068 22.6515 11.7914C22.6473 11.8419 22.6434 11.8924 22.6398 11.9429C22.6364 11.9909 22.6337 12.0388 22.6315 12.0868C22.6194 12.3237 22.6154 12.5608 22.6194 12.7979C22.7103 16.6134 24.82 19.6626 28.5672 19.6626C31.8563 19.6626 33.7718 17.3137 34.2493 14.1609L34.008 14.0779C33.169 15.7724 31.662 16.7993 29.9469 16.6741C27.6057 16.5029 25.8122 14.1838 25.9749 11.3747M43.8531 16.5446C43.5779 17.1822 43.0036 17.5331 42.2341 17.5331C41.4646 17.5331 40.761 17.0169 40.2613 16.0793C39.7243 15.0727 39.4417 13.6498 39.4417 11.9643C39.4417 8.45595 40.5587 6.18682 42.2875 6.18682C43.0113 6.18682 43.5812 6.5377 43.8531 7.14982V16.5446ZM49.4191 19.0456C48.393 18.8084 47.8722 18.4553 47.8722 17.1767V0.163574L41.6387 1.9577V2.17732L41.677 2.17432C42.5368 2.10645 43.1201 2.22257 43.4588 2.52807C43.7239 2.76745 43.8531 3.1347 43.8531 3.65145V5.98395C43.2386 5.60057 42.5075 5.41395 41.6206 5.41395C39.8216 5.41395 38.1774 6.15395 36.9916 7.49795C35.7556 8.89857 35.1021 10.8127 35.1021 13.0327C35.1017 16.9977 37.0998 19.6626 40.0733 19.6626C41.8129 19.6626 43.2125 18.7314 43.8531 17.1609V19.2691H49.4462V19.0508L49.4191 19.0456ZM54.7652 2.47732C54.7652 1.23932 53.8096 0.305574 52.5419 0.305574C51.2804 0.305574 50.2934 1.25957 50.2934 2.47732C50.2934 3.69507 51.2813 4.64907 52.5419 4.64907C53.8096 4.64907 54.7652 3.71532 54.7652 2.47732ZM56.2365 19.0456C55.2105 18.8084 54.6897 18.4553 54.6897 17.1767H54.6852V5.45432L49.0918 7.0232V7.23632L49.1254 7.23932C50.3356 7.34457 50.6669 7.75182 50.6669 9.13332V19.2691H56.2651V19.0508L56.2365 19.0456ZM70.5692 19.0456C69.5433 18.8084 69.0224 18.4553 69.0224 17.1767V5.45432L63.6967 6.97145V7.1852L63.7282 7.18845C64.7177 7.29007 65.0035 7.72057 65.0035 9.10845V16.5183C64.6737 17.1561 64.0547 17.5347 63.305 17.5603C62.0891 17.5603 61.4195 16.7579 61.4195 15.3012V5.4547L55.826 7.02345V7.23632L55.8596 7.23932C57.0699 7.34432 57.4014 7.75145 57.4014 9.13332V15.4046C57.3986 15.8423 57.4376 16.2794 57.5179 16.7101L57.6186 17.1379C58.0921 18.7957 59.3329 19.6626 61.2768 19.6626C62.9234 19.6626 64.3666 18.6668 65.0023 17.1088V19.2727H70.5957V19.0543L70.5692 19.0456ZM92.2984 19.2691V19.0504L92.2711 19.0442C91.1579 18.7934 90.7242 18.3206 90.7242 17.3579V9.3842C90.7242 6.89795 89.2949 5.41407 86.9006 5.41407C85.1552 5.41407 83.6836 6.39932 83.117 7.93407C82.667 6.30782 81.3719 5.41407 79.4567 5.41407C77.7746 5.41407 76.4563 6.28132 75.8907 7.7462V5.45532L70.2973 6.95995V7.17432L70.331 7.17732C71.5267 7.28095 71.8724 7.69995 71.8724 9.04607V19.2691H77.0914V19.0508L77.0639 19.0442C76.1757 18.8403 75.8891 18.4684 75.8891 17.5143V8.3747C76.124 7.83857 76.5976 7.20345 77.5337 7.20345C78.6963 7.20345 79.2857 7.99045 79.2857 9.54057V19.2691H84.5059V19.0508L84.4784 19.0442C83.5903 18.8403 83.3037 18.4684 83.3037 17.5143V9.3832C83.306 9.07918 83.2813 8.77554 83.2298 8.4757C83.4789 7.89307 83.9796 7.20357 84.954 7.20357C86.1329 7.20357 86.7058 7.96782 86.7058 9.54057V19.2691H92.2984Z" fill="white"/>
</svg>
