<svg width="35" height="31" viewBox="0 0 35 31" fill="none" xmlns="http://www.w3.org/2000/svg">
<path d="M32.459 20.6357C31.8708 20.6341 31.3022 20.8464 30.859 21.2331C30.4158 21.6198 30.1284 22.1544 30.0503 22.7373H25.1774V18.0457H26.1431L28.0708 19.5701C28.1775 19.6557 28.312 19.6989 28.4486 19.6914C28.5851 19.6839 28.7141 19.6262 28.8108 19.5294L32.5515 15.8294C32.6044 15.7768 32.6464 15.7143 32.675 15.6454C32.7037 15.5765 32.7184 15.5026 32.7184 15.428C32.7184 15.3534 32.7037 15.2795 32.675 15.2106C32.6464 15.1417 32.6044 15.0792 32.5515 15.0265L29.5249 12.0665C29.4204 11.9631 29.2797 11.9047 29.1327 11.9037H25.4623V8.44424H29.8727C30.0599 9.00193 30.4454 9.47147 30.9559 9.76377C31.4664 10.0561 32.0665 10.1508 32.6422 10.03C33.218 9.90916 33.7294 9.58119 34.0793 9.10831C34.4292 8.63543 34.5934 8.05054 34.5407 7.46463C34.488 6.87871 34.222 6.33254 33.7932 5.92974C33.3645 5.52694 32.8028 5.29555 32.2147 5.27947C31.6266 5.26339 31.0531 5.46374 30.603 5.8425C30.1529 6.22126 29.8574 6.75209 29.7728 7.33424H24.8999C24.7513 7.33424 24.6089 7.39299 24.5035 7.49766C24.3981 7.60233 24.3384 7.74443 24.3375 7.89294V11.9037H18.8097V3.93764H23.2201C23.4073 4.49533 23.7928 4.96487 24.3033 5.25717C24.8138 5.54948 25.4139 5.64421 25.9896 5.52338C26.5654 5.40256 27.0768 5.07459 27.4267 4.60171C27.7766 4.12883 27.9408 3.54394 27.8881 2.95803C27.8354 2.37211 27.5694 1.82594 27.1406 1.42314C26.7119 1.02034 26.1502 0.788952 25.5621 0.772871C24.974 0.75679 24.4005 0.957139 23.9504 1.3359C23.5003 1.71466 23.2048 2.24549 23.1202 2.82764H18.2399C18.0913 2.82764 17.9489 2.88639 17.8435 2.99106C17.7381 3.09573 17.6784 3.23783 17.6775 3.38634V11.9037H15.1578C14.2791 10.372 12.9217 9.17131 11.2941 8.48621C9.66661 7.8011 7.85911 7.66954 6.14953 8.11176C4.43995 8.55397 2.92295 9.54547 1.83176 10.9338C0.740565 12.3222 0.135596 14.0305 0.109863 15.7961C0.136382 17.5615 0.741915 19.2693 1.83339 20.657C2.92487 22.0448 4.44189 23.0356 6.15128 23.4774C7.86067 23.9191 9.66782 23.7873 11.295 23.1021C12.9222 22.4169 14.2793 21.2163 15.1578 19.6848H17.6886V27.625C17.6895 27.7717 17.7477 27.9121 17.8506 28.0165C17.9536 28.1208 18.0933 28.1809 18.2399 28.1837H23.1202C23.2047 28.7679 23.5008 29.3007 23.9522 29.681C24.4036 30.0613 24.979 30.2625 25.569 30.2466C26.159 30.2307 26.7227 29.9987 27.1529 29.5946C27.5832 29.1906 27.8501 28.6426 27.903 28.0547C27.9559 27.4668 27.7912 26.88 27.44 26.4056C27.0888 25.9312 26.5756 25.6023 25.9979 25.4813C25.4202 25.3603 24.8181 25.4556 24.3061 25.7491C23.794 26.0427 23.4075 26.5141 23.2201 27.0737H18.8097V19.6848H20.9113C20.997 19.6844 21.0815 19.6646 21.1584 19.6268C21.2353 19.589 21.3026 19.5342 21.3553 19.4665L22.4653 18.0457H24.0637V23.296C24.0637 23.4446 24.1224 23.5871 24.2271 23.6924C24.3317 23.7978 24.4739 23.8575 24.6224 23.8584H30.1724C30.3191 24.2785 30.5786 24.65 30.9225 24.9323C31.2663 25.2146 31.6812 25.3968 32.1218 25.459C32.5623 25.5211 33.0115 25.4608 33.42 25.2846C33.8286 25.1084 34.1807 24.8232 34.4379 24.4601C34.6951 24.0971 34.8473 23.6702 34.878 23.2264C34.9087 22.7826 34.8166 22.3388 34.6119 21.9438C34.4071 21.5489 34.0975 21.2179 33.7171 20.9871C33.3367 20.7564 32.9002 20.6348 32.4553 20.6357H32.459ZM4.05776 15.7961C4.04676 14.9838 4.27759 14.1865 4.7209 13.5057C5.16422 12.8248 5.8 12.2912 6.54739 11.9727C7.29478 11.6542 8.12002 11.5651 8.91817 11.7168C9.71632 11.8685 10.4513 12.2542 11.0297 12.8247C11.6081 13.3953 12.0037 14.1249 12.1663 14.9209C12.3289 15.7169 12.2511 16.5433 11.9428 17.295C11.6345 18.0467 11.1096 18.6897 10.4349 19.1422C9.76017 19.5948 8.9661 19.8365 8.15366 19.8365C7.07486 19.8434 6.03746 19.4217 5.26943 18.6641C4.5014 17.9065 4.06559 16.8749 4.05776 15.7961ZM17.2224 13.9461H24.6224V15.0561H17.2224V13.9461Z" fill="#050B0C"/>
</svg>
