<svg width="40" height="40" viewBox="0 0 40 40" fill="none" xmlns="http://www.w3.org/2000/svg">
<path d="M38.8497 32.9362H38.3315C38.2252 32.4955 38.0502 32.0704 37.8089 31.674L38.1743 31.3086C38.3182 31.1646 38.3182 30.9277 38.1743 30.7837L37.2021 29.8115C37.0582 29.6676 36.8234 29.6676 36.6795 29.8115L36.3119 30.1769C35.9155 29.9355 35.4902 29.7628 35.0518 29.6565V29.1383C35.0518 28.9346 34.8857 28.7685 34.682 28.7663H33.3067C33.1008 28.7663 32.9347 28.9346 32.9347 29.1383V29.6565C32.4962 29.7628 32.071 29.9356 31.6746 30.1769L31.307 29.8115C31.163 29.6676 30.9283 29.6676 30.7844 29.8115L29.8122 30.7837C29.6683 30.9277 29.6683 31.1646 29.8122 31.3086L30.1776 31.674C29.9362 32.0704 29.7634 32.4955 29.655 32.9362H29.139C28.933 32.9362 28.767 33.1023 28.767 33.3061V34.6813C28.767 34.8851 28.933 35.0512 29.139 35.0512H29.6572C29.7634 35.4897 29.9362 35.917 30.1776 36.3135L29.8122 36.6789C29.6683 36.8229 29.6683 37.0576 29.8122 37.2015L30.7844 38.1737C30.9283 38.3199 31.163 38.3199 31.307 38.1737L31.6746 37.8083C32.071 38.0497 32.4963 38.2247 32.9347 38.331V38.8492C32.9347 39.0529 33.1008 39.219 33.3067 39.219H34.682C34.8857 39.219 35.0518 39.0529 35.0518 38.8492V38.331C35.4903 38.2247 35.9155 38.0497 36.3119 37.8083L36.6795 38.1737C36.8234 38.3199 37.0582 38.3199 37.2021 38.1737L37.6893 37.6887L38.1743 37.2015C38.3182 37.0576 38.3182 36.8229 38.1743 36.6789L37.8089 36.3135C38.0503 35.9171 38.223 35.4897 38.3315 35.0512H38.8497C39.0534 35.0512 39.2195 34.8851 39.2195 34.6813V33.3061C39.2195 33.1023 39.0534 32.9362 38.8497 32.9362ZM36.1523 36.1518C34.9609 37.3432 33.0276 37.3432 31.8339 36.1518C30.6425 34.9604 30.6425 33.027 31.8339 31.8333C33.0253 30.6419 34.9609 30.6419 36.1523 31.8333C37.3438 33.027 37.3438 34.9603 36.1523 36.1518ZM35.4902 32.4977C36.3162 33.3237 36.3162 34.6636 35.4902 35.4896C34.6641 36.3156 33.3243 36.3156 32.4983 35.4896C31.67 34.6636 31.67 33.3237 32.4983 32.4977C33.3243 31.6717 34.6641 31.6717 35.4902 32.4977ZM14.5714 5.01498C14.5714 4.75584 14.7796 4.54772 15.0387 4.54772H32.9391C34.4162 4.54772 35.6231 5.7524 35.6231 7.22959V23.3405L36.0549 22.5809C36.1812 22.3572 36.4668 22.2775 36.6905 22.406C36.9164 22.5322 36.9939 22.8179 36.8677 23.0415L35.5788 25.3115C35.4216 25.6458 34.9299 25.6968 34.7284 25.3115L33.4418 23.0415C33.3134 22.8179 33.393 22.5322 33.6167 22.406C33.8427 22.2776 34.1261 22.3572 34.2545 22.5809L34.6863 23.3405V7.22951C34.6863 6.27061 33.898 5.48443 32.9391 5.48443H15.0387C14.7796 5.48443 14.5714 5.27404 14.5714 5.01498ZM25.2102 35.3679C25.2102 35.6269 24.9998 35.8351 24.7407 35.8351H6.84258C5.36547 35.8351 4.15852 34.6282 4.15852 33.1511V17.0422L3.72672 17.8019C3.60047 18.0255 3.31484 18.1053 3.09109 17.9768C2.86523 17.8505 2.78773 17.5649 2.91391 17.3412L4.20281 15.0713C4.35781 14.7369 4.85172 14.6837 5.05102 15.0713L6.33992 17.3412C6.46617 17.5649 6.38867 17.8506 6.165 17.9768C5.93906 18.1052 5.65344 18.0255 5.52719 17.8019L5.09539 17.0422V33.151C5.09539 34.1121 5.88156 34.8983 6.84266 34.8983H24.7408C24.9998 34.8983 25.2102 35.1087 25.2102 35.3678L25.2102 35.3679ZM3.32141 10.1882L3.68906 9.82279C4.08547 10.0642 4.5107 10.2391 4.94914 10.3454V10.8637C4.94914 11.0674 5.11523 11.2335 5.31898 11.2335H6.69422C6.90016 11.2335 7.06625 11.0674 7.06625 10.8637V10.3454C7.50477 10.2391 7.92992 10.0642 8.32633 9.82279L8.69398 10.1882C8.83789 10.3322 9.07266 10.3322 9.21656 10.1882L9.70375 9.70318L10.1887 9.216C10.3327 9.07201 10.3327 8.83732 10.1887 8.69334L9.82336 8.32568C10.0648 7.92928 10.2375 7.50404 10.3438 7.06561H10.8642C11.068 7.06561 11.2341 6.89951 11.2341 6.69576V5.32053C11.2341 5.11678 11.068 4.9485 10.8642 4.9485H10.346C10.2375 4.50998 10.0648 4.08482 9.82336 3.68842L10.1887 3.32303C10.3327 3.17686 10.3327 2.94209 10.1887 2.79818L9.21656 1.826C9.07266 1.68201 8.83789 1.68201 8.69398 1.826L8.32633 2.19139C7.92992 1.94998 7.50469 1.77725 7.06625 1.671V1.15279C7.06625 0.946855 6.90016 0.780762 6.69422 0.780762H5.31898C5.11523 0.780762 4.94914 0.946855 4.94914 1.15279V1.671C4.5107 1.77732 4.08547 1.95006 3.68906 2.19139L3.32141 1.826C3.17742 1.68201 2.94273 1.68201 2.79875 1.826L1.82656 2.79818C1.68258 2.94217 1.68258 3.17686 1.82656 3.32303L2.19195 3.68842C1.95055 4.08482 1.77562 4.50998 1.6693 4.9485H1.15109C0.947344 4.9485 0.78125 5.11678 0.78125 5.32053V6.69576C0.78125 6.89951 0.947344 7.06561 1.15109 7.06561H1.6693C1.77781 7.50412 1.95055 7.92928 2.19195 8.32568L1.82656 8.69334C1.68258 8.83725 1.68258 9.07201 1.82656 9.216L2.79875 10.1882C2.94273 10.3322 3.17742 10.3322 3.32141 10.1882ZM3.84852 3.84787C5.03992 2.65647 6.97547 2.65647 8.16687 3.84787C9.35828 5.04154 9.35828 6.97482 8.16687 8.16631C6.97547 9.35779 5.03992 9.35771 3.84852 8.16631C2.65711 6.9749 2.65711 5.04154 3.84852 3.84787ZM4.5107 7.50412C3.68469 6.67811 3.68469 5.33826 4.5107 4.51225C5.33898 3.68623 6.67656 3.68623 7.50258 4.51225C8.33086 5.33826 8.33086 6.67811 7.50258 7.50412C6.67656 8.33014 5.33898 8.33014 4.5107 7.50412ZM12.802 10.5713C16.7661 9.49725 23.2348 9.49725 27.1989 10.5713C28.8576 11.0208 29.883 11.5679 29.883 12.1038C29.883 12.6397 28.8576 13.1868 27.1989 13.6385C23.2348 14.7126 16.7661 14.7126 12.802 13.6385C11.1434 13.1867 10.118 12.6397 10.118 12.1038C10.118 11.5679 11.1434 11.0209 12.802 10.5713ZM29.883 13.5122C26.2865 15.9992 13.7144 15.9992 10.118 13.5122V17.3678C10.118 17.9037 11.1434 18.4508 12.802 18.9003C16.7661 19.9765 23.2348 19.9765 27.1989 18.9003C28.8576 18.4508 29.883 17.9037 29.883 17.3678V13.5122ZM13.1563 17.5428C12.4123 18.2869 11.1345 17.7554 11.1345 16.7057C11.1345 16.0501 11.6659 15.5209 12.3192 15.5209C13.369 15.5209 13.9005 16.7987 13.1563 17.5428ZM16.3741 18.174C15.63 18.918 14.3544 18.3888 14.3544 17.3369C14.3544 16.6836 14.8836 16.1543 15.537 16.1543C16.5889 16.1543 17.1181 17.4299 16.3741 18.174ZM10.1179 18.7763V22.6319C10.1179 23.1678 11.1433 23.7147 12.802 24.1644C16.766 25.2406 23.2348 25.2406 27.1988 24.1644C28.8575 23.7148 29.8829 23.1678 29.8829 22.6319V18.7763C26.2864 21.2633 13.7143 21.2633 10.1179 18.7763ZM13.1563 22.7692C12.4123 23.5133 11.1345 22.9818 11.1345 21.9321C11.1345 21.2765 11.6659 20.7472 12.3192 20.7472C13.369 20.7472 13.9005 22.0229 13.1563 22.7691V22.7692ZM16.3741 23.4004C15.63 24.1444 14.3544 23.6152 14.3544 22.5633C14.3544 21.91 14.8836 21.3807 15.537 21.3807C16.5889 21.3807 17.1181 22.6563 16.3741 23.4004ZM29.883 27.8959V24.0404C26.2865 26.5273 13.7144 26.5273 10.118 24.0404V27.8959C10.118 28.4319 11.1434 28.9788 12.802 29.4284C16.7661 30.5025 23.2348 30.5025 27.1989 29.4284C28.8576 28.9789 29.883 28.4319 29.883 27.8959ZM13.1563 28.1506C12.4123 28.8947 11.1345 28.3632 11.1345 27.3135C11.1345 26.6602 11.6659 26.1287 12.3192 26.1287C13.369 26.1287 13.9005 27.4065 13.1563 28.1506ZM16.3741 28.784C15.63 29.528 14.3544 28.9965 14.3544 27.9469C14.3544 27.2914 14.8836 26.7621 15.537 26.7621C16.5889 26.7621 17.1181 28.0399 16.3741 28.784ZM15.7119 27.7719C15.9422 28.0022 15.5923 28.3499 15.362 28.1196C15.1339 27.8915 15.4816 27.5416 15.7119 27.7719ZM12.4941 27.1386C12.7222 27.3689 12.3745 27.7165 12.1442 27.4885C11.9162 27.2582 12.2638 26.9105 12.4941 27.1386ZM15.7119 22.3905C15.9422 22.6187 15.5923 22.9685 15.362 22.7382C15.1339 22.5079 15.4816 22.1602 15.7119 22.3905ZM12.4941 21.7572C12.7222 21.9875 12.3745 22.3351 12.1442 22.1048C11.9162 21.8767 12.2638 21.5269 12.4941 21.7572ZM15.7119 17.1641C15.9422 17.3922 15.5923 17.7421 15.362 17.5118C15.1339 17.2815 15.4816 16.9338 15.7119 17.1641ZM12.4941 16.5308C12.7222 16.7611 12.3745 17.1087 12.1442 16.8784C11.9162 16.6503 12.2638 16.3004 12.4941 16.5308Z" fill="url(#paint0_linear_1_8106)"/>
<defs>
<linearGradient id="paint0_linear_1_8106" x1="-1.34111" y1="-1.14115" x2="42.6131" y2="2.97426" gradientUnits="userSpaceOnUse">
<stop stop-color="#A3DCAD"/>
<stop offset="0.504808" stop-color="#D2FFDA"/>
<stop offset="1" stop-color="#A3DCAD"/>
</linearGradient>
</defs>
</svg>
