<svg width="103" height="9" viewBox="0 0 103 9" fill="none" xmlns="http://www.w3.org/2000/svg">
<path d="M3.87279 0.125882C4.75263 0.125882 5.5245 0.306301 6.18838 0.66714C6.86026 1.02798 7.37617 1.54406 7.7361 2.21539C8.10404 2.87833 8.288 3.65036 8.288 4.53148C8.288 5.41259 8.10404 6.18462 7.7361 6.84756C7.37617 7.5021 6.86026 8.0098 6.18838 8.37064C5.5245 8.73147 4.75263 8.9119 3.87279 8.9119H0.945312V0.125882H3.87279ZM3.8128 7.41399C4.69264 7.41399 5.37252 7.16224 5.85244 6.65875C6.33235 6.15525 6.57231 5.44616 6.57231 4.53148C6.57231 3.61679 6.33235 2.9035 5.85244 2.39162C5.37252 1.87134 4.69264 1.6112 3.8128 1.6112H2.62501V7.41399H3.8128Z" fill="white"/>
<path d="M11.225 0.125882V8.9119H9.54534V0.125882H11.225Z" fill="white"/>
<path d="M18.7156 2.76924C18.5236 2.40001 18.2596 2.11889 17.9237 1.92588C17.5878 1.73287 17.1958 1.63637 16.7479 1.63637C16.252 1.63637 15.8121 1.75385 15.4281 1.98882C15.0442 2.22378 14.7443 2.55945 14.5283 2.99581C14.3123 3.43218 14.2044 3.93567 14.2044 4.5063C14.2044 5.09371 14.3123 5.6056 14.5283 6.04197C14.7523 6.47833 15.0602 6.81399 15.4521 7.04896C15.8441 7.28392 16.3 7.40141 16.8199 7.40141C17.4598 7.40141 17.9837 7.22518 18.3916 6.87273C18.7995 6.5119 19.0675 6.01259 19.1955 5.37483H16.316V4.02798H20.8512V5.56364C20.7392 6.17623 20.4992 6.74266 20.1313 7.26294C19.7634 7.78322 19.2874 8.2028 18.7036 8.52169C18.1277 8.83218 17.4798 8.98742 16.7599 8.98742C15.952 8.98742 15.2202 8.79861 14.5643 8.42099C13.9164 8.03497 13.4045 7.5021 13.0286 6.82238C12.6606 6.14266 12.4767 5.37064 12.4767 4.5063C12.4767 3.64197 12.6606 2.86994 13.0286 2.19022C13.4045 1.5021 13.9164 0.969238 14.5643 0.591616C15.2202 0.205602 15.948 0.012595 16.7479 0.012595C17.6917 0.012595 18.5116 0.255952 19.2075 0.742665C19.9033 1.22099 20.3833 1.89651 20.6472 2.76924H18.7156Z" fill="white"/>
<path d="M23.7736 0.125882V8.9119H22.0939V0.125882H23.7736Z" fill="white"/>
<path d="M31.1321 0.125882V1.54826H28.9005V8.9119H27.2208V1.54826H24.9892V0.125882H31.1321Z" fill="white"/>
<path d="M37.4928 7.23777H34.1574L33.6055 8.9119H31.8418L34.8532 0.113294H36.8089L39.8204 8.9119H38.0447L37.4928 7.23777ZM37.0368 5.82798L35.8251 2.15246L34.6133 5.82798H37.0368Z" fill="white"/>
<path d="M42.6257 7.51469H45.3852V8.9119H40.946V0.125882H42.6257V7.51469Z" fill="white"/>
<path d="M53.6637 0.125874V6.29371C53.6637 7.14965 53.4278 7.81678 52.9559 8.2951C52.4839 8.76503 51.852 9 51.0602 9C50.2603 9 49.6124 8.75664 49.1165 8.26993C48.6286 7.78322 48.3847 7.1035 48.3847 6.23077H50.0644C50.0724 6.60839 50.1563 6.9021 50.3163 7.11189C50.4843 7.32168 50.7242 7.42657 51.0362 7.42657C51.3401 7.42657 51.5721 7.32587 51.7321 7.12447C51.892 6.92308 51.972 6.64615 51.972 6.29371V0.125874H53.6637Z" fill="white"/>
<path d="M59.5104 9C58.7266 9 58.0067 8.80699 57.3508 8.42098C56.6949 8.03496 56.175 7.5021 55.7911 6.82238C55.4072 6.13427 55.2152 5.35804 55.2152 4.49371C55.2152 3.63776 55.4072 2.86993 55.7911 2.19021C56.175 1.5021 56.6949 0.965034 57.3508 0.57902C58.0067 0.193007 58.7266 0 59.5104 0C60.3023 0 61.0222 0.193007 61.67 0.57902C62.3259 0.965034 62.8418 1.5021 63.2178 2.19021C63.6017 2.86993 63.7937 3.63776 63.7937 4.49371C63.7937 5.35804 63.6017 6.13427 63.2178 6.82238C62.8418 7.5021 62.3259 8.03496 61.67 8.42098C61.0142 8.80699 60.2943 9 59.5104 9ZM59.5104 7.42657C60.0143 7.42657 60.4583 7.30909 60.8422 7.07413C61.2261 6.83077 61.5261 6.48671 61.742 6.04196C61.958 5.5972 62.066 5.08112 62.066 4.49371C62.066 3.90629 61.958 3.39441 61.742 2.95804C61.5261 2.51329 61.2261 2.17343 60.8422 1.93846C60.4583 1.7035 60.0143 1.58601 59.5104 1.58601C59.0065 1.58601 58.5586 1.7035 58.1667 1.93846C57.7827 2.17343 57.4828 2.51329 57.2668 2.95804C57.0509 3.39441 56.9429 3.90629 56.9429 4.49371C56.9429 5.08112 57.0509 5.5972 57.2668 6.04196C57.4828 6.48671 57.7827 6.83077 58.1667 7.07413C58.5586 7.30909 59.0065 7.42657 59.5104 7.42657Z" fill="white"/>
<path d="M66.699 0.125874V5.56364C66.699 6.15944 66.847 6.61678 67.143 6.93566C67.4389 7.24615 67.8548 7.4014 68.3907 7.4014C68.9346 7.4014 69.3546 7.24615 69.6505 6.93566C69.9464 6.61678 70.0944 6.15944 70.0944 5.56364V0.125874H71.7861V5.55105C71.7861 6.2979 71.6301 6.93147 71.3182 7.45175C71.0143 7.96364 70.6023 8.34965 70.0824 8.60979C69.5705 8.86993 68.9986 9 68.3667 9C67.7428 9 67.1749 8.86993 66.663 8.60979C66.1591 8.34965 65.7592 7.96364 65.4632 7.45175C65.1673 6.93147 65.0193 6.2979 65.0193 5.55105V0.125874H66.699Z" fill="white"/>
<path d="M77.7282 8.91189L75.8806 5.48811H75.0887V8.91189H73.409V0.125874H76.5525C77.2003 0.125874 77.7522 0.247552 78.2082 0.490909C78.6641 0.725874 79.004 1.04895 79.228 1.46014C79.4599 1.86294 79.5759 2.31608 79.5759 2.81958C79.5759 3.3986 79.4159 3.92308 79.096 4.39301C78.7761 4.85454 78.3001 5.17343 77.6683 5.34965L79.6719 8.91189H77.7282ZM75.0887 4.16643H76.4925C76.9484 4.16643 77.2883 4.05315 77.5123 3.82657C77.7362 3.59161 77.8482 3.26853 77.8482 2.85734C77.8482 2.45454 77.7362 2.14406 77.5123 1.92587C77.2883 1.6993 76.9484 1.58601 76.4925 1.58601H75.0887V4.16643Z" fill="white"/>
<path d="M88.2579 8.91189H86.5782L82.7748 2.88252V8.91189H81.0951V0.113286H82.7748L86.5782 6.15524V0.113286H88.2579V8.91189Z" fill="white"/>
<path d="M95.0529 7.23776H91.7175L91.1656 8.91189H89.4019L92.4134 0.113286H94.369L97.3805 8.91189H95.6048L95.0529 7.23776ZM94.597 5.82797L93.3852 2.15245L92.1734 5.82797H94.597Z" fill="white"/>
<path d="M100.186 7.51468H102.945V8.91189H98.5061V0.125874H100.186V7.51468Z" fill="white"/>
</svg>
