<svg width="40" height="40" viewBox="0 0 40 40" fill="none" xmlns="http://www.w3.org/2000/svg">
<path d="M38.2847 25.7499H29.583C28.5663 25.7499 27.5913 26.1538 26.8724 26.8727C26.1535 27.5916 25.7497 28.5666 25.7497 29.5833V38.2849M10.4163 3.40159V6.58325C10.4163 8.10825 11.0221 9.57078 12.1005 10.6491C13.1788 11.7275 14.6413 12.3333 16.1663 12.3333C17.183 12.3333 18.158 12.7371 18.8769 13.456C19.5958 14.1749 19.9997 15.1499 19.9997 16.1666C19.9997 18.2749 21.7247 19.9999 23.833 19.9999C24.8497 19.9999 25.8247 19.5961 26.5436 18.8772C27.2625 18.1583 27.6663 17.1832 27.6663 16.1666C27.6663 14.0583 29.3913 12.3333 31.4997 12.3333H37.5755M18.083 39.0708V31.4999C18.083 30.4833 17.6791 29.5082 16.9603 28.7893C16.2414 28.0705 15.2663 27.6666 14.2497 27.6666C13.233 27.6666 12.258 27.2627 11.5391 26.5438C10.8202 25.8249 10.4163 24.8499 10.4163 23.8333V21.9166C10.4163 20.8999 10.0125 19.9249 9.29359 19.206C8.5747 18.4871 7.59967 18.0833 6.58301 18.0833H0.928841M39.1663 19.9999C39.1663 30.5854 30.5851 39.1666 19.9997 39.1666C9.41422 39.1666 0.833008 30.5854 0.833008 19.9999C0.833008 9.41446 9.41422 0.833252 19.9997 0.833252C30.5851 0.833252 39.1663 9.41446 39.1663 19.9999Z" stroke="#050B0C" stroke-width="1.4" stroke-linecap="round" stroke-linejoin="round"/>
</svg>
