<svg width="98" height="42" viewBox="0 0 98 42" fill="none" xmlns="http://www.w3.org/2000/svg">
<path d="M28.3746 13.6235C29.328 13.0207 29.6307 11.7342 28.9214 10.8485C27.1985 8.69692 24.9492 7.02757 22.3851 6.01898C19.1863 4.76075 15.6721 4.59951 12.3752 5.55973C9.07836 6.51995 6.17877 8.54924 4.11612 11.3399C2.05347 14.1305 0.940269 17.5303 0.94533 21.0237C0.950391 24.5171 2.07343 27.9135 4.14416 30.6979C6.21489 33.4824 9.12035 35.5029 12.42 36.4532C15.7196 37.4035 19.2334 37.2317 22.4285 35.9639C24.9897 34.9476 27.2341 33.2715 28.9507 31.1148C29.6574 30.2269 29.351 28.9413 28.3959 28.3414C27.4409 27.7415 26.201 28.0594 25.456 28.9142C24.2311 30.3195 22.6906 31.4174 20.9538 32.1066C18.5823 33.0476 15.9743 33.1751 13.5253 32.4698C11.0762 31.7644 8.91969 30.2647 7.38275 28.1981C5.8458 26.1314 5.01225 23.6105 5.00849 21.0176C5.00474 18.4247 5.83098 15.9013 7.36193 13.83C8.89288 11.7587 11.045 10.2525 13.492 9.53983C15.939 8.82714 18.5474 8.94681 20.9216 9.8807C22.6604 10.5646 24.2041 11.6579 25.433 13.0595C26.1805 13.912 27.4213 14.2262 28.3746 13.6235Z" fill="white"/>
<path d="M11.8578 1.85294C11.8578 0.82959 12.6721 0 13.6766 0C14.681 0 15.4953 0.82959 15.4953 1.85294V6.79412C15.4953 7.81747 14.681 8.64706 13.6766 8.64706C12.6721 8.64706 11.8578 7.81747 11.8578 6.79412V1.85294Z" fill="white"/>
<path d="M11.8578 35.2059C11.8578 34.1825 12.6721 33.3529 13.6766 33.3529C14.681 33.3529 15.4953 34.1825 15.4953 35.2059V40.1471C15.4953 41.1704 14.681 42 13.6766 42C12.6721 42 11.8578 41.1704 11.8578 40.1471V35.2059Z" fill="white"/>
<path d="M17.9203 1.85294C17.9203 0.82959 18.7346 0 19.7391 0C20.7435 0 21.5578 0.82959 21.5578 1.85294V6.79412C21.5578 7.81747 20.7435 8.64706 19.7391 8.64706C18.7346 8.64706 17.9203 7.81747 17.9203 6.79412V1.85294Z" fill="white"/>
<path d="M17.9203 35.2059C17.9203 34.1825 18.7346 33.3529 19.7391 33.3529C20.7435 33.3529 21.5578 34.1825 21.5578 35.2059V40.1471C21.5578 41.1704 20.7435 42 19.7391 42C18.7346 42 17.9203 41.1704 17.9203 40.1471V35.2059Z" fill="white"/>
<path d="M36.7556 25.459C35.8751 25.459 35.1137 25.2805 34.4713 24.9236C33.8326 24.563 33.3395 24.0619 32.9918 23.4201C32.6441 22.7747 32.4703 22.0266 32.4703 21.1758C32.4703 20.3177 32.6441 19.5678 32.9918 18.926C33.3395 18.2806 33.8326 17.7795 34.4713 17.4226C35.1137 17.062 35.8751 16.8818 36.7556 16.8818C37.6361 16.8818 38.3957 17.062 39.0343 17.4226C39.6767 17.7795 40.1718 18.2806 40.5194 18.926C40.8671 19.5678 41.0409 20.3177 41.0409 21.1758C41.0409 22.0266 40.8671 22.7747 40.5194 23.4201C40.1718 24.0619 39.6767 24.563 39.0343 24.9236C38.3957 25.2805 37.6361 25.459 36.7556 25.459ZM36.767 23.6743C37.1675 23.6743 37.502 23.5661 37.7703 23.3498C38.0386 23.1299 38.2407 22.8306 38.3768 22.4521C38.5166 22.0735 38.5865 21.6427 38.5865 21.1595C38.5865 20.6764 38.5166 20.2456 38.3768 19.867C38.2407 19.4884 38.0386 19.1892 37.7703 18.9693C37.502 18.7493 37.1675 18.6394 36.767 18.6394C36.3626 18.6394 36.0225 18.7493 35.7466 18.9693C35.4746 19.1892 35.2686 19.4884 35.1288 19.867C34.9927 20.2456 34.9247 20.6764 34.9247 21.1595C34.9247 21.6427 34.9927 22.0735 35.1288 22.4521C35.2686 22.8306 35.4746 23.1299 35.7466 23.3498C36.0225 23.5661 36.3626 23.6743 36.767 23.6743Z" fill="white"/>
<path d="M42.4515 25.2967V16.9899H44.8662V25.2967H42.4515ZM43.6645 15.9191C43.3055 15.9191 42.9975 15.8055 42.7405 15.5784C42.4874 15.3477 42.3608 15.0718 42.3608 14.751C42.3608 14.4337 42.4874 14.1615 42.7405 13.9344C42.9975 13.7036 43.3055 13.5882 43.6645 13.5882C44.0235 13.5882 44.3296 13.7036 44.5828 13.9344C44.8397 14.1615 44.9682 14.4337 44.9682 14.751C44.9682 15.0718 44.8397 15.3477 44.5828 15.5784C44.3296 15.8055 44.0235 15.9191 43.6645 15.9191Z" fill="white"/>
<path d="M49.0557 20.4943V25.2967H46.6409V16.9899H48.9423V18.4555H49.0443C49.237 17.9724 49.5601 17.5902 50.0136 17.309C50.4671 17.0242 51.0169 16.8818 51.6631 16.8818C52.2677 16.8818 52.7949 17.0079 53.2446 17.2603C53.6943 17.5127 54.0438 17.8732 54.2933 18.3419C54.5427 18.807 54.6674 19.3623 54.6674 20.0076V25.2967H52.2526V20.4186C52.2564 19.9103 52.1204 19.5137 51.8445 19.2289C51.5686 18.9404 51.1889 18.7962 50.7052 18.7962C50.3802 18.7962 50.093 18.8629 49.8436 18.9963C49.5979 19.1297 49.4052 19.3244 49.2654 19.5804C49.1293 19.8328 49.0594 20.1374 49.0557 20.4943Z" fill="white"/>
<path d="M56.4109 28.4118V16.9899H58.7916V18.3852H58.8993C59.0051 18.1617 59.1582 17.9345 59.3585 17.7038C59.5625 17.4694 59.8271 17.2747 60.1521 17.1197C60.4808 16.9611 60.8889 16.8818 61.3764 16.8818C62.0113 16.8818 62.597 17.0404 63.1336 17.3577C63.6702 17.6713 64.0991 18.1454 64.4204 18.78C64.7416 19.4109 64.9022 20.2023 64.9022 21.1541C64.9022 22.0807 64.7453 22.8631 64.4317 23.5012C64.1218 24.1358 63.6986 24.6171 63.162 24.9452C62.6291 25.2697 62.0321 25.4319 61.3708 25.4319C60.9022 25.4319 60.5035 25.358 60.1747 25.2102C59.8497 25.0624 59.5833 24.8767 59.3755 24.6532C59.1676 24.426 59.0089 24.1971 58.8993 23.9663H58.8256V28.4118H56.4109ZM58.7746 21.1433C58.7746 21.6373 58.8464 22.0681 58.99 22.4358C59.1336 22.8036 59.3415 23.0902 59.6136 23.2957C59.8856 23.4976 60.2163 23.5986 60.6055 23.5986C60.9985 23.5986 61.3311 23.4958 61.6032 23.2903C61.8752 23.0812 62.0812 22.7928 62.221 22.425C62.3646 22.0537 62.4364 21.6264 62.4364 21.1433C62.4364 20.6638 62.3665 20.242 62.2267 19.8778C62.0869 19.5137 61.8809 19.2289 61.6088 19.0233C61.3367 18.8178 61.0023 18.7151 60.6055 18.7151C60.2125 18.7151 59.88 18.8142 59.6079 19.0125C59.3396 19.2108 59.1336 19.492 58.99 19.8562C58.8464 20.2203 58.7746 20.6494 58.7746 21.1433Z" fill="white"/>
<path d="M66.3524 25.2967V16.9899H68.6934V18.4393H68.7841C68.9428 17.9237 69.2092 17.5343 69.5834 17.2711C69.9575 17.0043 70.3883 16.8709 70.8758 16.8709C70.9967 16.8709 71.1271 16.8781 71.2669 16.8926C71.4067 16.907 71.5295 16.9268 71.6353 16.9521V18.9963C71.522 18.9639 71.3651 18.935 71.1648 18.9098C70.9646 18.8845 70.7813 18.8719 70.615 18.8719C70.2598 18.8719 69.9424 18.9458 69.6627 19.0937C69.3869 19.2379 69.1677 19.4398 69.0052 19.6994C68.8465 19.9589 68.7671 20.2582 68.7671 20.5971V25.2967H66.3524Z" fill="white"/>
<path d="M76.2868 25.459C75.3912 25.459 74.6202 25.2859 73.974 24.9398C73.3316 24.5901 72.8366 24.0961 72.4889 23.458C72.1413 22.8162 71.9674 22.0573 71.9674 21.1812C71.9674 20.3267 72.1413 19.5768 72.4889 18.9314C72.8366 18.286 73.326 17.7831 73.957 17.4226C74.5919 17.062 75.3363 16.8818 76.1904 16.8818C76.7648 16.8818 77.2995 16.9701 77.7945 17.1467C78.2934 17.3198 78.7279 17.5812 79.0983 17.9309C79.4724 18.2806 79.7634 18.7205 79.9712 19.2505C80.1791 19.7769 80.283 20.3934 80.283 21.1V21.7328H72.9311V20.3051H78.0099C78.0099 19.9734 77.9344 19.6795 77.7832 19.4235C77.6321 19.1676 77.4223 18.9675 77.154 18.8232C76.8895 18.6754 76.5815 18.6015 76.2301 18.6015C75.8635 18.6015 75.5385 18.6826 75.2551 18.8449C74.9755 19.0035 74.7563 19.218 74.5976 19.4884C74.4389 19.7552 74.3576 20.0527 74.3538 20.3808V21.7382C74.3538 22.1492 74.4332 22.5043 74.5919 22.8036C74.7544 23.1028 74.983 23.3336 75.2778 23.4958C75.5725 23.6581 75.9221 23.7392 76.3264 23.7392C76.5947 23.7392 76.8404 23.7031 77.0633 23.631C77.2863 23.5589 77.4771 23.4508 77.6358 23.3065C77.7945 23.1623 77.9155 22.9857 77.9986 22.7766L80.232 22.9172C80.1186 23.4291 79.8862 23.8762 79.5348 24.2584C79.1871 24.6369 78.7374 24.9326 78.1857 25.1453C77.6377 25.3544 77.0048 25.459 76.2868 25.459Z" fill="white"/>
<path d="M88.9434 19.3586L86.7327 19.4884C86.6949 19.3082 86.6137 19.1459 86.489 19.0017C86.3643 18.8539 86.1999 18.7367 85.9958 18.6502C85.7955 18.5601 85.5556 18.515 85.2759 18.515C84.9018 18.515 84.5863 18.5907 84.3293 18.7421C84.0723 18.8899 83.9439 19.0882 83.9439 19.337C83.9439 19.5353 84.027 19.703 84.1933 19.84C84.3595 19.977 84.6449 20.0869 85.0492 20.1699L86.625 20.4727C87.4715 20.6386 88.1026 20.9054 88.5182 21.2731C88.9339 21.6409 89.1418 22.124 89.1418 22.7225C89.1418 23.2669 88.9736 23.7446 88.6373 24.1556C88.3047 24.5666 87.8475 24.8875 87.2655 25.1182C86.6874 25.3454 86.0204 25.459 85.2646 25.459C84.112 25.459 83.1937 25.23 82.5098 24.7721C81.8295 24.3106 81.4309 23.6833 81.3137 22.8901L83.6888 22.7711C83.7606 23.1064 83.9344 23.3624 84.2103 23.5391C84.4861 23.7121 84.8395 23.7987 85.2703 23.7987C85.6935 23.7987 86.0336 23.7212 86.2906 23.5661C86.5513 23.4075 86.6836 23.2038 86.6874 22.955C86.6836 22.7459 86.591 22.5746 86.4096 22.4413C86.2282 22.3042 85.9486 22.1997 85.5707 22.1276L84.0629 21.841C83.2126 21.6787 82.5797 21.3975 82.164 20.9973C81.7521 20.5971 81.5461 20.0869 81.5461 19.4668C81.5461 18.9332 81.6973 18.4735 81.9996 18.0878C82.3057 17.702 82.7346 17.4045 83.2863 17.1954C83.8418 16.9863 84.4918 16.8818 85.2363 16.8818C86.3359 16.8818 87.2013 17.1035 87.8324 17.5469C88.4672 17.9904 88.8376 18.5943 88.9434 19.3586Z" fill="white"/>
<path d="M97.7469 19.3586L95.5362 19.4884C95.4985 19.3082 95.4172 19.1459 95.2925 19.0017C95.1678 18.8539 95.0034 18.7367 94.7993 18.6502C94.5991 18.5601 94.3591 18.515 94.0795 18.515C93.7053 18.515 93.3898 18.5907 93.1328 18.7421C92.8759 18.8899 92.7474 19.0882 92.7474 19.337C92.7474 19.5353 92.8305 19.703 92.9968 19.84C93.1631 19.977 93.4484 20.0869 93.8527 20.1699L95.4285 20.4727C96.275 20.6386 96.9061 20.9054 97.3218 21.2731C97.7375 21.6409 97.9453 22.124 97.9453 22.7225C97.9453 23.2669 97.7771 23.7446 97.4408 24.1556C97.1083 24.5666 96.651 24.8875 96.0691 25.1182C95.4909 25.3454 94.8239 25.459 94.0681 25.459C92.9156 25.459 91.9973 25.23 91.3133 24.7721C90.6331 24.3106 90.2344 23.6833 90.1172 22.8901L92.4923 22.7711C92.5641 23.1064 92.7379 23.3624 93.0138 23.5391C93.2897 23.7121 93.643 23.7987 94.0738 23.7987C94.497 23.7987 94.8371 23.7212 95.0941 23.5661C95.3549 23.4075 95.4871 23.2038 95.4909 22.955C95.4871 22.7459 95.3945 22.5746 95.2131 22.4413C95.0318 22.3042 94.7521 22.1997 94.3742 22.1276L92.8664 21.841C92.0162 21.6787 91.3832 21.3975 90.9675 20.9973C90.5556 20.5971 90.3497 20.0869 90.3497 19.4668C90.3497 18.9332 90.5008 18.4735 90.8031 18.0878C91.1092 17.702 91.5381 17.4045 92.0899 17.1954C92.6454 16.9863 93.2953 16.8818 94.0398 16.8818C95.1395 16.8818 96.0048 17.1035 96.6359 17.5469C97.2708 17.9904 97.6411 18.5943 97.7469 19.3586Z" fill="white"/>
</svg>
