<svg width="22" height="22" viewBox="0 0 22 22" fill="none" xmlns="http://www.w3.org/2000/svg">
<path fill-rule="evenodd" clip-rule="evenodd" d="M10.964 0.333252C12.9472 0.355882 14.7388 0.843281 16.3388 1.79545C17.9197 2.72861 19.2348 4.05175 20.1583 5.63834C21.1047 7.24799 21.5892 9.05043 21.6117 11.0456C21.5555 13.7756 20.6945 16.1072 19.0286 18.0406C17.3627 19.9739 15.2291 21.17 13.0204 21.6285V13.9746H15.1085L15.5807 10.9668H12.4188V8.99674C12.4013 8.58834 12.5304 8.18713 12.7829 7.86566C13.0358 7.54332 13.4811 7.3739 14.1188 7.3574H16.0282V4.72263C16.0008 4.71381 15.7408 4.67896 15.2483 4.61806C14.6897 4.5527 14.128 4.51779 13.5656 4.51349C12.2928 4.51936 11.2862 4.8784 10.5458 5.5906C9.80529 6.30261 9.42704 7.33272 9.41101 8.68095V10.9668H7.00476V13.9746H9.41101V21.6285C6.69904 21.17 4.56542 19.9739 2.89952 18.0406C1.23363 16.1072 0.372618 13.7756 0.316406 11.0456C0.338896 9.05033 0.823349 7.2479 1.76976 5.63834C2.69328 4.05175 4.00839 2.72861 5.58933 1.79545C7.1893 0.843464 8.98087 0.356065 10.964 0.333252Z" fill="white"/>
</svg>
