<svg width="41" height="41" viewBox="0 0 41 41" fill="none" xmlns="http://www.w3.org/2000/svg">
<path d="M32.0314 35.0481C31.8411 34.3229 31.4615 33.6614 30.9314 33.1313C30.4013 32.6012 29.7398 32.2216 29.0146 32.0314C29.7398 31.8411 30.4013 31.4615 30.9314 30.9314C31.4615 30.4013 31.8411 29.7398 32.0314 29.0146C32.2216 29.7398 32.6012 30.4013 33.1313 30.9314C33.6614 31.4615 34.3229 31.8411 35.0481 32.0314C34.3229 32.2216 33.6614 32.6012 33.1313 33.1313C32.6012 33.6614 32.2216 34.3229 32.0314 35.0481Z" fill="black"/>
<path d="M12.172 5.95215C12.2284 6.11935 12.2899 6.27246 12.352 6.42173C12.352 6.42621 12.352 6.43134 12.3552 6.43582L12.3603 6.44287C12.5959 7.05909 12.9756 7.60996 13.4677 8.04942C13.9597 8.48887 14.5498 8.80413 15.1887 8.96885C14.4636 9.1591 13.802 9.53873 13.2719 10.0688C12.7419 10.5989 12.3622 11.2604 12.172 11.9856C11.9978 11.4293 11.7336 10.9053 11.3898 10.4346C10.8153 9.72572 10.0343 9.2134 9.15527 8.96885C9.8804 8.7786 10.5419 8.39898 11.072 7.86888C11.6021 7.33878 11.9817 6.67728 12.172 5.95215Z" fill="black"/>
<path d="M29.4216 33.5988C28.3853 33.1137 27.2783 32.7969 26.1423 32.6603C26.0979 32.6492 26.0549 32.6331 26.0142 32.6122C24.4997 33.6715 22.8468 34.5176 21.1018 35.1267C20.9072 35.1983 20.7013 35.2349 20.4939 35.2349C20.2825 35.2347 20.0728 35.1972 19.8744 35.1241C16.8063 34.0726 14.0488 32.2728 11.8512 29.8876C6.7006 24.2732 6.24319 16.8278 6.42897 12.8899C6.44734 12.4665 6.60143 12.0602 6.8685 11.731C7.13556 11.4019 7.50143 11.1674 7.91202 11.0622C8.49499 10.9181 9.06515 10.7554 9.63466 10.5843C8.5819 10.0647 7.44736 9.73075 6.28099 9.59711C6.16297 9.5747 6.05375 9.5192 5.96607 9.43708C5.87839 9.35496 5.81587 9.2496 5.78579 9.1333C5.42383 9.20825 5.06252 9.28577 4.69672 9.34855C4.56392 9.36967 4.4415 9.43317 4.34775 9.52958C4.254 9.62599 4.19394 9.75013 4.17654 9.88347C3.69607 13.0616 2.69477 24.0541 9.96266 32.0344C12.7618 35.0741 16.3468 37.2808 20.3216 38.4105C20.4278 38.4444 20.542 38.4444 20.6483 38.4105C23.8941 37.4789 26.8914 35.8351 29.4216 33.5988Z" fill="black"/>
<path d="M13.7998 6.47023C14.2784 7.22873 14.985 7.62335 16.2143 7.94815C17.3572 7.35685 18.4565 6.72648 19.4815 6.06663C19.783 5.87048 20.135 5.76606 20.4947 5.76606C20.8543 5.76606 21.2063 5.87048 21.5078 6.06663C23.6511 7.44565 25.9258 8.60894 28.2984 9.53946C29.8559 10.1512 31.4517 10.6605 33.0756 11.0641C33.4861 11.1686 33.8521 11.4024 34.1196 11.731C34.387 12.0596 34.5416 12.4654 34.5605 12.8886C34.7021 15.8906 34.4638 20.9234 32.0704 25.6371C32.2124 25.6449 32.3477 25.7001 32.4546 25.7938C32.5616 25.8875 32.634 26.0144 32.6604 26.1541C32.8026 27.1022 33.0369 28.0343 33.36 28.9369C37.9456 21.6338 37.321 13.248 36.8111 9.88924C36.7942 9.75707 36.7353 9.63383 36.643 9.53772C36.5507 9.44163 36.4299 9.37777 36.2986 9.3556C33.8831 8.93439 31.5167 8.269 29.2357 7.36966C26.2499 6.18895 23.435 4.61538 20.8653 2.69054C20.7587 2.60893 20.6282 2.5647 20.494 2.5647C20.3598 2.5647 20.2293 2.60893 20.1228 2.69054C18.1493 4.16247 16.0307 5.42894 13.7998 6.47023Z" fill="black"/>
<path d="M31.2019 27.1587C30.5994 28.1299 29.9091 29.0439 29.1397 29.889C28.7835 30.2779 28.4075 30.6443 28.0225 31.0012C30.1173 30.4432 30.6746 29.661 31.2019 27.1587Z" fill="black"/>
<path d="M7.71871 12.9541C7.54254 16.6896 7.96856 23.7493 12.804 29.0223C14.8618 31.2533 17.4435 32.9359 20.3153 33.9179C20.4317 33.9631 20.5609 33.9631 20.6773 33.9179C23.5518 32.9362 26.1359 31.2529 28.1957 29.0204C33.0317 23.7474 33.4577 16.6877 33.2809 12.9484C33.2752 12.7997 33.222 12.6569 33.129 12.5407C33.0361 12.4246 32.9084 12.3414 32.7646 12.3032C31.0878 11.8861 29.44 11.3599 27.8318 10.7279C25.3821 9.76714 23.0334 8.56631 20.8201 7.14301C20.7251 7.0803 20.6137 7.04688 20.4998 7.04688C20.3859 7.04688 20.2746 7.0803 20.1795 7.14301C19.5274 7.56454 18.8387 7.9707 18.1346 8.36789C18.2626 8.40827 18.3744 8.4882 18.4541 8.59618C18.5338 8.70416 18.5771 8.83461 18.5779 8.96879C18.578 9.11864 18.5256 9.26377 18.4297 9.37895C18.3339 9.49412 18.2006 9.57204 18.0533 9.59917C13.9917 10.3468 13.5497 10.7888 12.8002 14.8523C12.7731 14.9996 12.6952 15.1328 12.5801 15.2287C12.465 15.3245 12.3199 15.377 12.1701 15.377C12.0203 15.377 11.8752 15.3245 11.7601 15.2287C11.645 15.1328 11.5671 14.9996 11.54 14.8523C11.4033 13.7341 11.0979 12.6431 10.6342 11.6165C9.85135 11.8683 9.05057 12.1034 8.2357 12.3058C8.09136 12.3441 7.96317 12.4278 7.87007 12.5445C7.77697 12.6613 7.7239 12.8049 7.71871 12.9541ZM13.3959 19.7037L14.198 18.885C14.5787 18.512 15.0904 18.3031 15.6234 18.3031C16.1564 18.3031 16.6681 18.512 17.0488 18.885L19.2186 21.1003C19.3542 21.2349 19.5375 21.3104 19.7285 21.3104C19.9196 21.3104 20.1029 21.2349 20.2384 21.1003L26.5166 14.6941C26.7015 14.5039 26.9227 14.3528 27.1671 14.2497C27.4115 14.1466 27.6741 14.0935 27.9394 14.0938C28.2051 14.0933 28.4682 14.1463 28.713 14.2497C28.9577 14.353 29.1792 14.5046 29.3642 14.6953L30.1662 15.5141C30.5391 15.8991 30.7476 16.414 30.7476 16.95C30.7476 17.486 30.5391 18.001 30.1662 18.386L21.1539 27.5847C20.9685 27.7751 20.7469 27.9263 20.5021 28.0296C20.2572 28.1329 19.9942 28.1862 19.7285 28.1862C19.4628 28.1862 19.1998 28.1329 18.955 28.0296C18.7102 27.9263 18.4885 27.7751 18.3031 27.5847L13.3959 22.5757C13.0231 22.1906 12.8146 21.6757 12.8146 21.1397C12.8146 20.6037 13.0231 20.0888 13.3959 19.7037Z" fill="black"/>
<path d="M19.2187 26.6896C19.3544 26.8239 19.5377 26.8992 19.7286 26.8992C19.9196 26.8992 20.1028 26.8239 20.2385 26.6896L29.2509 17.489C29.3911 17.3444 29.4696 17.1509 29.4696 16.9495C29.4696 16.7481 29.3911 16.5547 29.2509 16.4101L28.4494 15.5914C28.3833 15.5229 28.304 15.4684 28.2164 15.4312C28.1287 15.3939 28.0344 15.3748 27.9392 15.3748C27.8439 15.3748 27.7497 15.3939 27.662 15.4312C27.5743 15.4684 27.4951 15.5229 27.4289 15.5914L21.1508 21.9977C20.77 22.3706 20.2583 22.5794 19.7254 22.5794C19.1925 22.5794 18.6808 22.3706 18.3 21.9977L16.1334 19.7824C15.9975 19.6482 15.8142 19.573 15.6232 19.573C15.4322 19.573 15.2489 19.6482 15.1129 19.7824L14.3115 20.6011C14.1712 20.7456 14.0928 20.9391 14.0928 21.1405C14.0928 21.3419 14.1712 21.5354 14.3115 21.6799L19.2187 26.6896Z" fill="black"/>
</svg>
