<svg width="22" height="16" viewBox="0 0 22 16" fill="none" xmlns="http://www.w3.org/2000/svg">
<path d="M21.5403 2.42034C21.2873 1.46764 20.5418 0.717363 19.5953 0.462687C17.8796 -8.19564e-08 11 0 11 0C11 0 4.1204 -8.19564e-08 2.40475 0.462687C1.45819 0.71732 0.712723 1.46764 0.459723 2.42034C0 4.14717 0 7.75001 0 7.75001C0 7.75001 0 11.3529 0.459723 13.0797C0.712723 14.0324 1.45819 14.7827 2.40475 15.0373C4.1204 15.5 11 15.5 11 15.5C11 15.5 17.8796 15.5 19.5953 15.0373C20.5418 14.7827 21.2873 14.0324 21.5403 13.0797C22 11.3529 22 7.75001 22 7.75001C22 7.75001 22 4.14717 21.5403 2.42034Z" fill="white"/>
<path d="M8.75 11.0213L14.5 7.75022L8.75 4.479V11.0213Z" fill="#050B0C"/>
</svg>
