<svg width="181" height="157" viewBox="0 0 181 157" fill="none" xmlns="http://www.w3.org/2000/svg">
<path fill-rule="evenodd" clip-rule="evenodd" d="M78.1596 0C34.9931 0 0 34.9408 0 78.0419C0 121.144 34.9931 156.084 78.1596 156.084C121.326 156.084 181 78.0419 181 78.0419C181 78.0419 121.326 0 78.1596 0ZM167.93 78.0419C159.404 67.5221 149.645 56.9838 138.654 46.427C113.555 22.3213 93.3903 10.2685 78.1596 10.2685C59.4088 10.2685 43.405 16.8872 30.1479 30.1244C16.8951 43.3574 10.2687 59.3298 10.2687 78.0419C10.2687 96.7538 16.8951 112.727 30.1479 125.96C43.4049 139.196 59.4087 145.815 78.1596 145.815C93.3903 145.815 113.555 133.762 138.654 109.657C149.645 99.0997 159.404 88.5614 167.93 78.0419Z" fill="url(#paint0_linear_1_9937)"/>
<path fill-rule="evenodd" clip-rule="evenodd" d="M115.182 70.854H41.1348V96.0124C41.1348 101.967 46.1076 106.795 52.2418 106.795H104.075C110.209 106.795 115.182 101.967 115.182 96.0124V70.854ZM72.9228 85.2315L73.3669 84.7967C74.7712 83.3874 74.7527 81.1457 73.3255 79.7583C71.8985 78.371 69.5893 78.35 68.1355 79.711L61.3639 86.2846C59.9186 87.6881 59.9186 89.9631 61.3639 91.3665L68.1355 97.9364C69.0652 98.8708 70.4417 99.2455 71.7362 98.9166C73.0307 98.5877 74.0415 97.6064 74.3803 96.3497C74.7191 95.0932 74.3331 93.7569 73.3706 92.8545L72.9228 92.4196H89.2648C91.3096 92.4196 92.9672 90.8105 92.9672 88.8255C92.9672 86.8406 91.3096 85.2315 89.2648 85.2315H72.9228ZM52.2418 49.2896C46.1076 49.2896 41.1348 54.1169 41.1348 60.0717V63.6658H115.182V60.0717C115.182 54.1169 110.209 49.2896 104.075 49.2896H52.2418Z" fill="url(#paint1_linear_1_9937)"/>
<defs>
<linearGradient id="paint0_linear_1_9937" x1="-9.99386" y1="-7.80419" x2="196.362" y2="14.6011" gradientUnits="userSpaceOnUse">
<stop stop-color="#A3DCAD"/>
<stop offset="0.504808" stop-color="#D2FFDA"/>
<stop offset="1" stop-color="#A3DCAD"/>
</linearGradient>
<linearGradient id="paint1_linear_1_9937" x1="37.0463" y1="46.4143" x2="121.238" y2="56.5647" gradientUnits="userSpaceOnUse">
<stop stop-color="#A3DCAD"/>
<stop offset="0.504808" stop-color="#D2FFDA"/>
<stop offset="1" stop-color="#A3DCAD"/>
</linearGradient>
</defs>
</svg>
